<svg width="53" height="52" viewBox="0 0 53 52" fill="none" xmlns="http://www.w3.org/2000/svg">
<path fill-rule="evenodd" clip-rule="evenodd" d="M30.7812 22.4948H28.2178V20.8819C28.2178 20.567 27.9586 20.3128 27.6401 20.3128C27.3217 20.3128 27.0624 20.5692 27.0624 20.8819V22.4948H26.114C24.6742 22.4948 23.4983 23.6533 23.4983 25.0794C23.4983 26.5056 24.6742 27.6641 26.114 27.6641H29.1731C29.976 27.6641 30.6288 28.3119 30.6288 29.1105C30.6288 29.9068 29.976 30.5547 29.1731 30.5547H24.5014C23.7417 30.5547 23.7417 31.6952 24.5014 31.6952H27.0647V33.308C27.0647 33.623 27.324 33.8772 27.6424 33.8772C27.9608 33.8772 28.2201 33.6207 28.2201 33.308V31.6952H29.1754C30.6152 31.6952 31.7865 30.5367 31.7865 29.1105C31.7865 27.6843 30.6152 26.5258 29.1754 26.5258H26.1162C25.3065 26.5258 24.6537 25.878 24.6537 25.0794C24.6537 24.2831 25.3065 23.6353 26.1162 23.6353H30.7834C31.1019 23.6353 31.3612 23.3788 31.3612 23.0662C31.3589 22.7512 31.0996 22.4948 30.7812 22.4948ZM37.9524 27.095C37.9524 32.7164 33.3283 37.2918 27.6422 37.2918C21.956 37.2918 17.332 32.7186 17.332 27.095C17.332 21.4713 21.956 16.8981 27.6422 16.8981C33.3283 16.9004 37.9524 21.4735 37.9524 27.095ZM41.6894 16.4979C40.5885 16.8578 39.5036 16.7791 38.4687 16.2617L26.9462 10.5188C25.088 9.59197 25.2768 6.87913 27.2692 6.22679C27.8674 6.03109 28.5111 6.07607 29.0706 6.35501L35.0796 9.3513C35.3526 9.48851 35.7051 9.38729 35.8507 9.09935C35.9962 8.81817 35.8825 8.47627 35.5982 8.33455L29.5892 5.33826C28.7522 4.92211 27.8037 4.85463 26.9076 5.14481C26.0979 5.41025 25.4246 5.94336 24.997 6.66095L14.8551 9.96993C13.6201 10.3726 12.2872 9.70674 11.8778 8.48529C11.4729 7.26606 12.1485 5.94561 13.3767 5.54072L26.5184 1.25547C27.1121 1.06201 27.7489 1.10925 28.3153 1.39044C28.3266 1.39494 28.3312 1.39944 28.3426 1.40394L39.4557 6.18857C39.5853 6.24481 39.7309 6.25156 39.8651 6.20882L41.7848 5.58124L45.06 15.398L41.6894 16.4979ZM52.9708 14.6871L48.5037 1.29592C48.4059 0.996741 48.0784 0.834779 47.7758 0.933753L41.5281 2.9718C41.2165 3.07302 41.0641 3.40144 41.1551 3.69163L41.4258 4.49917L39.7108 5.05929L28.8184 0.366905C27.9813 -0.044746 27.0374 -0.112232 26.1595 0.175701L13.0177 4.46095C11.1845 5.05933 10.1792 7.02533 10.7842 8.84293C11.4006 10.6807 13.4044 11.6435 15.2194 11.0519L24.5264 8.01737C24.3535 9.43003 25.0768 10.863 26.4301 11.5401L37.9549 17.283C39.2832 17.9443 40.6615 18.0388 42.0558 17.5844L45.4289 16.4844L45.6291 17.0895C45.7292 17.3887 46.0612 17.5484 46.3569 17.4517L52.6093 15.4114C52.905 15.3102 53.0709 14.9863 52.9708 14.6871ZM40.9842 45.2892C41.935 43.4379 40.129 41.3818 38.1457 42.0296L28.0084 45.3386C27.3602 46.4161 26.1911 47.0325 24.9879 47.0325C24.4602 47.0325 23.9189 46.9132 23.4117 46.6613L17.4027 43.665C17.1161 43.5233 17.0024 43.1814 17.1502 42.9002C17.2913 42.619 17.6347 42.5066 17.9213 42.6483L23.9303 45.6446C25.0903 46.2227 26.5141 45.7593 27.0963 44.612C27.6763 43.4693 27.2101 42.0611 26.0546 41.483L14.5298 35.7401C13.4949 35.2249 12.41 35.1439 11.3092 35.5039L7.93837 36.5993L11.2136 46.4138L13.1333 45.7862C13.2675 45.7435 13.4131 45.7502 13.5427 45.8065L24.6558 50.5911C24.6672 50.5956 24.6718 50.6001 24.6831 50.6046C25.2495 50.8858 25.8863 50.933 26.48 50.7396L39.6217 46.4543C40.2176 46.2609 40.7022 45.847 40.9842 45.2892ZM37.784 40.9476L28.4771 43.9844C28.6499 42.5718 27.9266 41.1388 26.5734 40.4617L15.0485 34.7188C13.7316 34.062 12.351 33.9607 10.9476 34.4174L7.57683 35.5174L7.37213 34.9123C7.27433 34.6131 6.95135 34.4511 6.64884 34.5501L0.396453 36.5904C0.0939478 36.6894 -0.0720916 37.011 0.0302593 37.3102L4.49735 50.7014C4.59743 51.0118 4.92495 51.1603 5.22519 51.0658L11.4729 49.0255C11.7777 48.9265 11.9415 48.6049 11.8391 48.3057L11.5684 47.4981L13.2834 46.938L24.1805 51.6304C25.0539 52.0331 25.9273 52.1208 26.8394 51.8239L39.9812 47.5364C41.8076 46.9402 42.8197 44.9629 42.2147 43.1544C41.6096 41.3391 39.6241 40.3493 37.784 40.9476Z" fill="white"/>
</svg>
