<svg width="47" height="54" viewBox="0 0 47 54" fill="none" xmlns="http://www.w3.org/2000/svg">
<path d="M36.6904 34.2588C37.1626 33.7868 37.9252 33.787 38.3975 34.2588C39.2923 35.167 42.5626 36.3301 44.8037 36.3301H44.8174C45.4825 36.3302 46.0273 36.8749 46.0273 37.54C46.0273 43.5231 46.0272 49.1791 38.0957 53.1504C37.9255 53.2366 37.7437 53.2842 37.5508 53.2842C37.3579 53.2841 37.1761 53.2344 37.0059 53.1504C29.0745 49.1908 29.0742 43.5341 29.0742 37.54C29.0743 36.8748 29.6199 36.3301 30.2852 36.3301C32.5129 36.3299 35.7822 35.167 36.6904 34.2588ZM20.585 0C28.6025 0 35.1172 6.51472 35.1172 14.5322V21.7979H36.3271C39.0019 21.7979 41.1709 23.9645 41.1709 26.6416V33.083C40.676 32.8878 40.2758 32.6951 40.1055 32.5498C39.7195 32.1638 39.2586 31.8838 38.75 31.7021V26.6416C38.75 25.3087 37.66 24.2188 36.3271 24.2188H4.84082C3.50802 24.2188 2.41797 25.3088 2.41797 26.6416V48.4395C2.41818 49.7721 3.50814 50.8622 4.84082 50.8623H30.0537L30.0566 50.8594C30.7582 51.7085 31.5933 52.5081 32.6104 53.2822H4.84375C2.16915 53.2822 0.000215323 51.1163 0 48.4395V26.6416C0 23.9669 2.16669 21.7979 4.84375 21.7979H6.05371V14.5322C6.05371 6.51484 12.5676 0.000198306 20.585 0ZM40.4912 40.0918C39.8965 39.8016 39.1702 40.0446 38.8682 40.6367L37.1973 43.9795L35.9619 42.7441C35.4896 42.2719 34.7262 42.2719 34.2539 42.7441C33.7817 43.2164 33.7817 43.9799 34.2539 44.4521L36.6768 46.875C36.9083 47.1064 37.2217 47.2264 37.5371 47.2266C37.5961 47.2266 37.6692 47.2149 37.7305 47.2148C38.1051 47.1535 38.4439 46.9134 38.6143 46.5615L41.0361 41.7178V41.7158C41.3268 41.1209 41.0838 40.3824 40.4912 40.0918ZM20.583 29.0635C23.2577 29.0635 25.4258 31.2302 25.4258 33.9072C25.4257 36.1596 23.8751 38.0371 21.793 38.582V44.8057C21.793 45.4709 21.2483 46.0166 20.583 46.0166C19.9177 46.0166 19.373 45.4709 19.373 44.8057V38.582C17.291 38.0371 15.7403 36.1596 15.7402 33.9072C15.7402 31.2325 17.906 29.0635 20.583 29.0635ZM20.585 4.84375C15.231 4.84395 10.8965 9.18056 10.8965 14.5322V21.7979H30.2744V14.5322C30.2744 9.17811 25.9367 4.84375 20.585 4.84375Z" fill="white"/>
</svg>
