<svg width="49" height="59" viewBox="0 0 49 59" fill="none" xmlns="http://www.w3.org/2000/svg">
<path fill-rule="evenodd" clip-rule="evenodd" d="M47.7879 35.3379C47.8088 35.3731 47.8968 35.5256 47.9176 35.5678C48.8509 37.3533 48.228 39.5799 46.4886 40.5981L34.3623 47.6911C33.026 48.4724 31.5113 48.883 29.9713 48.883H21.5528C20.4667 48.883 19.4221 49.2889 18.6139 50.0232L17.2707 51.2456C17.4536 52.6698 16.9626 54.1597 15.8278 55.192L12.5947 58.1342C12.252 58.4462 11.7239 58.4157 11.4182 58.0708L0.563016 45.8304C0.254993 45.4832 0.2851 44.9482 0.627867 44.6385L3.86094 41.6964C5.10927 40.5584 6.81845 40.2675 8.30067 40.786L11.594 37.7899C12.7056 36.7786 14.1508 36.2179 15.6469 36.2179H33.5954C34.7997 36.2179 35.872 36.7974 36.5506 37.6936L42.7623 34.0616C44.5085 33.041 46.7318 33.6157 47.7879 35.3379ZM46.4701 36.4101C46.4539 36.3749 46.3798 36.2412 46.3659 36.2201C45.78 35.2769 44.5571 34.9624 43.596 35.5256L37.2456 39.2397C37.2942 39.4814 37.3197 39.7324 37.3197 39.9882V39.9929C37.3197 42.0764 35.6522 43.7632 33.5956 43.7632H22.192C21.7335 43.7632 21.3583 43.3855 21.3583 42.9186C21.3583 42.4541 21.7335 42.074 22.192 42.074H33.5956C34.7328 42.074 35.6522 41.1425 35.6522 39.9929V39.9882C35.6522 39.6996 35.5943 39.4251 35.4901 39.1741C35.467 39.1248 35.4461 39.0755 35.4206 39.0263C35.0779 38.3622 34.39 37.9071 33.5957 37.9071H15.6472C14.561 37.9071 13.5165 38.313 12.7082 39.0473L9.81096 41.6845C9.9314 41.7948 10.0472 41.9121 10.1584 42.0364L16.1661 48.8122C16.3606 49.0328 16.532 49.2674 16.6779 49.5138L17.5001 48.7653C18.6141 47.7541 20.0569 47.1933 21.553 47.1933H29.9714C31.2197 47.1933 32.4472 46.8602 33.5287 46.2267L45.6551 39.1337C46.5977 38.5824 46.9472 37.3861 46.4701 36.4101ZM4.97508 42.9517L2.3627 45.3307L12.0991 56.3134L14.7139 53.9343C15.8603 52.8902 15.9552 51.1024 14.9246 49.941L8.91688 43.1652C7.88626 42.0039 6.12149 41.9076 4.97508 42.9517ZM22.3586 1.5449C23.9288 -0.0481701 26.4763 -0.0481701 28.0489 1.5449L30.0013 3.5228C30.4436 3.97093 31.0435 4.222 31.6688 4.222H34.4294C36.6527 4.222 38.4546 6.0474 38.4546 8.29979V11.0965C38.4546 11.73 38.7024 12.3376 39.1448 12.7858L41.0971 14.7637C42.6696 16.3567 42.6696 18.9376 41.0971 20.5284L39.1448 22.5063C38.7024 22.9544 38.4546 23.5621 38.4546 24.1956V26.9947C38.4546 29.2447 36.6527 31.0701 34.4294 31.0701H31.6688C31.0435 31.0701 30.4436 31.3212 30.0013 31.7693L28.0489 33.7472C26.4764 35.338 23.9288 35.338 22.3586 33.7472L20.4039 31.7693C19.9638 31.3212 19.364 31.0701 18.7387 31.0701H15.9757C13.7547 31.0701 11.9528 29.2447 11.9528 26.9947V24.1956C11.9528 23.5621 11.705 22.9544 11.2627 22.5063L9.31028 20.5284C7.73776 18.9377 7.73776 16.3568 9.31028 14.7637L11.2627 12.7858C11.705 12.3376 11.9528 11.73 11.9528 11.0965V8.29979C11.9528 6.0474 13.7547 4.222 15.9757 4.222H18.7387C19.364 4.222 19.9638 3.97095 20.4039 3.5228L22.3586 1.5449ZM23.5374 2.73915L21.585 4.71939C20.83 5.4819 19.8063 5.9113 18.7387 5.9113H15.9757C14.6764 5.9113 13.6203 6.98115 13.6203 8.29979V11.0965C13.6203 12.1781 13.1965 13.2151 12.4415 13.98L10.4891 15.9579C9.56966 16.8917 9.56966 18.4027 10.4891 19.3342L12.4415 21.3121C13.1965 22.0769 13.6203 23.114 13.6203 24.1956V26.9947C13.6203 28.3109 14.6764 29.3808 15.9757 29.3808H18.7387C19.8063 29.3808 20.83 29.8102 21.585 30.5751L23.5374 32.553C24.4568 33.4845 25.9483 33.4845 26.8701 32.553L28.8225 30.5751C29.5774 29.8102 30.6011 29.3808 31.6688 29.3808H34.4294C35.731 29.3808 36.7871 28.311 36.7871 26.9947V24.1956C36.7871 23.114 37.2109 22.077 37.9636 21.3121L39.9183 19.3342C40.8377 18.4027 40.8377 16.8917 39.9183 15.9579L37.9636 13.98C37.2109 13.2152 36.7871 12.1781 36.7871 11.0965V8.29979C36.7871 6.98121 35.731 5.9113 34.4294 5.9113H31.6688C30.6011 5.9113 29.5775 5.48194 28.8225 4.71939L26.8701 2.73915C25.9483 1.80768 24.4568 1.80768 23.5374 2.73915ZM25.2026 6.60107C31.2192 6.60107 36.1064 11.5516 36.1064 17.6474C36.1064 23.7409 31.2197 28.6889 25.2026 28.6889C19.1855 28.6889 14.3011 23.7407 14.3011 17.6474C14.3011 11.5521 19.1855 6.60107 25.2026 6.60107ZM25.2026 8.29036C20.1074 8.29036 15.9689 12.4831 15.9689 17.6471C15.9689 22.8089 20.1076 26.999 25.2026 26.999C30.3 26.999 34.4386 22.8086 34.4386 17.6471C34.4386 12.483 30.2999 8.29036 25.2026 8.29036ZM25.9298 11.6643L27.463 14.414L30.52 15.0452C30.8141 15.1038 31.055 15.3221 31.1476 15.6106C31.2403 15.9016 31.1708 16.2183 30.9693 16.4435L28.8618 18.771L29.2138 21.9103C29.2485 22.213 29.1212 22.5109 28.8757 22.6893C28.6348 22.8676 28.3152 22.9004 28.042 22.7737L25.2026 21.4645L22.3655 22.7737C22.0922 22.9004 21.7726 22.8676 21.5294 22.6893C21.2862 22.511 21.1588 22.213 21.1912 21.9103L21.5456 18.771L19.4381 16.4435C19.2366 16.2183 19.1671 15.9016 19.2597 15.6106C19.3524 15.3221 19.5932 15.1039 19.8874 15.0452L22.9421 14.414L24.4776 11.6643C24.6258 11.4015 24.9037 11.2372 25.2025 11.2372C25.5036 11.2372 25.7816 11.4015 25.9298 11.6643ZM25.2026 13.797L24.2067 15.5825C24.0886 15.7937 23.8848 15.9462 23.6462 15.9955L21.6637 16.4037L23.0325 17.9147C23.1946 18.093 23.2733 18.337 23.2456 18.581L23.0163 20.6175L24.8575 19.7682C25.0775 19.6649 25.3299 19.6649 25.55 19.7682L27.3912 20.6175L27.1619 18.581C27.1341 18.337 27.2129 18.093 27.375 17.9147L28.7437 16.4037L26.7589 15.9955C26.5227 15.9462 26.3189 15.7937 26.2008 15.5825L25.2026 13.797Z" fill="white" stroke="white" stroke-width="0.7"/>
</svg>
