<svg width="57" height="43" viewBox="0 0 57 43" fill="none" xmlns="http://www.w3.org/2000/svg">
<path d="M30.8152 0C30.5981 0.000845181 30.3833 0.044442 30.1831 0.128301C29.9828 0.212159 29.8011 0.334638 29.6481 0.488743C29.4952 0.642848 29.3742 0.825561 29.2919 1.02645C29.2096 1.22734 29.1677 1.44247 29.1685 1.65957C29.1694 2.09633 29.343 2.51501 29.6516 2.82415C29.9601 3.13328 30.3784 3.30776 30.8152 3.30946H32.4263V5.52762C24.4235 7.70303 18.5137 15.0272 18.5137 23.699C18.5137 34.0783 26.9781 42.5291 37.3663 42.5291C47.7545 42.5291 56.2093 34.0783 56.2093 23.699C56.2093 15.0278 50.3088 7.70355 42.3095 5.52762V3.30946H43.9207C44.3574 3.30776 44.7758 3.13328 45.0843 2.82415C45.3928 2.51501 45.5665 2.09633 45.5673 1.65957C45.5682 1.44247 45.5263 1.22734 45.444 1.02645C45.3617 0.825561 45.2406 0.642848 45.0877 0.488742C44.9348 0.334637 44.753 0.212159 44.5528 0.128301C44.3526 0.044442 44.1378 0.000845099 43.9207 0H30.8152ZM35.7197 3.30946H39.0033V4.94321C38.4641 4.89635 37.9174 4.86898 37.3663 4.86898C36.8109 4.86898 36.2631 4.89585 35.7197 4.94321V3.30946ZM7.9718 6.88369C7.53504 6.88454 7.11637 7.05819 6.80723 7.36672C6.49809 7.67526 6.32361 8.09359 6.3219 8.53034C6.32105 8.74771 6.36308 8.9631 6.44557 9.16421C6.52807 9.36531 6.64941 9.54817 6.80266 9.70232C6.95591 9.85647 7.13806 9.97888 7.33867 10.0625C7.53929 10.1462 7.75444 10.1895 7.9718 10.1899H19.9053C20.1223 10.1891 20.3371 10.1455 20.5374 10.0616C20.7376 9.97776 20.9194 9.85528 21.0723 9.70117C21.2252 9.54707 21.3463 9.36435 21.4286 9.16346C21.5108 8.96257 21.5528 8.74744 21.5519 8.53034C21.5502 8.09415 21.3762 7.6763 21.0677 7.36786C20.7593 7.05942 20.3414 6.88539 19.9053 6.88369H7.9718ZM37.3663 8.17841C45.9697 8.17841 52.9031 15.1086 52.9031 23.699C52.9031 32.2894 45.9697 39.2228 37.3663 39.2228C28.7629 39.2228 21.8199 32.2894 21.8199 23.699C21.8199 15.1086 28.7629 8.17841 37.3663 8.17841ZM37.1952 11.9109C36.9781 11.91 36.763 11.9519 36.5621 12.0342C36.3612 12.1165 36.1785 12.2376 36.0244 12.3905C35.8703 12.5434 35.7478 12.7251 35.6639 12.9254C35.5801 13.1256 35.5365 13.3404 35.5356 13.5575V25.1875C35.5361 25.4048 35.5794 25.62 35.663 25.8206C35.7467 26.0212 35.8691 26.2033 36.0233 26.3565C36.1774 26.5098 36.3603 26.6311 36.5614 26.7136C36.7625 26.7961 36.9778 26.8382 37.1952 26.8374H43.9336C44.151 26.8382 44.3664 26.7962 44.5675 26.7137C44.7686 26.6312 44.9514 26.5098 45.1056 26.3566C45.2597 26.2033 45.3821 26.0212 45.4658 25.8206C45.5495 25.62 45.5927 25.4048 45.5932 25.1875C45.594 24.9693 45.5517 24.7531 45.4686 24.5514C45.3855 24.3496 45.2633 24.1663 45.109 24.0121C44.9547 23.8578 44.7714 23.7356 44.5697 23.6525C44.368 23.5694 44.1518 23.527 43.9336 23.5279H38.8451V13.5575C38.8434 13.1208 38.6689 12.7024 38.3598 12.3939C38.0506 12.0854 37.6319 11.9117 37.1952 11.9109ZM3.43219 14.4616C3.21482 14.462 2.99967 14.5053 2.79906 14.5889C2.59844 14.6726 2.4163 14.795 2.26305 14.9492C2.1098 15.1033 1.98845 15.2862 1.90596 15.4873C1.82346 15.6884 1.78144 15.9038 1.78229 16.1211C1.784 16.5579 1.95848 16.9762 2.26761 17.2848C2.57675 17.5933 2.99543 17.7669 3.43219 17.7678H15.3527C15.5698 17.7686 15.7849 17.7267 15.9858 17.6444C16.1867 17.5621 16.3694 17.4411 16.5235 17.2882C16.6776 17.1353 16.8001 16.9535 16.884 16.7533C16.9678 16.553 17.0114 16.3382 17.0123 16.1211C17.0131 15.903 16.9708 15.6868 16.8877 15.485C16.8046 15.2833 16.6824 15.1 16.5281 14.9457C16.3738 14.7915 16.1906 14.6692 15.9888 14.5861C15.7871 14.503 15.5709 14.4607 15.3527 14.4616H3.43219ZM1.66282 22.0394C1.44437 22.0382 1.22783 22.0802 1.02572 22.1631C0.823614 22.246 0.639942 22.3681 0.485322 22.5225C0.330703 22.6768 0.208202 22.8602 0.124902 23.0622C0.0416025 23.2641 -0.000845154 23.4806 1.2749e-05 23.699C0.000858881 23.9164 0.0445639 24.1314 0.128626 24.3319C0.212688 24.5324 0.335457 24.7143 0.489906 24.8672C0.644355 25.0202 0.827451 25.1411 1.02871 25.2232C1.22998 25.3053 1.44546 25.347 1.66282 25.3457H13.5834C13.8005 25.3465 14.0156 25.3046 14.2165 25.2223C14.4174 25.14 14.6001 25.019 14.7542 24.8661C14.9083 24.7132 15.0308 24.5314 15.1146 24.3312C15.1985 24.1309 15.2421 23.9161 15.2429 23.699C15.2438 23.4808 15.2015 23.2646 15.1184 23.0629C15.0353 22.8612 14.913 22.6779 14.7588 22.5236C14.6045 22.3693 14.4212 22.2471 14.2195 22.164C14.0177 22.0809 13.8015 22.0386 13.5834 22.0394H1.66282ZM3.43219 29.6302C2.99543 29.6311 2.57675 29.8047 2.26761 30.1133C1.95848 30.4218 1.784 30.8401 1.78229 31.2769C1.78144 31.4942 1.82346 31.7096 1.90596 31.9107C1.98845 32.1119 2.1098 32.2947 2.26305 32.4489C2.4163 32.603 2.59844 32.7254 2.79906 32.8091C2.99967 32.8928 3.21482 32.936 3.43219 32.9365H15.3527C15.5709 32.9373 15.7871 32.895 15.9888 32.8119C16.1906 32.7288 16.3738 32.6066 16.5281 32.4523C16.6824 32.298 16.8046 32.1147 16.8877 31.913C16.9708 31.7113 17.0131 31.4951 17.0123 31.2769C17.0114 31.0598 16.9678 30.845 16.884 30.6448C16.8001 30.4445 16.6776 30.2627 16.5235 30.1098C16.3694 29.9569 16.1867 29.8359 15.9858 29.7536C15.7849 29.6713 15.5698 29.6294 15.3527 29.6302H3.43219ZM7.9718 37.2081C7.75444 37.2085 7.53929 37.2518 7.33867 37.3355C7.13806 37.4191 6.95591 37.5416 6.80266 37.6957C6.64941 37.8499 6.52807 38.0327 6.44558 38.2338C6.36308 38.4349 6.32105 38.6503 6.3219 38.8677C6.32361 39.3044 6.49809 39.7228 6.80723 40.0313C7.11637 40.3398 7.53504 40.5135 7.9718 40.5143H19.9053C20.3414 40.5126 20.7593 40.3386 21.0677 40.0302C21.3762 39.7217 21.5502 39.3039 21.5519 38.8677C21.5528 38.6506 21.5108 38.4355 21.4285 38.2346C21.3463 38.0337 21.2252 37.851 21.0723 37.6968C20.9194 37.5427 20.7376 37.4203 20.5374 37.3364C20.3371 37.2525 20.1223 37.2089 19.9053 37.2081H7.9718Z" fill="white"/>
</svg>
