<svg width="54" height="54" viewBox="0 0 54 54" fill="none" xmlns="http://www.w3.org/2000/svg">
<path d="M43.2186 28.1345C44.3795 28.4674 45.4157 29.0865 46.2478 29.9043C47.5312 31.1691 48.327 32.9211 48.327 34.854C48.327 36.787 47.5312 38.5367 46.2478 39.8037C45.8601 40.1858 45.427 40.5232 44.9577 40.8115C46.9847 41.4216 48.7986 42.5143 50.2588 43.9534C52.5716 46.2327 54 49.3813 54 52.8559C54 53.4883 53.4808 54 52.8391 54H1.1609C0.519214 54 0 53.4883 0 52.8559V6.8201C0 6.18768 0.519232 5.67597 1.1609 5.67597H11.3687L12.2077 4.10949C12.414 3.72066 12.8153 3.49944 13.2325 3.49944L15.942 3.4972L17.0554 0.724005C17.2345 0.274843 17.6721 0 18.1346 0H24.7669C25.2702 0 25.6988 0.317319 25.8598 0.757528L26.9594 3.49497H29.669C30.1429 3.49497 30.5487 3.7743 30.7301 4.1743L31.5327 5.67374H42.0581C42.6998 5.67374 43.219 6.18547 43.219 6.81787L43.2186 28.1345ZM12.6543 44.5167C12.0126 44.5167 11.4934 44.005 11.4934 43.3726C11.4934 42.7402 12.0126 42.2285 12.6543 42.2285H30.249C30.8907 42.2285 31.4099 42.7402 31.4099 43.3726C31.4099 44.005 30.8906 44.5167 30.249 44.5167H12.6543ZM12.6543 39.5335C12.0126 39.5335 11.4934 39.0218 11.4934 38.3894C11.4934 37.757 12.0126 37.2453 12.6543 37.2453H30.249C30.8907 37.2453 31.4099 37.757 31.4099 38.3894C31.4099 39.0218 30.8906 39.5335 30.249 39.5335H12.6543ZM16.4159 34.5503C15.7742 34.5503 15.255 34.0386 15.255 33.4062C15.255 32.7738 15.7743 32.2621 16.4159 32.2621H27.3447C27.9864 32.2621 28.5056 32.7738 28.5056 33.4062C28.5056 34.0386 27.9863 34.5503 27.3447 34.5503H16.4159ZM23.2269 15.8421L24.898 19.0555L28.6777 19.6946C29.308 19.7996 29.7321 20.3918 29.6255 21.013C29.5802 21.2789 29.4441 21.5069 29.2559 21.6722L26.6643 24.2376L27.2153 27.9784C27.306 28.6018 26.8638 29.1806 26.2312 29.27C25.9818 29.3057 25.737 29.2588 25.5306 29.1493L22.2089 27.4912L18.7738 29.1628C18.2001 29.4421 17.5063 29.2097 17.2229 28.6443C17.1072 28.4119 17.0778 28.1594 17.1254 27.9225L17.6945 24.3225L15.019 21.6164C14.5723 21.165 14.5836 20.4432 15.0416 20.003C15.223 19.8309 15.4452 19.7259 15.6765 19.6924L19.3565 19.1092L21.1409 15.7661C21.4379 15.2097 22.1408 14.9952 22.7054 15.2879C22.948 15.4131 23.1271 15.6119 23.2269 15.8443L23.2269 15.8421ZM23.1068 20.6041L22.1545 18.7717L21.1387 20.6756C20.9732 20.9817 20.6693 21.2119 20.2952 21.27L18.2342 21.5963L19.7579 23.1359C20.0005 23.3839 20.1297 23.737 20.0708 24.1057L19.7488 26.1437L21.6806 25.2029C22.0003 25.0376 22.3926 25.0219 22.7394 25.194L24.6032 26.1236L24.2903 23.994C24.2427 23.6521 24.3515 23.2923 24.6168 23.0286L26.0884 21.5694L23.9412 21.2074C23.5943 21.1448 23.2791 20.9325 23.1068 20.5996L23.1068 20.6041ZM20.3451 3.2253H22.5558V5.51356H20.3451V3.2253ZM28.7866 49.967H5.12392C4.48223 49.967 3.96302 49.4553 3.96302 48.8229V10.8452C3.96302 10.2128 4.48225 9.70108 5.12392 9.70108H9.2143L10.1462 7.96028H2.32173V51.7101H28.5013C28.5557 51.1179 28.6509 50.5347 28.787 49.9693L28.7866 49.967ZM33.6864 9.70108H37.7768C38.4185 9.70108 38.9377 10.2128 38.9377 10.8452V28.224C39.5567 28.0161 40.2143 27.891 40.8968 27.8597V7.95816H32.7548L33.6867 9.69895L33.6864 9.70108ZM36.6159 29.5266V11.9893H6.285V47.6787H29.5756C30.215 46.2799 31.1061 45.0196 32.1922 43.9492C33.6524 42.5101 35.4663 41.4151 37.4933 40.8073C37.024 40.5212 36.5909 40.1838 36.2032 39.7995C34.9198 38.5347 34.124 36.7827 34.124 34.8498C34.124 32.9168 34.9198 31.1671 36.2032 29.9001C36.3347 29.7705 36.473 29.6454 36.6136 29.5247L36.6159 29.5266ZM28.9702 5.779H26.17C25.7074 5.779 25.2698 5.50414 25.0907 5.055L23.9774 2.2818H18.9234L17.8237 5.01924C17.6628 5.4617 17.2342 5.77677 16.7309 5.77677H13.9306L11.8333 9.69856H31.0677L28.9704 5.77677L28.9702 5.779ZM33.8338 45.5644C32.199 47.1755 31.1038 49.3186 30.8362 51.7049H51.617C51.3494 49.3161 50.2543 47.1731 48.6195 45.5644C46.7285 43.7007 44.1142 42.5477 41.228 42.5477C38.3416 42.5477 35.7273 43.7007 33.8365 45.5644H33.8338ZM44.6064 31.5173C43.7017 30.6257 42.4932 30.1385 41.2257 30.1385C39.9061 30.1385 38.7112 30.6659 37.845 31.5173C36.9811 32.3687 36.446 33.5486 36.446 34.8492C36.446 36.1497 36.9811 37.3273 37.845 38.181C38.7089 39.0324 39.9061 39.5598 41.2257 39.5598C42.5453 39.5598 43.7402 39.0324 44.6064 38.181C45.4702 37.3296 46.0054 36.1497 46.0054 34.8492C46.0054 33.5486 45.4703 32.371 44.6064 31.5173Z" fill="white"/>
</svg>
