<svg width="60" height="33" viewBox="0 0 60 33" fill="none" xmlns="http://www.w3.org/2000/svg">
<path fill-rule="evenodd" clip-rule="evenodd" d="M2.72229 22.058C2.8717 23.4888 3.20858 24.4104 3.62162 24.9195C3.96729 25.3086 4.50632 25.4724 5.01605 25.332H10.6552C11.2704 25.3905 11.8709 25.1535 12.2752 24.6883L12.2986 24.6591C12.7029 23.9861 12.905 23.2049 12.8757 22.4208C12.8757 22.4208 12.8377 6.84068 12.8377 6.82645C12.7937 6.41391 12.5682 6.0394 12.2313 5.79949C11.6454 5.50105 10.9951 5.36647 10.333 5.4162H3.44006C2.86296 5.38695 2.30053 5.58883 1.88162 5.98674C1.55059 6.37587 1.43928 7.05175 1.59746 8.09917L2.72237 22.0524L2.72229 22.058ZM45.5212 6.88462L42.9872 5.18475C42.621 4.93898 42.2227 4.66103 41.8184 4.37724C40.3566 3.36488 38.886 2.31747 37.2602 1.89907C36.314 1.65331 35.3414 1.51579 34.3571 1.50116C33.4578 1.47776 32.5643 1.57723 31.6884 1.79374C31.1787 1.92248 30.6924 2.10973 30.2266 2.34672C29.8135 2.56323 29.4386 2.83241 29.1017 3.14838L27.3616 5.18479C27.3089 5.28134 27.2327 5.37204 27.1448 5.43933L22.4196 11.0481C22.4782 11.3787 22.6218 11.686 22.8327 11.9463C23.0583 12.2243 23.3658 12.4408 23.7028 12.5608C24.1012 12.7041 24.52 12.7568 24.9331 12.71C25.727 12.6339 26.4769 12.3208 27.0921 11.8176L28.4045 10.7175C28.7355 10.4483 29.0109 10.1937 29.2892 9.93917C29.8516 9.39204 30.4727 8.8976 31.1347 8.4792C32.5965 7.60144 34.0671 7.57223 35.5289 10.0006L42.9521 23.4011H45.4802C45.4802 23.4011 45.4948 7.11915 45.5241 6.88471L45.5212 6.88462ZM46.0778 5.4451C46.1891 5.28711 46.3238 5.13789 46.4674 5.00331C47.2467 4.38304 48.2368 4.06705 49.2357 4.13431H55.6775C57.028 4.13431 58.1236 4.37423 58.8881 4.95942C59.7347 5.61187 60.1332 6.60079 59.9603 8.03155L58.5366 22.766C58.5132 23.8749 58.1382 24.9458 57.4645 25.8206C56.7673 26.6076 55.7332 27.0113 54.6815 26.906H48.8841C48.1342 26.9646 47.393 26.7334 46.8072 26.2682C46.3561 25.8937 45.9987 25.4285 45.7585 24.8989H43.7489C44.0037 25.6099 44.0184 26.3824 43.787 27.1021C43.5614 27.775 43.1425 28.369 42.58 28.8107C42.0322 29.2437 41.3789 29.5305 40.6905 29.6417C39.9992 29.7528 39.2961 29.6797 38.6516 29.4164C38.0071 30.1361 37.1751 30.6599 36.2524 30.9437C35.4117 31.1748 34.5211 31.1309 33.695 30.8237C32.9978 31.6634 32.0457 32.2545 30.9794 32.509C29.8779 32.7109 28.7383 32.5382 27.7482 32.0233C27.4113 32.2925 27.0276 32.5178 26.6321 32.6816C26.0843 32.9069 25.4925 33.0181 24.9008 32.9976C23.7231 33.021 22.5836 32.6085 21.7048 31.8302C20.9695 31.1046 20.369 30.2649 19.9061 29.352L16.7043 23.793H14.223C14.1117 24.4308 13.8568 25.0365 13.4877 25.5602L13.4497 25.6128C12.7583 26.4584 11.695 26.9148 10.5993 26.8183H5.18565C4.18088 27.0436 3.1321 26.6837 2.47005 25.8966C1.83144 25.1623 1.39787 23.948 1.21038 22.2043V22.1457L0.0854777 8.31231C-0.140088 6.82305 0.0854778 5.75804 0.706515 5.03831C1.38908 4.30394 2.34993 3.9002 3.35469 3.92941H10.3062C11.2524 3.87089 12.1957 4.07863 13.0277 4.54968C13.6048 4.91541 14.0237 5.47718 14.2112 6.13841H18.8749C19.9412 5.37479 21.1159 4.77499 22.355 4.34783C23.6528 3.95869 25.0237 3.85336 26.3684 4.03184L27.9649 2.13595L28.0235 2.07743C28.4571 1.66489 28.9522 1.30505 29.4853 1.02118C30.0565 0.7286 30.6541 0.497456 31.2781 0.33946C32.2828 0.0936956 33.317 -0.0204149 34.354 0.00299161C35.4496 0.0263981 36.5365 0.175615 37.5998 0.453564C39.46 0.939251 41.0654 2.07157 42.6326 3.15703C43.0075 3.42036 43.3825 3.68076 43.7809 3.94409L46.0541 5.45087H46.0687L46.0778 5.4451ZM7.71701 18.8891C8.43766 18.8891 9.01478 19.4654 9.02063 20.1852C9.02063 20.905 8.44353 21.4814 7.72286 21.4872C7.00222 21.4872 6.4251 20.9108 6.41925 20.1911V20.1823C6.41925 19.4713 6.99635 18.8949 7.71701 18.8861V18.8891ZM42.1849 24.8226C41.9739 24.7319 41.8187 24.5534 41.7572 24.3369L34.2285 10.7642C33.3966 9.37145 32.6379 9.3334 31.9114 9.7694C31.3343 10.1527 30.7953 10.5857 30.2914 11.0714C29.9603 11.3698 29.6235 11.677 29.354 11.9023L28.0182 13.0025C27.1716 13.693 26.1346 14.1172 25.0418 14.2226C24.4032 14.2811 23.7588 14.1933 23.1582 13.9768C22.5665 13.7603 22.0421 13.3858 21.6349 12.8913C21.1779 12.3149 20.9084 11.6186 20.8557 10.8842C20.841 10.6677 20.9231 10.4512 21.0725 10.2932L25.1385 5.46269C24.3447 5.43928 23.5478 5.55339 22.7921 5.79331C21.6378 6.19707 20.5422 6.76762 19.5521 7.49318C19.4173 7.60437 19.2357 7.65703 19.0658 7.65118H14.3641V22.2801H17.1324C17.4166 22.2801 17.6802 22.4381 17.8062 22.6926L21.2248 28.6174C21.6086 29.3898 22.1037 30.1067 22.6866 30.7357C23.3077 31.2594 24.1044 31.5373 24.9218 31.514C25.3056 31.5227 25.6864 31.4555 26.0467 31.3121C26.2723 31.2214 26.489 31.0956 26.6853 30.9464L24.4795 26.8268C24.3066 26.4523 24.4795 26.0017 24.8544 25.8321C25.2001 25.6741 25.6044 25.8028 25.8065 26.1159L28.2204 30.6187C29.6382 31.5257 31.5189 31.2038 32.5559 29.8697L29.0845 24.416C28.859 24.0707 28.9556 23.6085 29.3013 23.3744C29.6528 23.1579 30.1098 23.2545 30.3442 23.6056L34.003 29.3431C34.5801 29.5977 35.2334 29.6591 35.8485 29.5011C36.5018 29.2992 37.0789 28.9159 37.5271 28.4069L34.2198 22.1749C34.0235 21.8092 34.1612 21.3498 34.5274 21.1479C34.8935 20.9519 35.3535 21.0894 35.5556 21.4552L38.9743 27.9037C39.4166 28.1582 39.9351 28.2401 40.436 28.1494C40.8696 28.0821 41.2826 27.8949 41.6371 27.6257C41.9682 27.3799 42.2084 27.0405 42.3431 26.6514C42.4925 26.1657 42.4486 25.6479 42.2318 25.1914C42.1879 25.0803 42.1644 24.9661 42.1732 24.8462L42.1849 24.8226ZM52.1125 18.8891C52.8332 18.8891 53.4103 19.4801 53.4015 20.1911C53.3927 20.902 52.8098 21.4872 52.0979 21.4784C51.386 21.4784 50.8089 20.8933 50.8089 20.1764C50.8089 19.4655 51.386 18.8891 52.1067 18.8803H52.1213L52.1125 18.8891Z" fill="white"/>
</svg>
