<svg width="64" height="59" viewBox="0 0 64 59" fill="none" xmlns="http://www.w3.org/2000/svg">
<path fill-rule="evenodd" clip-rule="evenodd" d="M29.2727 58.979H26.5432C25.7355 58.9869 25.0372 58.4141 24.8906 57.6211L24.2482 54.1098L24.2508 54.1124C24.1416 53.4812 23.6724 52.972 23.0487 52.8076C21.1855 52.2852 19.3943 51.5452 17.7071 50.6011C17.15 50.2802 16.457 50.312 15.9318 50.6833L12.9838 52.7201C12.3174 53.1789 11.4138 53.0914 10.8487 52.5106L6.48796 48.1718C5.90954 47.6017 5.82691 46.7026 6.29071 46.0396L8.33782 43.1065C8.71099 42.5814 8.74298 41.8892 8.42045 41.3349C7.46888 39.6561 6.72517 37.8713 6.20275 36.0175C6.03482 35.3996 5.52038 34.9355 4.88598 34.8294L1.36482 34.1903V34.1929C0.567813 34.0471 -0.00790145 33.3549 8.22625e-05 32.5486V26.4383C-0.00791374 25.6348 0.567834 24.9399 1.36482 24.7967L4.88598 24.1575C5.52037 24.0515 6.03482 23.5874 6.20275 22.9694C6.72252 21.1156 7.46622 19.3282 8.42045 17.6521C8.74298 17.0978 8.71099 16.4057 8.33782 15.8805L6.29071 12.9474C5.82691 12.2843 5.90955 11.3853 6.48796 10.8178L10.8487 6.44985C11.4191 5.8717 12.3281 5.79214 12.9918 6.26156L15.9398 8.29833C16.4649 8.66962 17.1606 8.70144 17.7204 8.38054C19.405 7.43378 21.1962 6.69382 23.0567 6.17404C23.6778 6.00961 24.1469 5.50041 24.2562 4.86921L24.8986 1.35788C25.0452 0.567549 25.7409 -0.00525919 26.5512 3.64168e-05H29.2727C29.4912 3.64168e-05 29.6725 0.177724 29.6752 0.39519V12.8202C23.6858 12.8202 18.1493 16 15.1564 21.1608C12.1604 26.3217 12.1604 32.6814 15.1564 37.8419C18.1497 43.0028 23.686 46.1825 29.6752 46.1825V58.6075V58.6048C29.6725 58.825 29.4912 59 29.2727 59L29.2727 58.979ZM32.6845 14.6927C36.115 15.3982 39.1964 17.2652 41.3984 19.9756C40.063 20.6015 38.6609 21.0815 37.2215 21.4077C36.9017 20.4344 36.5018 19.4903 36.022 18.5832C35.257 17.0265 34.1105 15.6899 32.6845 14.6927ZM35.6725 21.7047V21.7073C35.3847 20.8746 35.0302 20.0683 34.609 19.2966C33.4842 17.2068 32.0288 15.8012 30.4401 15.4405V22.2298C32.1887 22.2006 33.932 22.0335 35.6538 21.7259L35.6725 21.7047ZM28.8488 22.2059V15.4167C27.2602 15.7773 25.8049 17.183 24.68 19.2727V19.2754C24.2722 20.0498 23.9256 20.8534 23.6431 21.6808C25.3624 21.9858 27.1029 22.1529 28.8488 22.1821V22.2059ZM22.0651 21.3784L22.0678 21.3811C22.393 20.4078 22.7955 19.4637 23.2753 18.5566C24.0429 17.0051 25.1997 15.6738 26.6312 14.6926C23.1873 15.3901 20.0927 17.2597 17.8777 19.9754C19.2131 20.5987 20.6152 21.0787 22.0546 21.4076L22.0651 21.3784ZM42.3683 21.2591C40.8729 21.9804 39.3029 22.5347 37.685 22.9087C38.1568 24.7996 38.4206 26.7382 38.4713 28.6848H44.7965C44.6606 26.0408 43.8236 23.4765 42.3683 21.2591ZM44.7939 30.2732L44.7966 30.2759C44.6606 32.9199 43.8236 35.4845 42.3683 37.702C40.8729 36.9806 39.3029 36.4263 37.685 36.0524C38.1568 34.1614 38.4206 32.2228 38.4713 30.2762L44.7939 30.2732ZM36.0964 35.7205C34.2252 35.3784 32.3274 35.1901 30.4269 35.1556V30.2759H36.8401C36.7921 32.1058 36.5442 33.9277 36.0964 35.7072V35.7205ZM30.4402 28.6848V23.805C32.338 23.7679 34.2279 23.5796 36.0964 23.2402C36.5442 25.0197 36.7921 26.8417 36.8401 28.6716L30.4402 28.6848ZM28.8355 35.1558V30.276H22.449C22.4943 32.1059 22.7422 33.9279 23.1926 35.7074C25.0612 35.3653 26.9563 35.177 28.8568 35.1425L28.8355 35.1558ZM22.449 28.6848H28.8568V23.805C26.9563 23.7706 25.0612 23.5823 23.1926 23.2402C22.7422 25.0197 22.4943 26.839 22.449 28.6716V28.6848ZM21.6307 36.0525C21.1562 34.1616 20.8924 32.223 20.8444 30.2763H14.4925C14.6284 32.9204 15.4654 35.485 16.9208 37.7024C18.4188 36.9811 19.9888 36.4268 21.6094 36.0528L21.6307 36.0525ZM14.4924 28.6848H20.8256C20.8709 26.7382 21.1348 24.7995 21.6093 22.9087C19.9886 22.5347 18.4186 21.9804 16.9206 21.2591C15.4653 23.4762 14.6283 26.0404 14.4924 28.6848ZM41.3982 38.9855C40.0628 38.3596 38.6608 37.8796 37.2214 37.5533C36.9015 38.5266 36.5017 39.4707 36.0219 40.3778C35.2569 41.9346 34.1107 43.2712 32.6847 44.2684C36.1152 43.5629 39.1962 41.6958 41.3982 38.9855ZM26.6181 44.2683C25.1867 43.287 24.0299 41.9557 23.2622 40.4043C22.7824 39.4973 22.3773 38.5531 22.0548 37.5798C20.6154 37.9007 19.216 38.3701 17.8779 38.9854C20.093 41.6905 23.1823 43.5469 26.6184 44.2391L26.6181 44.2683ZM23.6301 37.2537C23.91 38.0838 24.2592 38.89 24.667 39.6644C25.7918 41.7542 27.2471 43.1597 28.8358 43.5205V36.7312C27.0899 36.7604 25.3493 36.9275 23.6301 37.2351V37.2537ZM30.4538 36.7524C32.2024 36.7816 33.9456 36.9487 35.6675 37.2537C35.3823 38.0864 35.0278 38.8926 34.6093 39.6644C33.4845 41.7542 32.0291 43.1597 30.4404 43.5205V36.7312L30.4538 36.7524ZM49.4298 53.805C49.4271 52.402 48.3903 51.2139 46.9962 51.015C45.5994 50.8161 44.2694 51.6674 43.8696 53.012H39.1756L34.8149 48.0553C34.6629 47.8829 34.4444 47.7848 34.2125 47.7848H31.2377V49.3813H33.8499L38.1441 54.2823C38.304 54.4919 38.5599 54.6112 38.8264 54.6006H43.8829C44.2828 55.9452 45.6129 56.7965 47.0095 56.5976C48.4036 56.3987 49.4405 55.2079 49.4431 53.805L49.4298 53.805ZM43.8696 5.94895H39.1756L34.8149 10.9056C34.6629 11.078 34.4444 11.1762 34.2125 11.1762H31.2377V9.58224H33.8499L38.1441 4.67858C38.304 4.46907 38.5599 4.34972 38.8264 4.36033H43.8829C44.2801 3.01307 45.6129 2.15912 47.0095 2.35805C48.4089 2.55961 49.4458 3.75038 49.4458 5.15596C49.4458 6.55889 48.4089 7.74966 47.0095 7.95123C45.6128 8.15013 44.2801 7.29617 43.8829 5.94894L43.8696 5.94895ZM53.7216 44.8574H50.3738C50.1179 44.8574 49.8806 44.7354 49.7314 44.5339L45.4186 39.6647H42.921C43.3155 39.1581 43.6807 38.6278 44.0139 38.0761H45.7545H45.7518C45.9837 38.0761 46.2023 38.1743 46.3542 38.3467L50.715 43.2954H53.703V43.298C54.1001 41.9455 55.4382 41.0915 56.8376 41.2931C58.237 41.492 59.2792 42.6881 59.2792 44.0937C59.2792 45.5019 58.237 46.6953 56.8376 46.8969C55.4382 47.0985 54.1002 46.2445 53.703 44.892L53.7216 44.8574ZM46.3861 28.6854H58.3836C58.6368 27.3091 59.8683 26.3251 61.2756 26.3782C62.6804 26.4312 63.8345 27.5026 63.9838 28.895C64.1331 30.2873 63.2348 31.5762 61.87 31.9236C60.5053 32.271 59.0953 31.5682 58.5541 30.2766H46.3861V29.481V28.6854ZM53.7216 15.6983H50.7336L46.3728 20.655C46.2209 20.8274 46.0023 20.9255 45.7731 20.9255H44.0325C43.694 20.3739 43.3235 19.8408 42.921 19.3316H45.3972L49.7447 14.4279C49.894 14.2264 50.1312 14.1044 50.3871 14.1044H53.7376C54.1348 12.7518 55.4702 11.8979 56.8723 12.0994C58.2717 12.2984 59.3112 13.4944 59.3112 14.9C59.3112 16.3082 58.2717 17.5016 56.8723 17.7032C55.4702 17.9048 54.1348 17.0508 53.7376 15.6983L53.7216 15.6983Z" fill="white"/>
</svg>
