<svg width="60" height="53" viewBox="0 0 60 53" fill="none" xmlns="http://www.w3.org/2000/svg">
<path fill-rule="evenodd" clip-rule="evenodd" d="M29.9956 0C32.1943 0 33.9898 1.8239 33.9898 4.05734V5.87107H54.1536C56.9959 5.87107 58.4834 9.38654 56.435 11.4699L56.4375 11.4725C55.3181 12.6096 54.1361 12.4366 52.6911 12.4366L59.7481 23.6927C59.9259 23.9293 60.0211 24.232 59.996 24.5525C59.6329 29.0219 56.0119 33.7078 50.4523 33.7078C44.908 33.7078 41.3041 29.0755 40.9086 24.5479L41.1615 23.6856L48.2159 12.4321H33.9898V40.5635C36.8771 41.4895 39.3713 43.3973 41.0519 45.9461H44.7982C47.8483 45.9461 49.451 49.7186 47.2473 51.9596L47.2498 51.9622C46.6213 52.6007 45.7523 52.9975 44.7982 52.9975L15.1958 53C12.1557 53 10.543 49.2199 12.7442 46.984L12.7467 46.9865C13.3778 46.3455 14.2442 45.9486 15.1958 45.9486H18.9422C20.6225 43.3997 23.1167 41.4919 26.0043 40.566V12.432H11.78L18.837 23.6855C19.0148 23.922 19.1125 24.2247 19.0874 24.5478C18.7243 29.0198 15.1033 33.7031 9.54372 33.7031C3.99943 33.7031 0.395545 29.0709 0 24.5432L0.252924 23.6809L7.30734 12.4326C5.85992 12.4326 4.68546 12.6082 3.55851 11.466L3.55601 11.4711C2.29135 10.1864 2.29135 8.11841 3.55601 6.83377L3.55851 6.83632C4.1445 6.24108 4.95337 5.86967 5.83985 5.86967H26.0037C26.0037 4.06362 25.7958 2.59332 27.1756 1.19167L27.1781 1.19421C27.9043 0.456528 28.901 0.00120481 29.9953 0.00120481L29.9956 0ZM33.9898 8.36929V9.93114H54.1536C54.364 9.93114 54.5568 9.84211 54.697 9.69966H54.7021C55.1829 9.21126 54.8323 8.36671 54.1536 8.36671L33.9898 8.36929ZM26.0039 9.93114V8.36929H5.8401C5.62724 8.36929 5.43442 8.45578 5.29668 8.59569V8.60078C4.99367 8.90858 4.99367 9.39447 5.29668 9.70223V9.70732C5.43441 9.84722 5.62473 9.93371 5.8401 9.93371L26.0039 9.93114ZM15.6217 23.1942L9.54142 13.4998L3.46369 23.1942H15.6217ZM9.54392 25.6947H2.70747C4.80847 33.0566 14.2796 33.0566 16.3804 25.6947H9.54392ZM56.533 23.1942L50.4553 13.4998L44.3775 23.1942H56.533ZM50.4553 25.6947H43.6188C45.7223 33.0566 55.1909 33.0566 57.2917 25.6947H50.4553ZM32.5628 42.7531C28.7614 41.8424 24.7897 42.9744 22.0651 45.948H37.9292C36.4893 44.3759 34.6313 43.2593 32.5628 42.7531ZM30.4041 39.9498C30.7848 39.9625 31.1604 39.988 31.531 40.0338L31.5285 4.05467C31.5285 3.2025 30.8374 2.4979 29.996 2.4979C29.4676 2.4979 28.9166 2.8642 28.9166 2.95578C28.2781 3.60444 28.4659 4.70081 28.4659 5.86588V40.0288L30.4041 39.9498ZM45.5143 50.1959C46.1454 49.5549 45.6871 48.4483 44.7981 48.4483H15.1957C13.6807 48.7561 14.0338 50.4986 15.1957 50.4986H44.7981C45.0736 50.4986 45.3265 50.3816 45.5093 50.1959L45.5143 50.1959Z" fill="white"/>
</svg>
