<svg width="264" height="60" viewBox="0 0 264 60" fill="none" xmlns="http://www.w3.org/2000/svg">
<path fill-rule="evenodd" clip-rule="evenodd" d="M29.4211 3.62988H36.4108L35.739 8.10081H33.811V48.5852H52.1542V53.0562H29.4211V3.62988ZM67.9875 32.245V8.10081H66.2053L65.5335 3.62988H72.5231V32.245H67.9875Z" fill="white"/>
<path fill-rule="evenodd" clip-rule="evenodd" d="M37.0418 9.81125H64.9027C65.3748 9.81125 65.8312 9.4197 65.7611 8.95285L64.9027 3.23976C64.8326 2.77291 64.5163 2.38136 64.0443 2.38136H53.3537C53.3537 1.06613 52.2875 0 50.9723 0C49.6571 0 48.5909 1.06613 48.5909 2.38136H37.9002C37.4282 2.38136 37.1119 2.77302 37.0418 3.23976L36.1834 8.95285C36.1133 9.41965 36.5697 9.81125 37.0418 9.81125ZM50.9723 0.950703C51.7624 0.950703 52.403 1.59124 52.403 2.38136C52.403 3.17149 51.7624 3.81203 50.9723 3.81203C50.1822 3.81203 49.5416 3.17149 49.5416 2.38136C49.5416 1.59124 50.1822 0.950703 50.9723 0.950703Z" fill="white"/>
<path fill-rule="evenodd" clip-rule="evenodd" d="M77.0478 60H57.0186C55.4448 60 54.1572 58.7124 54.1572 57.1386V37.1094C54.1572 35.5356 55.4448 34.248 57.0186 34.248H77.0478C77.151 34.248 77.253 34.2538 77.3535 34.2645L73.5584 37.6816H59.3076C58.3634 37.6816 57.5908 38.4542 57.5908 39.3984V54.8496C57.5908 55.7938 58.3634 56.5664 59.3076 56.5664H74.7588C75.703 56.5664 76.4755 55.7938 76.4755 54.8496V47.8801L79.9091 44.7885V57.1386C79.9091 58.7124 78.6216 60 77.0478 60Z" fill="white"/>
<path fill-rule="evenodd" clip-rule="evenodd" d="M66.7222 46.5324L81.2221 33.4766V40.9112L66.7221 53.9671L59.4722 47.4392V40.0045L66.7222 46.5324Z" fill="white"/>
<path d="M42.0998 14.7842H37.5217V19.3623H42.0998V14.7842Z" fill="white"/>
<path d="M64.0438 14.7842H44.062V19.3623H64.0438V14.7842Z" fill="white"/>
<path d="M64.0438 21.6562H44.062V26.2344H64.0438V21.6562Z" fill="white"/>
<path d="M64.0438 28.5273H44.062V33.1055H64.0438V28.5273Z" fill="white"/>
<path d="M52.215 35.3994H44.0623V39.9775H52.215V35.3994Z" fill="white"/>
<path d="M42.0998 21.6562H37.5217V26.2344H42.0998V21.6562Z" fill="white"/>
<path d="M42.0998 28.5273H37.5217V33.1055H42.0998V28.5273Z" fill="white"/>
<path d="M42.0998 35.3994H37.5217V39.9775H42.0998V35.3994Z" fill="white"/>
<path fill-rule="evenodd" clip-rule="evenodd" d="M3.54201 30.2449C3.73023 29.4204 3.81675 29.413 3.8963 28.4364C6.52734 28.66 13.2531 31.5235 15.2314 31.6917C14.8956 32.2037 13.7221 34.2234 13.106 34.2234C9.03655 34.2234 5.84097 33.7502 3.54201 30.2449ZM1.0625 33.8618C1.0625 39.361 1.8651 40.4008 1.7586 46.8949C1.68982 51.0962 0.329716 50.1376 13.8145 50.1376C15.2269 50.1376 14.8772 49.113 14.8772 46.5207L25.858 46.8825V22.6494L16.3907 22.1891C11.9346 21.5744 10.3632 22.9354 12.4051 18.3194C12.8128 17.3979 13.412 15.5158 13.8503 14.7289C14.5584 13.4575 15.8698 13.5357 17.4522 13.3431C19.0229 13.1519 20.5966 12.9023 21.953 12.8751C25.3436 12.8073 25.858 13.6605 25.858 10.7139C22.2135 10.7139 18.1213 11.0566 15.216 11.7831C12.2779 12.5179 12.4355 12.7671 9.68126 18.4291C9.30391 19.2047 8.14857 21.9336 7.85036 22.3466C6.65868 23.9964 1.0625 22.9441 1.0625 33.8618Z" fill="white"/>
<path fill-rule="evenodd" clip-rule="evenodd" d="M0 20.4791C5.33562 21.7484 7.65827 25.2726 8.1063 19.261C8.26831 17.087 7.42588 17.6616 5.48086 17.4136C1.94787 16.9633 0 16.334 0 20.4791Z" fill="white"/>
<path d="M89.8831 6.88314C89.9693 6.64336 90.1243 6.52353 90.3484 6.52353H93.1138C93.3377 6.52353 93.4929 6.64336 93.579 6.88314L99.9369 26.0783C100.006 26.2628 99.9886 26.4241 99.8852 26.5623C99.7818 26.7007 99.644 26.7698 99.4717 26.7698H97.0422C96.801 26.7698 96.6546 26.6592 96.6028 26.4379L95.6466 23.6167C95.5605 23.377 95.414 23.2571 95.2073 23.2571H88.2807C88.0567 23.2571 87.9017 23.377 87.8155 23.6167L86.8851 26.4379C86.7989 26.6592 86.6439 26.7698 86.4199 26.7698H83.9905C83.8182 26.7698 83.6803 26.7007 83.577 26.5623C83.4735 26.4241 83.4563 26.2628 83.5252 26.0783L89.8831 6.88314ZM89.3145 19.0807C89.2629 19.2466 89.2844 19.4033 89.3791 19.5508C89.4739 19.6984 89.6075 19.7721 89.7797 19.7721H93.6823C93.8547 19.7721 93.9882 19.6984 94.0829 19.5508C94.1777 19.4033 94.1993 19.2466 94.1476 19.0807L92.1834 13.1617C92.0972 12.922 91.9464 12.8021 91.7311 12.8021C91.5157 12.8021 91.3649 12.922 91.2788 13.1617L89.3145 19.0807ZM109.758 6.49583C110.792 6.49583 111.761 6.70328 112.666 7.11823C113.57 7.53312 114.358 8.10006 115.03 8.81923C115.702 9.53839 116.232 10.382 116.62 11.35C117.008 12.3181 117.201 13.346 117.201 14.4339L117.227 18.8317C117.227 19.9381 117.029 20.9891 116.633 21.9849C116.237 22.9805 115.651 23.8656 114.875 24.6401C114.169 25.3408 113.363 25.8709 112.459 26.2304C111.554 26.59 110.611 26.7698 109.629 26.7698H104.253C103.926 26.7698 103.762 26.5946 103.762 26.2443V7.0214C103.762 6.87387 103.809 6.74946 103.904 6.648C103.999 6.54659 104.115 6.49583 104.253 6.49583H109.758ZM112.679 22.0402C113.092 21.616 113.406 21.1274 113.622 20.5742C113.837 20.0211 113.945 19.4402 113.945 18.8317V14.4616C113.945 13.8531 113.833 13.2769 113.609 12.7329C113.385 12.189 113.083 11.7142 112.704 11.3085C112.325 10.9028 111.882 10.5801 111.373 10.3405C110.865 10.1008 110.327 9.98087 109.758 9.98087H107.51C107.372 9.98087 107.255 10.0316 107.161 10.133C107.066 10.2344 107.018 10.3589 107.018 10.5064V22.7592C107.018 22.9068 107.066 23.0312 107.161 23.1327C107.255 23.2341 107.372 23.2848 107.51 23.2848H109.681C110.232 23.2848 110.77 23.1834 111.296 22.9805C111.821 22.7777 112.282 22.4642 112.679 22.0402ZM133.561 6.52353C133.699 6.52353 133.816 6.57887 133.91 6.68949C134.005 6.8001 134.052 6.92921 134.052 7.07674V18.2786C134.052 18.4261 134.048 18.7441 134.04 19.2328C134.031 19.7214 133.962 20.2884 133.833 20.9338C133.704 21.5791 133.497 22.2568 133.213 22.9667C132.928 23.6766 132.519 24.3266 131.985 24.9166C130.848 26.1705 129.392 26.7975 127.617 26.7975C125.98 26.7975 124.606 26.3227 123.495 25.3684C122.383 24.4188 121.621 23.0589 121.207 21.2933C121.173 21.1459 121.19 21.0122 121.259 20.8923C121.328 20.7725 121.431 20.6941 121.569 20.6572L123.818 20.1593C124.111 20.104 124.3 20.2331 124.386 20.5465C124.541 21.1735 124.744 21.6667 124.994 22.0264C125.244 22.3859 125.519 22.6625 125.821 22.8561C126.122 23.0497 126.428 23.1741 126.738 23.2295C127.048 23.2848 127.341 23.3125 127.617 23.3125C128.461 23.3125 129.125 23.0543 129.607 22.538C129.866 22.243 130.072 21.8927 130.227 21.4962C130.382 21.0997 130.503 20.7033 130.589 20.3069C130.675 19.9104 130.731 19.5416 130.757 19.1959C130.783 18.8548 130.796 18.592 130.796 18.4076V7.07674C130.796 6.92921 130.843 6.8001 130.938 6.68949C131.033 6.57887 131.149 6.52353 131.287 6.52353H133.561ZM142.685 6.88314C142.771 6.64336 142.926 6.52353 143.15 6.52353H145.915C146.139 6.52353 146.294 6.64336 146.381 6.88314L152.739 26.0783C152.807 26.2628 152.79 26.4241 152.687 26.5623C152.583 26.7007 152.446 26.7698 152.273 26.7698H149.844C149.603 26.7698 149.456 26.6592 149.404 26.4379L148.448 23.6167C148.362 23.377 148.216 23.2571 148.009 23.2571H141.082C140.858 23.2571 140.703 23.377 140.617 23.6167L139.687 26.4379C139.601 26.6592 139.445 26.7698 139.222 26.7698H136.792C136.62 26.7698 136.482 26.7007 136.379 26.5623C136.275 26.4241 136.258 26.2628 136.327 26.0783L142.685 6.88314ZM142.116 19.0807C142.064 19.2466 142.086 19.4033 142.181 19.5508C142.276 19.6984 142.409 19.7721 142.581 19.7721H146.484C146.656 19.7721 146.79 19.6984 146.885 19.5508C146.979 19.4033 147.001 19.2466 146.949 19.0807L144.985 13.1617C144.899 12.922 144.748 12.8021 144.533 12.8021C144.317 12.8021 144.167 12.922 144.08 13.1617L142.116 19.0807ZM162.198 14.7936C163.145 14.7382 163.977 14.7843 164.692 14.9318C165.407 15.0793 166.014 15.2914 166.514 15.568C167.014 15.8446 167.427 16.1581 167.755 16.5084C168.082 16.8587 168.349 17.2091 168.556 17.5594C168.849 18.0941 169.051 18.6427 169.163 19.2051C169.275 19.7676 169.318 20.3253 169.292 20.8785C169.266 21.4317 169.18 21.9572 169.034 22.455C168.887 22.9528 168.711 23.3954 168.504 23.7827C167.212 26.0692 165.101 27.2124 162.172 27.2124C161.018 27.2124 160.031 27.0279 159.213 26.6638C158.394 26.2996 157.714 25.8387 157.171 25.2901C156.628 24.7415 156.21 24.1515 155.918 23.5153C155.625 22.8838 155.426 22.2983 155.323 21.7636C155.289 21.616 155.314 21.4777 155.401 21.3487C155.487 21.2196 155.607 21.1459 155.762 21.1274L156.848 21.0168L158.037 20.8785C158.157 20.8601 158.265 20.8831 158.36 20.9476C158.455 21.0122 158.519 21.109 158.554 21.2381C158.605 21.4593 158.704 21.7128 158.851 21.9987C158.997 22.2844 159.204 22.5565 159.471 22.8146C159.738 23.0728 160.091 23.2894 160.531 23.4646C160.97 23.6397 161.517 23.7273 162.172 23.7273C162.741 23.7273 163.219 23.6766 163.606 23.5752C163.994 23.4738 164.326 23.3447 164.601 23.1834C164.877 23.0266 165.097 22.8469 165.26 22.644C165.424 22.4412 165.566 22.2245 165.687 22.0033C165.756 21.8927 165.82 21.7313 165.881 21.5192C165.941 21.3026 165.984 21.0767 166.01 20.837C166.036 20.5973 166.032 20.3484 165.997 20.0994C165.963 19.8505 165.885 19.6108 165.764 19.3895C165.609 19.1313 165.403 18.9286 165.144 18.781C164.886 18.6289 164.601 18.5137 164.291 18.4307C163.981 18.3477 163.658 18.297 163.322 18.2786C162.986 18.2601 162.663 18.2601 162.353 18.2786C161.388 18.3339 160.548 18.2877 159.833 18.1402C159.118 17.9927 158.506 17.7807 157.998 17.5041C157.49 17.2275 157.072 16.9094 156.745 16.5499C156.417 16.1903 156.159 15.8354 155.969 15.485C155.676 14.9687 155.474 14.4294 155.362 13.8669C155.25 13.3046 155.207 12.7468 155.233 12.1936C155.258 11.6404 155.34 11.1196 155.478 10.6309C155.616 10.1422 155.788 9.70429 155.995 9.3171C157.253 7.04904 159.363 5.91504 162.327 5.91504C163.481 5.91504 164.468 6.09948 165.286 6.46819C166.105 6.83696 166.785 7.29334 167.328 7.83733C167.871 8.38127 168.289 8.97134 168.582 9.60747C168.874 10.2437 169.073 10.8291 169.176 11.3638C169.21 11.5113 169.185 11.6496 169.098 11.7787C169.012 11.9078 168.892 11.9816 168.737 12L166.462 12.2489C166.187 12.2858 166.006 12.1567 165.92 11.8617C165.868 11.6589 165.773 11.4146 165.635 11.1287C165.497 10.8429 165.295 10.5709 165.028 10.3128C164.761 10.0546 164.408 9.83797 163.968 9.6628C163.529 9.48763 162.982 9.40007 162.327 9.40007C161.758 9.40007 161.276 9.45078 160.88 9.55218C160.483 9.65359 160.152 9.78269 159.885 9.93943C159.618 10.0961 159.402 10.2759 159.239 10.4787C159.075 10.6816 158.933 10.8936 158.812 11.1149C158.743 11.2255 158.679 11.3822 158.618 11.5851C158.558 11.788 158.519 12.0092 158.502 12.2489C158.485 12.4886 158.493 12.7329 158.528 12.9819C158.562 13.2308 158.64 13.4659 158.76 13.6872C158.915 13.9453 159.122 14.1527 159.381 14.3095C159.639 14.4662 159.923 14.5861 160.234 14.6691C160.544 14.7521 160.871 14.7981 161.216 14.8073C161.56 14.8166 161.888 14.812 162.198 14.7936ZM173.466 10.0085C173.328 10.0085 173.212 9.95786 173.117 9.8564C173.023 9.75499 172.975 9.63058 172.975 9.48305V7.04904C172.975 6.90157 173.023 6.77704 173.117 6.67569C173.212 6.57429 173.328 6.52353 173.466 6.52353H187.474C187.612 6.52353 187.728 6.57429 187.823 6.67569C187.918 6.77704 187.965 6.90157 187.965 7.04904V9.48305C187.965 9.83334 187.802 10.0085 187.474 10.0085H182.59C182.452 10.0085 182.336 10.0638 182.241 10.1745C182.146 10.2851 182.099 10.4142 182.099 10.5617V26.2443C182.099 26.3918 182.051 26.5163 181.956 26.6177C181.862 26.7191 181.75 26.7698 181.612 26.7698H179.355C179.217 26.7698 179.101 26.7191 178.997 26.6177C178.894 26.5163 178.842 26.3918 178.842 26.2443V10.5617C178.842 10.4142 178.795 10.2851 178.7 10.1745C178.605 10.0638 178.489 10.0085 178.351 10.0085H173.466ZM192.798 26.7698C192.471 26.7698 192.307 26.5946 192.307 26.2443V7.0214C192.307 6.87387 192.355 6.74946 192.45 6.648C192.544 6.54659 192.661 6.49583 192.798 6.49583H204.584C204.722 6.49583 204.838 6.54659 204.933 6.648C205.028 6.74946 205.075 6.87387 205.075 7.0214V9.45536C205.075 9.60289 205.028 9.72735 204.933 9.82876C204.838 9.93016 204.722 9.98087 204.584 9.98087H196.055C195.917 9.98087 195.801 10.0316 195.706 10.133C195.611 10.2344 195.564 10.3589 195.564 10.511V14.374C195.564 14.5261 195.611 14.6507 195.706 14.7521C195.801 14.8535 195.917 14.9042 196.055 14.9042H201.638C201.775 14.9042 201.892 14.9549 201.986 15.0563C202.081 15.1577 202.129 15.2775 202.129 15.425V17.8683C202.129 18.0158 202.081 18.1356 201.986 18.237C201.892 18.3385 201.775 18.3892 201.638 18.3892H196.055C195.917 18.3892 195.801 18.4399 195.706 18.5413C195.611 18.6427 195.564 18.7672 195.564 18.9147V22.7592C195.564 22.9068 195.611 23.0312 195.706 23.1327C195.801 23.2341 195.917 23.2848 196.055 23.2848H204.584C204.722 23.2848 204.838 23.3355 204.933 23.4369C205.028 23.5383 205.075 23.6628 205.075 23.8103V26.2443C205.075 26.3918 205.028 26.5163 204.933 26.6177C204.838 26.7191 204.722 26.7698 204.584 26.7698H192.798ZM212.648 19.2466C212.51 19.2466 212.393 19.2973 212.299 19.3987C212.204 19.5001 212.156 19.6246 212.156 19.7721V26.2719C212.156 26.4195 212.109 26.5393 212.014 26.6315C211.92 26.7237 211.803 26.7698 211.665 26.7698H209.391C209.253 26.7698 209.137 26.7237 209.042 26.6315C208.947 26.5393 208.9 26.4195 208.9 26.2719V7.04904C208.9 6.90157 208.947 6.77704 209.042 6.67569C209.137 6.57429 209.253 6.52353 209.391 6.52353H215.491C215.611 6.52353 215.887 6.53274 216.318 6.55117C216.748 6.5696 217.244 6.64336 217.804 6.77246C218.364 6.90157 218.954 7.10901 219.574 7.3948C220.194 7.68059 220.763 8.09085 221.28 8.62563C222.383 9.75041 222.934 11.2071 222.934 12.9957C222.934 13.5858 222.882 14.1112 222.779 14.5723C222.675 15.0333 222.542 15.4527 222.378 15.8307C222.215 16.2087 222.029 16.536 221.823 16.8126C221.616 17.0892 221.418 17.3197 221.228 17.5041C220.97 17.7623 220.698 17.9789 220.414 18.1541C220.13 18.3292 219.841 18.4906 219.548 18.6381C219.41 18.6934 219.316 18.7902 219.264 18.9286C219.212 19.0668 219.229 19.2097 219.316 19.3573L222.727 25.9954C222.813 26.1797 222.809 26.355 222.714 26.5209C222.619 26.6868 222.477 26.7698 222.288 26.7698H219.677C219.488 26.7698 219.341 26.6868 219.238 26.5209L215.671 19.5232C215.585 19.3573 215.439 19.2743 215.232 19.2743L212.648 19.2466ZM212.156 15.2361C212.156 15.3836 212.204 15.508 212.299 15.6095C212.393 15.7109 212.51 15.7616 212.648 15.7616L216.085 15.7892C216.206 15.7892 216.391 15.7847 216.641 15.7754C216.89 15.7662 217.158 15.7339 217.442 15.6786C217.726 15.6233 218.01 15.5357 218.295 15.4159C218.579 15.296 218.825 15.1254 219.031 14.9042C219.462 14.4986 219.677 13.8623 219.677 12.9957C219.677 12.2212 219.462 11.6035 219.031 11.1426C218.79 10.9028 218.501 10.7047 218.165 10.5479C217.829 10.3911 217.493 10.2759 217.158 10.2022C216.821 10.1284 216.511 10.0777 216.227 10.0501C215.943 10.0224 215.723 10.0085 215.568 10.0085L215.516 10.0362H212.648C212.51 10.0362 212.393 10.0823 212.299 10.1745C212.204 10.2667 212.156 10.3865 212.156 10.5341V15.2361ZM227.302 28.0421C227.164 28.0421 227.048 27.9914 226.953 27.89C226.858 27.7886 226.811 27.6641 226.811 27.5166V24.972C226.811 24.8244 226.858 24.7 226.953 24.5986C227.048 24.4972 227.164 24.4465 227.302 24.4465H229.576C229.714 24.4465 229.83 24.4972 229.925 24.5986C230.02 24.7 230.067 24.8244 230.067 24.972V27.5166C230.067 27.6641 230.02 27.7886 229.925 27.89C229.83 27.9914 229.714 28.0421 229.576 28.0421H227.302ZM245.91 6.49583C246.238 6.49583 246.401 6.67106 246.401 7.0214V18.2509C246.401 18.3984 246.397 18.7165 246.388 19.2051C246.38 19.6938 246.311 20.2562 246.182 20.8923C246.052 21.5285 245.846 22.2015 245.561 22.9114C245.277 23.6213 244.868 24.2713 244.334 24.8613C243.214 26.1152 241.758 26.7422 239.966 26.7422C238.019 26.7422 236.451 26.0783 235.262 24.7507C234.745 24.1607 234.345 23.5153 234.06 22.8146C233.776 22.1139 233.569 21.4501 233.44 20.8232C233.311 20.1962 233.242 19.643 233.233 19.1637C233.225 18.6842 233.22 18.3707 233.22 18.2232V7.0214C233.22 6.87387 233.268 6.74946 233.362 6.648C233.457 6.54659 233.574 6.49583 233.711 6.49583H236.012C236.149 6.49583 236.266 6.54659 236.361 6.648C236.455 6.74946 236.503 6.87387 236.503 7.0214L236.477 18.3615C236.477 18.546 236.485 18.7995 236.503 19.1222C236.52 19.4449 236.572 19.7998 236.658 20.187C236.744 20.5742 236.864 20.9568 237.02 21.3349C237.175 21.7128 237.381 22.0494 237.64 22.3444C238.208 22.9528 238.984 23.2571 239.966 23.2571C240.81 23.2571 241.473 22.9898 241.956 22.455C242.214 22.1785 242.421 21.8419 242.576 21.4454C242.731 21.049 242.852 20.6526 242.938 20.2562C243.024 19.8597 243.08 19.4909 243.106 19.1498C243.132 18.8087 243.145 18.5367 243.145 18.3339V7.0214C243.145 6.87387 243.188 6.74946 243.274 6.648C243.36 6.54659 243.472 6.49583 243.61 6.49583H245.91ZM255.292 22.4274C255.171 22.6118 255.159 22.8007 255.253 22.9944C255.348 23.188 255.499 23.2848 255.706 23.2848H262.942C263.08 23.2848 263.201 23.3355 263.304 23.4369C263.407 23.5383 263.459 23.6628 263.459 23.8103V26.2443C263.459 26.3918 263.407 26.5163 263.304 26.6177C263.201 26.7191 263.08 26.7698 262.942 26.7698H251.26C251.122 26.7698 251.002 26.7191 250.898 26.6177C250.795 26.5163 250.743 26.3918 250.743 26.2443V23.4508C250.743 23.3217 250.778 23.2203 250.847 23.1466L258.884 10.8383C259.005 10.6539 259.018 10.4649 258.923 10.2713C258.829 10.0777 258.678 9.98087 258.471 9.98087H251.26C251.122 9.98087 251.002 9.93016 250.898 9.82876C250.795 9.72735 250.743 9.60289 250.743 9.45536V7.04904C250.743 6.90157 250.795 6.77246 250.898 6.66184C251.002 6.55117 251.122 6.49583 251.26 6.49583H262.942C263.08 6.49583 263.201 6.55117 263.304 6.66184C263.407 6.77246 263.459 6.90157 263.459 7.04904V9.81491C263.459 9.9071 263.425 10.0085 263.356 10.1192L255.292 22.4274Z" fill="white"/>
<path d="M94.4842 37.2968C94.4235 37.2968 94.3723 37.2745 94.3306 37.2298C94.2889 37.1851 94.2681 37.1302 94.2681 37.0653V35.9928C94.2681 35.9279 94.2889 35.873 94.3306 35.8283C94.3723 35.7836 94.4235 35.7613 94.4842 35.7613H100.649C100.71 35.7613 100.761 35.7836 100.802 35.8283C100.844 35.873 100.865 35.9279 100.865 35.9928V37.0653C100.865 37.2196 100.793 37.2968 100.649 37.2968H98.4992C98.4385 37.2968 98.3873 37.3212 98.3456 37.3699C98.3039 37.4187 98.283 37.4755 98.283 37.5406V44.4504C98.283 44.5154 98.2622 44.5703 98.2205 44.615C98.1788 44.6596 98.1295 44.682 98.0689 44.682H97.0755C97.0149 44.682 96.9637 44.6596 96.9182 44.615C96.8727 44.5703 96.85 44.5154 96.85 44.4504V37.5406C96.85 37.4755 96.8291 37.4187 96.7874 37.3699C96.7457 37.3212 96.6945 37.2968 96.6339 37.2968H94.4842ZM102.992 44.682C102.848 44.682 102.776 44.6048 102.776 44.4504V35.9806C102.776 35.9157 102.797 35.8608 102.838 35.8161C102.88 35.7715 102.931 35.7491 102.992 35.7491H108.178C108.239 35.7491 108.29 35.7715 108.332 35.8161C108.374 35.8608 108.394 35.9157 108.394 35.9806V37.0531C108.394 37.1181 108.374 37.1729 108.332 37.2176C108.29 37.2623 108.239 37.2846 108.178 37.2846H104.425C104.364 37.2846 104.313 37.307 104.271 37.3516C104.23 37.3963 104.209 37.4512 104.209 37.5182V39.2203C104.209 39.2873 104.23 39.3422 104.271 39.3869C104.313 39.4315 104.364 39.4539 104.425 39.4539H106.882C106.942 39.4539 106.994 39.4762 107.035 39.5209C107.077 39.5656 107.098 39.6184 107.098 39.6834V40.7599C107.098 40.8248 107.077 40.8777 107.035 40.9224C106.994 40.9671 106.942 40.9894 106.882 40.9894H104.425C104.364 40.9894 104.313 41.0117 104.271 41.0564C104.23 41.1011 104.209 41.156 104.209 41.2209V42.9149C104.209 42.9799 104.23 43.0347 104.271 43.0794C104.313 43.1241 104.364 43.1465 104.425 43.1465H108.178C108.239 43.1465 108.29 43.1688 108.332 43.2135C108.374 43.2582 108.394 43.313 108.394 43.378V44.4504C108.394 44.5154 108.374 44.5703 108.332 44.615C108.29 44.6596 108.239 44.682 108.178 44.682H102.992ZM112.08 42.7686C112.027 42.8499 112.021 42.9332 112.063 43.0185C112.104 43.1038 112.171 43.1465 112.262 43.1465H115.446C115.507 43.1465 115.56 43.1688 115.606 43.2135C115.651 43.2582 115.674 43.313 115.674 43.378V44.4504C115.674 44.5154 115.651 44.5703 115.606 44.615C115.56 44.6596 115.507 44.682 115.446 44.682H110.305C110.245 44.682 110.192 44.6596 110.146 44.615C110.101 44.5703 110.078 44.5154 110.078 44.4504V43.2195C110.078 43.1627 110.093 43.118 110.123 43.0855L113.661 37.6624C113.714 37.5812 113.719 37.4979 113.678 37.4126C113.636 37.3273 113.57 37.2846 113.479 37.2846H110.305C110.245 37.2846 110.192 37.2623 110.146 37.2176C110.101 37.1729 110.078 37.1181 110.078 37.0531V35.9928C110.078 35.9279 110.101 35.871 110.146 35.8222C110.192 35.7735 110.245 35.7491 110.305 35.7491H115.446C115.507 35.7491 115.56 35.7735 115.606 35.8222C115.651 35.871 115.674 35.9279 115.674 35.9928V37.2115C115.674 37.2521 115.659 37.2968 115.628 37.3455L112.08 42.7686ZM123.226 44.3042C123.272 44.3773 123.274 44.4545 123.232 44.5358C123.19 44.617 123.128 44.6576 123.044 44.6576H121.85C121.759 44.6576 121.698 44.621 121.668 44.5479L119.655 41.1966C119.624 41.156 119.588 41.1336 119.547 41.1295C119.505 41.1254 119.469 41.1438 119.439 41.1844L118.79 42.0618C118.76 42.1105 118.745 42.1552 118.745 42.1959V44.426C118.745 44.4911 118.724 44.5459 118.682 44.5906C118.641 44.6353 118.589 44.6576 118.529 44.6576H117.528C117.467 44.6576 117.416 44.6353 117.374 44.5906C117.333 44.5459 117.312 44.4911 117.312 44.426V35.9684C117.312 35.9035 117.333 35.8486 117.374 35.804C117.416 35.7593 117.467 35.7369 117.528 35.7369H118.529C118.589 35.7369 118.641 35.7593 118.682 35.804C118.724 35.8486 118.745 35.9035 118.745 35.9684V39.3076C118.745 39.3645 118.768 39.401 118.813 39.4173C118.859 39.4336 118.896 39.4214 118.927 39.3807L121.554 35.8222C121.592 35.7572 121.645 35.7247 121.713 35.7247H122.999C123.09 35.7247 123.156 35.7694 123.198 35.8588C123.239 35.9482 123.23 36.0294 123.169 36.1025L120.587 39.6123C120.527 39.7017 120.523 39.791 120.576 39.8804L123.226 44.3042ZM127.719 35.5054C128.197 35.5054 128.648 35.6029 129.072 35.7978C129.497 35.9928 129.869 36.2589 130.187 36.5961C130.505 36.9332 130.756 37.3293 130.938 37.7843C131.12 38.2392 131.211 38.7227 131.211 39.2345V41.1478C131.211 41.6597 131.12 42.1431 130.938 42.5981C130.756 43.053 130.505 43.4491 130.187 43.7863C129.869 44.1234 129.497 44.3895 129.072 44.5844C128.648 44.7795 128.197 44.8769 127.719 44.8769C127.241 44.8769 126.79 44.7795 126.365 44.5844C125.941 44.3895 125.571 44.1234 125.256 43.7863C124.942 43.4491 124.693 43.053 124.511 42.5981C124.329 42.1431 124.238 41.6597 124.238 41.1478V39.2345C124.238 38.7227 124.329 38.2392 124.511 37.7843C124.693 37.3293 124.942 36.9332 125.256 36.5961C125.571 36.2589 125.941 35.9928 126.365 35.7978C126.79 35.6029 127.241 35.5054 127.719 35.5054ZM129.778 39.2345C129.778 38.9339 129.724 38.6496 129.618 38.3814C129.512 38.1133 129.364 37.8797 129.175 37.6807C128.985 37.4816 128.765 37.3253 128.515 37.2115C128.265 37.0977 127.999 37.0409 127.719 37.0409C127.438 37.0409 127.173 37.0977 126.923 37.2115C126.672 37.3253 126.454 37.4816 126.269 37.6807C126.083 37.8797 125.937 38.1133 125.831 38.3814C125.725 38.6496 125.671 38.9339 125.671 39.2345V41.1478C125.671 41.4484 125.725 41.7328 125.831 42.0009C125.937 42.269 126.083 42.5026 126.269 42.7016C126.454 42.9007 126.672 43.0571 126.923 43.1708C127.173 43.2846 127.438 43.3414 127.719 43.3414C127.999 43.3414 128.265 43.2846 128.515 43.1708C128.765 43.0571 128.985 42.9007 129.175 42.7016C129.364 42.5026 129.512 42.269 129.618 42.0009C129.724 41.7328 129.778 41.4484 129.778 41.1478V39.2345ZM134.611 41.3672C134.551 41.3672 134.5 41.3895 134.458 41.4342C134.416 41.4789 134.395 41.5337 134.395 41.5987V44.4626C134.395 44.5276 134.374 44.5804 134.333 44.621C134.291 44.6617 134.24 44.682 134.179 44.682H133.178C133.118 44.682 133.066 44.6617 133.025 44.621C132.983 44.5804 132.962 44.5276 132.962 44.4626V35.9928C132.962 35.9279 132.983 35.873 133.025 35.8283C133.066 35.7836 133.118 35.7613 133.178 35.7613H135.863C135.916 35.7613 136.037 35.7653 136.227 35.7735C136.416 35.7816 136.634 35.8141 136.881 35.871C137.127 35.9279 137.387 36.0192 137.66 36.1451C137.933 36.2711 138.183 36.4519 138.41 36.6875C138.896 37.1831 139.138 37.8249 139.138 38.613C139.138 38.873 139.116 39.1045 139.07 39.3076C139.025 39.5108 138.966 39.6956 138.894 39.8621C138.822 40.0286 138.74 40.1729 138.649 40.2948C138.558 40.4166 138.471 40.5182 138.388 40.5994C138.274 40.7131 138.154 40.8086 138.029 40.8858C137.904 40.963 137.777 41.0341 137.648 41.0991C137.588 41.1234 137.546 41.1661 137.523 41.227C137.5 41.288 137.508 41.3509 137.546 41.4159L139.047 44.3407C139.085 44.422 139.083 44.4992 139.042 44.5723C139 44.6454 138.937 44.682 138.854 44.682H137.705C137.622 44.682 137.557 44.6454 137.512 44.5723L135.942 41.4891C135.904 41.4159 135.84 41.3794 135.749 41.3794L134.611 41.3672ZM134.395 39.6001C134.395 39.6651 134.416 39.7199 134.458 39.7646C134.5 39.8093 134.551 39.8317 134.611 39.8317L136.124 39.8438C136.177 39.8438 136.259 39.8418 136.369 39.8377C136.479 39.8337 136.596 39.8195 136.721 39.7951C136.846 39.7707 136.972 39.7321 137.097 39.6793C137.222 39.6265 137.33 39.5514 137.421 39.4539C137.61 39.2751 137.705 38.9949 137.705 38.613C137.705 38.2717 137.61 37.9996 137.421 37.7965C137.315 37.6908 137.188 37.6035 137.04 37.5344C136.892 37.4654 136.744 37.4146 136.596 37.3821C136.448 37.3496 136.312 37.3273 136.187 37.3151C136.062 37.3029 135.965 37.2968 135.897 37.2968L135.874 37.309H134.611C134.551 37.309 134.5 37.3293 134.458 37.3699C134.416 37.4105 134.395 37.4634 134.395 37.5284V39.6001ZM145.519 39.2101C145.565 39.2101 145.587 39.2345 145.587 39.2832V40.6725C145.587 40.7213 145.565 40.7456 145.519 40.7456H140.913C140.867 40.7456 140.844 40.7213 140.844 40.6725V39.2832C140.844 39.2345 140.867 39.2101 140.913 39.2101H145.519ZM147.35 44.6698C147.206 44.6698 147.134 44.5926 147.134 44.4382V35.9806C147.134 35.9157 147.155 35.8608 147.197 35.8161C147.238 35.7715 147.29 35.7491 147.35 35.7491H148.351C148.412 35.7491 148.463 35.7715 148.505 35.8161C148.546 35.8608 148.567 35.9157 148.567 35.9806V44.4382C148.567 44.5926 148.495 44.6698 148.351 44.6698H147.35ZM153.538 39.4051C153.955 39.3807 154.321 39.401 154.635 39.4661C154.95 39.5311 155.217 39.6245 155.437 39.7464C155.657 39.8682 155.839 40.0063 155.983 40.1607C156.127 40.3151 156.245 40.4694 156.336 40.6238C156.465 40.8594 156.554 41.1011 156.603 41.3489C156.652 41.5967 156.671 41.8424 156.66 42.0862C156.649 42.3299 156.611 42.5615 156.546 42.7808C156.482 43.0002 156.404 43.1952 156.313 43.3658C155.744 44.3732 154.815 44.8769 153.526 44.8769C153.018 44.8769 152.584 44.7957 152.224 44.6353C151.864 44.4748 151.564 44.2716 151.325 44.03C151.087 43.7883 150.903 43.5283 150.774 43.248C150.645 42.9697 150.558 42.7118 150.512 42.4762C150.497 42.4112 150.508 42.3502 150.546 42.2934C150.584 42.2365 150.637 42.204 150.706 42.1959L151.183 42.1471L151.707 42.0862C151.76 42.078 151.807 42.0882 151.849 42.1167C151.89 42.1451 151.919 42.1877 151.934 42.2446C151.957 42.3421 152 42.4538 152.065 42.5797C152.129 42.7057 152.22 42.8255 152.338 42.9392C152.455 43.053 152.611 43.1485 152.804 43.2257C152.997 43.3028 153.238 43.3414 153.526 43.3414C153.777 43.3414 153.987 43.3191 154.158 43.2744C154.328 43.2297 154.474 43.1728 154.596 43.1018C154.717 43.0327 154.814 42.9535 154.886 42.8641C154.958 42.7747 155.02 42.6793 155.073 42.5818C155.104 42.533 155.132 42.462 155.159 42.3685C155.185 42.2731 155.204 42.1736 155.215 42.0679C155.227 41.9623 155.225 41.8526 155.21 41.7429C155.195 41.6333 155.16 41.5276 155.107 41.4301C155.039 41.3164 154.948 41.227 154.834 41.162C154.721 41.095 154.596 41.0443 154.459 41.0077C154.323 40.9711 154.18 40.9487 154.033 40.9407C153.885 40.9325 153.742 40.9325 153.606 40.9407C153.181 40.965 152.812 40.9447 152.497 40.8797C152.182 40.8147 151.913 40.7213 151.69 40.5994C151.466 40.4775 151.282 40.3374 151.138 40.179C150.994 40.0205 150.88 39.8641 150.797 39.7098C150.668 39.4823 150.579 39.2446 150.529 38.9969C150.48 38.7491 150.461 38.5033 150.472 38.2595C150.484 38.0158 150.52 37.7863 150.581 37.571C150.641 37.3557 150.717 37.1627 150.808 36.9922C151.362 35.9928 152.29 35.4932 153.595 35.4932C154.103 35.4932 154.537 35.5744 154.897 35.7369C155.257 35.8994 155.557 36.1004 155.795 36.3402C156.034 36.5798 156.218 36.8398 156.347 37.1201C156.476 37.4004 156.563 37.6583 156.609 37.894C156.624 37.9589 156.612 38.0199 156.575 38.0768C156.537 38.1337 156.484 38.1662 156.415 38.1742L155.414 38.2839C155.293 38.3002 155.214 38.2433 155.176 38.1133C155.153 38.0239 155.111 37.9163 155.05 37.7903C154.99 37.6645 154.901 37.5446 154.783 37.4308C154.666 37.3171 154.51 37.2216 154.317 37.1445C154.123 37.0673 153.883 37.0287 153.595 37.0287C153.344 37.0287 153.132 37.051 152.958 37.0957C152.783 37.1404 152.637 37.1973 152.52 37.2663C152.402 37.3354 152.307 37.4146 152.235 37.504C152.163 37.5934 152.101 37.6868 152.048 37.7843C152.017 37.833 151.989 37.9021 151.962 37.9914C151.936 38.0808 151.919 38.1783 151.911 38.2839C151.904 38.3896 151.907 38.4972 151.923 38.6069C151.938 38.7166 151.972 38.8201 152.025 38.9177C152.093 39.0314 152.184 39.1228 152.298 39.1918C152.412 39.2609 152.537 39.3137 152.673 39.3503C152.81 39.3869 152.954 39.4072 153.106 39.4112C153.257 39.4153 153.401 39.4132 153.538 39.4051ZM162.546 39.4539C162.607 39.4539 162.658 39.4315 162.699 39.3869C162.741 39.3422 162.762 39.2873 162.762 39.2223V35.9928C162.762 35.9279 162.783 35.873 162.825 35.8283C162.866 35.7836 162.917 35.7613 162.978 35.7613H163.979C164.04 35.7613 164.091 35.7836 164.133 35.8283C164.174 35.873 164.195 35.9279 164.195 35.9928V44.4504C164.195 44.5154 164.174 44.5703 164.133 44.615C164.091 44.6596 164.04 44.682 163.979 44.682H162.978C162.917 44.682 162.866 44.6596 162.825 44.615C162.783 44.5703 162.762 44.5154 162.762 44.4504V41.2209C162.762 41.156 162.741 41.1011 162.699 41.0564C162.658 41.0117 162.607 40.9894 162.546 40.9894H159.93C159.869 40.9894 159.818 41.0117 159.776 41.0564C159.735 41.1011 159.714 41.156 159.714 41.2209V44.4504C159.714 44.5154 159.693 44.5703 159.651 44.615C159.61 44.6596 159.558 44.682 159.498 44.682H158.497C158.436 44.682 158.385 44.6596 158.343 44.615C158.302 44.5703 158.281 44.5154 158.281 44.4504V35.9928C158.281 35.9279 158.302 35.873 158.343 35.8283C158.385 35.7836 158.436 35.7613 158.497 35.7613H159.498C159.558 35.7613 159.61 35.7836 159.651 35.8283C159.693 35.873 159.714 35.9279 159.714 35.9928V39.2223C159.714 39.2873 159.735 39.3422 159.776 39.3869C159.818 39.4315 159.869 39.4539 159.93 39.4539H162.546ZM169.404 35.5054C169.882 35.5054 170.333 35.6029 170.758 35.7978C171.183 35.9928 171.554 36.2589 171.873 36.5961C172.191 36.9332 172.441 37.3293 172.623 37.7843C172.805 38.2392 172.896 38.7227 172.896 39.2345V41.1478C172.896 41.6597 172.805 42.1431 172.623 42.5981C172.441 43.053 172.191 43.4491 171.873 43.7863C171.554 44.1234 171.183 44.3895 170.758 44.5844C170.333 44.7795 169.882 44.8769 169.404 44.8769C168.927 44.8769 168.476 44.7795 168.051 44.5844C167.626 44.3895 167.257 44.1234 166.942 43.7863C166.627 43.4491 166.379 43.053 166.197 42.5981C166.015 42.1431 165.924 41.6597 165.924 41.1478V39.2345C165.924 38.7227 166.015 38.2392 166.197 37.7843C166.379 37.3293 166.627 36.9332 166.942 36.5961C167.257 36.2589 167.626 35.9928 168.051 35.7978C168.476 35.6029 168.927 35.5054 169.404 35.5054ZM171.463 39.2345C171.463 38.9339 171.41 38.6496 171.304 38.3814C171.198 38.1133 171.05 37.8797 170.86 37.6807C170.671 37.4816 170.451 37.3253 170.201 37.2115C169.95 37.0977 169.685 37.0409 169.404 37.0409C169.124 37.0409 168.858 37.0977 168.608 37.2115C168.358 37.3253 168.14 37.4816 167.954 37.6807C167.768 37.8797 167.622 38.1133 167.516 38.3814C167.41 38.6496 167.357 38.9339 167.357 39.2345V41.1478C167.357 41.4484 167.41 41.7328 167.516 42.0009C167.622 42.269 167.768 42.5026 167.954 42.7016C168.14 42.9007 168.358 43.0571 168.608 43.1708C168.858 43.2846 169.124 43.3414 169.404 43.3414C169.685 43.3414 169.95 43.2846 170.201 43.1708C170.451 43.0571 170.671 42.9007 170.86 42.7016C171.05 42.5026 171.198 42.269 171.304 42.0009C171.41 41.7328 171.463 41.4484 171.463 41.1478V39.2345ZM180.38 35.7613C180.441 35.7613 180.492 35.7836 180.534 35.8283C180.576 35.873 180.596 35.9279 180.596 35.9928V44.4504C180.596 44.6048 180.524 44.682 180.38 44.682H179.186C179.095 44.682 179.034 44.6413 179.004 44.5601L178.287 43.1586L176.252 39.137C176.229 39.0964 176.195 39.0822 176.149 39.0944C176.104 39.1066 176.081 39.137 176.081 39.1858V44.4504C176.081 44.6048 176.009 44.682 175.865 44.682H174.864C174.72 44.682 174.648 44.6048 174.648 44.4504V35.9928C174.648 35.9279 174.669 35.873 174.71 35.8283C174.752 35.7836 174.803 35.7613 174.864 35.7613H176.058C176.142 35.7613 176.202 35.8019 176.24 35.8832L176.968 37.309L178.993 41.3062C179.015 41.355 179.049 41.3732 179.095 41.3611C179.14 41.3489 179.163 41.3144 179.163 41.2575V35.9928C179.163 35.9279 179.184 35.873 179.226 35.8283C179.268 35.7836 179.319 35.7613 179.379 35.7613H180.38ZM185.214 43.2317C185.449 43.313 185.684 43.3496 185.919 43.3414C186.154 43.3333 186.378 43.2846 186.59 43.1952C186.803 43.1058 186.998 42.9819 187.176 42.8235C187.354 42.6651 187.5 42.4762 187.614 42.2568C187.69 42.1349 187.792 42.1024 187.921 42.1593L188.797 42.5981C188.858 42.6305 188.899 42.6813 188.922 42.7503C188.945 42.8194 188.941 42.8864 188.911 42.9514C188.721 43.3171 188.482 43.638 188.194 43.9142C187.906 44.1904 187.586 44.4098 187.233 44.5723C186.88 44.7348 186.507 44.8343 186.113 44.8709C185.718 44.9074 185.324 44.8647 184.93 44.7429C184.551 44.6291 184.204 44.4524 183.889 44.2128C183.574 43.9731 183.305 43.6908 183.082 43.3658C182.858 43.0408 182.683 42.6813 182.558 42.2873C182.433 41.8933 182.371 41.485 182.371 41.0625V39.332C182.371 38.812 182.464 38.3205 182.649 37.8574C182.835 37.3943 183.087 36.9901 183.406 36.6428C183.724 36.2955 184.096 36.0213 184.52 35.8202C184.945 35.6191 185.4 35.5175 185.885 35.5175C186.424 35.5257 186.928 35.6516 187.398 35.8974C187.868 36.1452 188.274 36.4966 188.615 36.9556C188.668 37.0287 188.719 37.1039 188.769 37.1811C188.818 37.2582 188.861 37.3415 188.899 37.4308C188.937 37.4959 188.945 37.5629 188.922 37.6319C188.899 37.701 188.854 37.7518 188.786 37.7843L187.921 38.223C187.792 38.288 187.69 38.2514 187.614 38.1133L187.478 37.9061C187.265 37.6218 187.011 37.4045 186.715 37.2541C186.42 37.1039 186.101 37.0368 185.76 37.0531C185.487 37.0693 185.231 37.1384 184.992 37.2603C184.753 37.3821 184.545 37.5466 184.367 37.7538C184.189 37.961 184.05 38.1986 183.952 38.4667C183.853 38.7348 183.804 39.0151 183.804 39.3076V41.0869C183.804 41.5662 183.931 42.005 184.185 42.403C184.439 42.8012 184.782 43.0774 185.214 43.2317ZM194.916 39.4539C194.977 39.4539 195.028 39.4315 195.07 39.3869C195.111 39.3422 195.132 39.2873 195.132 39.2223V35.9928C195.132 35.9279 195.153 35.873 195.195 35.8283C195.237 35.7836 195.288 35.7613 195.348 35.7613H196.349C196.41 35.7613 196.461 35.7836 196.503 35.8283C196.545 35.873 196.565 35.9279 196.565 35.9928V44.4504C196.565 44.5154 196.545 44.5703 196.503 44.615C196.461 44.6596 196.41 44.682 196.349 44.682H195.348C195.288 44.682 195.237 44.6596 195.195 44.615C195.153 44.5703 195.132 44.5154 195.132 44.4504V41.2209C195.132 41.156 195.111 41.1011 195.07 41.0564C195.028 41.0117 194.977 40.9894 194.916 40.9894H192.3C192.239 40.9894 192.188 41.0117 192.147 41.0564C192.105 41.1011 192.084 41.156 192.084 41.2209V44.4504C192.084 44.5154 192.063 44.5703 192.021 44.615C191.98 44.6596 191.929 44.682 191.868 44.682H190.867C190.806 44.682 190.755 44.6596 190.713 44.615C190.672 44.5703 190.651 44.5154 190.651 44.4504V35.9928C190.651 35.9279 190.672 35.873 190.713 35.8283C190.755 35.7836 190.806 35.7613 190.867 35.7613H191.868C191.929 35.7613 191.98 35.7836 192.021 35.8283C192.063 35.873 192.084 35.9279 192.084 35.9928V39.2223C192.084 39.2873 192.105 39.3422 192.147 39.3869C192.188 39.4315 192.239 39.4539 192.3 39.4539H194.916ZM199.511 35.7491C199.572 35.7491 199.623 35.7715 199.665 35.8161C199.706 35.8608 199.727 35.9157 199.727 35.9806V42.9149C199.727 42.9799 199.748 43.0347 199.79 43.0794C199.832 43.1241 199.883 43.1465 199.943 43.1465H203.697C203.757 43.1465 203.809 43.1688 203.85 43.2135C203.892 43.2582 203.913 43.313 203.913 43.378V44.4504C203.913 44.5154 203.892 44.5703 203.85 44.615C203.809 44.6596 203.757 44.682 203.697 44.682H198.51C198.366 44.682 198.294 44.6048 198.294 44.4504V35.9806C198.294 35.9157 198.315 35.8608 198.357 35.8161C198.398 35.7715 198.45 35.7491 198.51 35.7491H199.511ZM205.972 44.6698C205.828 44.6698 205.755 44.5926 205.755 44.4382V35.9806C205.755 35.9157 205.776 35.8608 205.818 35.8161C205.86 35.7715 205.911 35.7491 205.972 35.7491H206.973C207.033 35.7491 207.084 35.7715 207.126 35.8161C207.168 35.8608 207.189 35.9157 207.189 35.9806V44.4382C207.189 44.5926 207.117 44.6698 206.973 44.6698H205.972ZM214.036 39.2101C214.082 39.2101 214.104 39.2346 214.104 39.2832V40.6725C214.104 40.7212 214.082 40.7456 214.036 40.7456H209.43C209.384 40.7456 209.361 40.7213 209.361 40.6725V39.2832C209.361 39.2345 209.384 39.2101 209.43 39.2101H214.036ZM219.2 35.5175C219.67 35.5257 220.114 35.6293 220.531 35.8283C220.948 36.0273 221.312 36.2955 221.622 36.6306C221.933 36.9678 222.178 37.3618 222.356 37.8127C222.534 38.2616 222.623 38.743 222.623 39.2548V41.1519C222.623 41.6312 222.544 42.0821 222.385 42.5046C222.225 42.9251 222.009 43.3028 221.736 43.6359C221.66 43.7334 221.657 43.8309 221.725 43.9284L222.203 44.5966C222.241 44.6454 222.256 44.7023 222.248 44.7673C222.241 44.8322 222.214 44.8851 222.168 44.9257L221.372 45.5838C221.327 45.6244 221.274 45.6407 221.213 45.6326C221.152 45.6244 221.103 45.5919 221.065 45.535L220.508 44.7551C220.44 44.6657 220.356 44.6413 220.258 44.682C219.916 44.812 219.545 44.8769 219.143 44.8769C218.665 44.8769 218.214 44.7754 217.79 44.5723C217.365 44.3692 216.993 44.0929 216.675 43.7456C216.356 43.3963 216.106 42.9901 215.924 42.5269C215.742 42.0658 215.651 41.5784 215.651 41.0666V39.3401C215.651 38.8201 215.744 38.3246 215.93 37.8534C216.116 37.3842 216.37 36.9738 216.692 36.6245C217.014 36.2772 217.39 36.003 217.818 35.804C218.246 35.6049 218.707 35.5094 219.2 35.5175ZM219.905 41.7815C219.951 41.7409 220.004 41.7267 220.064 41.7389C220.125 41.7511 220.174 41.7815 220.212 41.8303L220.542 42.2812C220.587 42.3461 220.65 42.3766 220.73 42.3726C220.809 42.3685 220.868 42.3299 220.906 42.2568C221.095 41.9156 221.19 41.5459 221.19 41.1478V39.2467C221.19 38.9298 221.133 38.6353 221.02 38.3631C220.906 38.091 220.75 37.8554 220.553 37.6563C220.356 37.4573 220.127 37.3029 219.865 37.1932C219.604 37.0836 219.325 37.0368 219.029 37.0531C218.756 37.0693 218.502 37.1384 218.267 37.2603C218.032 37.3821 217.826 37.5467 217.647 37.7538C217.469 37.961 217.331 38.1987 217.232 38.4667C217.134 38.7348 217.084 39.0152 217.084 39.3076V41.1478C217.084 41.4484 217.137 41.7328 217.244 42.0009C217.35 42.269 217.496 42.5026 217.681 42.7016C217.867 42.9006 218.085 43.0571 218.335 43.1708C218.586 43.2845 218.851 43.3414 219.132 43.3414C219.169 43.3414 219.206 43.3414 219.24 43.3414C219.274 43.3414 219.31 43.3374 219.348 43.3292C219.378 43.3211 219.397 43.3049 219.405 43.2805C219.412 43.2561 219.408 43.2358 219.393 43.2195L219.075 42.7686C219.037 42.7199 219.022 42.663 219.029 42.5981C219.037 42.5331 219.067 42.4802 219.12 42.4396L219.905 41.7815ZM230.142 35.7491C230.286 35.7491 230.358 35.8263 230.358 35.9806V40.9285C230.358 40.9934 230.356 41.1336 230.352 41.3489C230.348 41.5642 230.318 41.812 230.261 42.0923C230.204 42.3725 230.113 42.6691 229.988 42.9819C229.863 43.2947 229.683 43.5811 229.448 43.8411C228.955 44.3935 228.314 44.6698 227.526 44.6698C226.669 44.6698 225.979 44.3773 225.456 43.7923C225.228 43.5323 225.052 43.248 224.927 42.9392C224.802 42.6306 224.711 42.338 224.654 42.0618C224.597 41.7856 224.566 41.5418 224.563 41.3306C224.559 41.1194 224.557 40.9812 224.557 40.9163V35.9806C224.557 35.9157 224.578 35.8608 224.62 35.8161C224.661 35.7715 224.712 35.7491 224.773 35.7491H225.785C225.846 35.7491 225.897 35.7715 225.939 35.8161C225.981 35.8608 226.001 35.9157 226.001 35.9806L225.99 40.9772C225.99 41.0584 225.994 41.1702 226.001 41.3124C226.009 41.4545 226.032 41.6109 226.07 41.7815C226.108 41.9521 226.161 42.1207 226.229 42.2873C226.297 42.4538 226.388 42.6021 226.502 42.7321C226.752 43.0002 227.093 43.1343 227.526 43.1343C227.897 43.1343 228.189 43.0164 228.401 42.7808C228.515 42.659 228.606 42.5107 228.674 42.336C228.743 42.1614 228.796 41.9866 228.834 41.812C228.871 41.6373 228.896 41.4748 228.908 41.3245C228.919 41.1742 228.925 41.0544 228.925 40.965V35.9806C228.925 35.9157 228.944 35.8608 228.981 35.8161C229.019 35.7715 229.069 35.7491 229.129 35.7491H230.142ZM233.486 35.7491C233.546 35.7491 233.597 35.7715 233.639 35.8161C233.681 35.8608 233.702 35.9157 233.702 35.9806V42.9149C233.702 42.9798 233.723 43.0347 233.764 43.0794C233.806 43.1241 233.857 43.1465 233.918 43.1465H237.671C237.732 43.1465 237.783 43.1688 237.825 43.2135C237.866 43.2581 237.887 43.313 237.887 43.378V44.4504C237.887 44.5154 237.866 44.5703 237.825 44.615C237.783 44.6596 237.732 44.682 237.671 44.682H232.485C232.341 44.682 232.269 44.6048 232.269 44.4504V35.9806C232.269 35.9157 232.289 35.8607 232.331 35.8161C232.373 35.7715 232.424 35.7491 232.485 35.7491H233.486ZM242.539 35.9197C242.577 35.8141 242.645 35.7613 242.744 35.7613H243.961C244.059 35.7613 244.128 35.8141 244.166 35.9197L246.964 44.3773C246.994 44.4585 246.986 44.5296 246.941 44.5906C246.895 44.6515 246.835 44.682 246.759 44.682H245.69C245.584 44.682 245.519 44.6332 245.496 44.5358L245.076 43.2927C245.038 43.187 244.973 43.1343 244.882 43.1343H241.834C241.735 43.1343 241.667 43.187 241.629 43.2927L241.22 44.5358C241.182 44.6332 241.114 44.682 241.015 44.682H239.946C239.87 44.682 239.809 44.6515 239.764 44.5906C239.719 44.5296 239.711 44.4585 239.741 44.3773L242.539 35.9197ZM242.289 41.294C242.266 41.3672 242.276 41.4363 242.317 41.5012C242.359 41.5662 242.418 41.5987 242.494 41.5987H244.211C244.287 41.5987 244.346 41.5662 244.387 41.5012C244.429 41.4363 244.439 41.3672 244.416 41.294L243.552 38.6861C243.514 38.5805 243.447 38.5277 243.352 38.5277C243.258 38.5277 243.191 38.5805 243.153 38.6861L242.289 41.294ZM251.104 35.8832C251.142 35.8019 251.202 35.7613 251.286 35.7613H252.457C252.541 35.7613 252.603 35.8 252.645 35.877C252.687 35.9542 252.685 36.0334 252.639 36.1147L250.228 40.5141C250.205 40.5547 250.194 40.5954 250.194 40.636V44.4504C250.194 44.5154 250.173 44.5703 250.131 44.615C250.09 44.6596 250.038 44.682 249.978 44.682H248.977C248.916 44.682 248.865 44.6596 248.823 44.615C248.782 44.5703 248.761 44.5154 248.761 44.4504V40.636C248.761 40.5954 248.749 40.5547 248.727 40.5141L246.315 36.1147C246.27 36.0334 246.268 35.9542 246.31 35.877C246.351 35.7999 246.414 35.7613 246.497 35.7613H247.658C247.733 35.7613 247.798 35.8019 247.851 35.8832L249.341 38.5886C249.371 38.6455 249.417 38.6739 249.477 38.6739C249.538 38.6739 249.583 38.6455 249.614 38.5886L251.104 35.8832Z" fill="white"/>
</svg>
