<svg width="264" height="60" viewBox="0 0 264 60" fill="none" xmlns="http://www.w3.org/2000/svg">
<path fill-rule="evenodd" clip-rule="evenodd" d="M29.4211 3.63007H36.4108L35.739 8.101H33.811V48.5854H52.1542V53.0564H29.4211V3.63007ZM67.9875 32.2452V8.101H66.2053L65.5335 3.63007H72.5231V32.2452H67.9875Z" fill="#0185FF"/>
<path fill-rule="evenodd" clip-rule="evenodd" d="M37.0418 9.81125H64.9027C65.3748 9.81125 65.8312 9.4197 65.7611 8.95285L64.9027 3.23976C64.8326 2.77291 64.5163 2.38136 64.0443 2.38136H53.3537C53.3537 1.06613 52.2875 0 50.9723 0C49.6571 0 48.5909 1.06613 48.5909 2.38136H37.9002C37.4282 2.38136 37.1119 2.77302 37.0418 3.23976L36.1834 8.95285C36.1133 9.41965 36.5697 9.81125 37.0418 9.81125ZM50.9723 0.950703C51.7624 0.950703 52.403 1.59124 52.403 2.38136C52.403 3.17149 51.7624 3.81203 50.9723 3.81203C50.1822 3.81203 49.5416 3.17149 49.5416 2.38136C49.5416 1.59124 50.1822 0.950703 50.9723 0.950703Z" fill="#0185FF"/>
<path fill-rule="evenodd" clip-rule="evenodd" d="M77.0478 60H57.0186C55.4448 60 54.1572 58.7124 54.1572 57.1387V37.1094C54.1572 35.5357 55.4448 34.2481 57.0186 34.2481H77.0478C77.151 34.2481 77.253 34.2538 77.3535 34.2646L73.5584 37.6817H59.3076C58.3634 37.6817 57.5908 38.4543 57.5908 39.3985V54.8496C57.5908 55.7939 58.3634 56.5664 59.3076 56.5664H74.7588C75.703 56.5664 76.4755 55.7939 76.4755 54.8496V47.8802L79.9091 44.7885V57.1387C79.9091 58.7124 78.6216 60 77.0478 60Z" fill="#0185FF"/>
<path fill-rule="evenodd" clip-rule="evenodd" d="M66.7222 46.5323L81.2221 33.4764V40.911L66.7221 53.9669L59.4722 47.439V40.0044L66.7222 46.5323Z" fill="#0185FF"/>
<path d="M42.0998 14.7843H37.5217V19.3624H42.0998V14.7843Z" fill="#0185FF"/>
<path d="M64.0438 14.7843H44.062V19.3624H64.0438V14.7843Z" fill="#0185FF"/>
<path d="M64.0438 21.6559H44.062V26.2341H64.0438V21.6559Z" fill="#0185FF"/>
<path d="M64.0438 28.5276H44.062V33.1057H64.0438V28.5276Z" fill="#0185FF"/>
<path d="M52.215 35.3993H44.0623V39.9774H52.215V35.3993Z" fill="#0185FF"/>
<path d="M42.0998 21.6559H37.5217V26.2341H42.0998V21.6559Z" fill="#0185FF"/>
<path d="M42.0998 28.5276H37.5217V33.1057H42.0998V28.5276Z" fill="#0185FF"/>
<path d="M42.0998 35.3993H37.5217V39.9774H42.0998V35.3993Z" fill="#0185FF"/>
<path fill-rule="evenodd" clip-rule="evenodd" d="M3.54201 30.2449C3.73023 29.4204 3.81675 29.413 3.8963 28.4364C6.52734 28.66 13.2531 31.5235 15.2314 31.6917C14.8956 32.2037 13.7221 34.2234 13.106 34.2234C9.03655 34.2234 5.84097 33.7502 3.54201 30.2449ZM1.0625 33.8618C1.0625 39.361 1.8651 40.4008 1.7586 46.8949C1.68982 51.0962 0.329716 50.1376 13.8145 50.1376C15.2269 50.1376 14.8772 49.113 14.8772 46.5207L25.858 46.8825V22.6494L16.3907 22.1891C11.9346 21.5744 10.3632 22.9354 12.4051 18.3194C12.8128 17.3979 13.412 15.5158 13.8503 14.7289C14.5584 13.4575 15.8698 13.5357 17.4522 13.3431C19.0229 13.1519 20.5966 12.9023 21.953 12.8751C25.3436 12.8073 25.858 13.6605 25.858 10.7139C22.2135 10.7139 18.1213 11.0566 15.216 11.7831C12.2779 12.5179 12.4355 12.7671 9.68126 18.4291C9.30391 19.2047 8.14857 21.9336 7.85036 22.3466C6.65868 23.9964 1.0625 22.9441 1.0625 33.8618Z" fill="#0185FF"/>
<path fill-rule="evenodd" clip-rule="evenodd" d="M0 20.4793C5.33562 21.7485 7.65827 25.2727 8.1063 19.2611C8.26831 17.0872 7.42588 17.6618 5.48086 17.4137C1.94787 16.9634 0 16.3341 0 20.4793Z" fill="#0185FF"/>
<path d="M89.8831 6.88271C89.9693 6.64293 90.1243 6.5231 90.3484 6.5231H93.1138C93.3377 6.5231 93.4929 6.64293 93.579 6.88271L99.9369 26.0779C100.006 26.2623 99.9886 26.4237 99.8852 26.5619C99.7818 26.7002 99.644 26.7694 99.4717 26.7694H97.0422C96.801 26.7694 96.6546 26.6588 96.6028 26.4375L95.6466 23.6162C95.5605 23.3766 95.414 23.2567 95.2073 23.2567H88.2807C88.0567 23.2567 87.9017 23.3766 87.8155 23.6162L86.8851 26.4375C86.7989 26.6588 86.6439 26.7694 86.4199 26.7694H83.9905C83.8182 26.7694 83.6803 26.7002 83.577 26.5619C83.4735 26.4237 83.4563 26.2623 83.5252 26.0779L89.8831 6.88271ZM89.3145 19.0802C89.2629 19.2461 89.2844 19.4029 89.3791 19.5504C89.4739 19.698 89.6075 19.7717 89.7797 19.7717H93.6823C93.8547 19.7717 93.9882 19.698 94.0829 19.5504C94.1777 19.4029 94.1993 19.2461 94.1476 19.0802L92.1834 13.1613C92.0972 12.9215 91.9464 12.8017 91.7311 12.8017C91.5157 12.8017 91.3649 12.9215 91.2788 13.1613L89.3145 19.0802ZM109.758 6.4954C110.792 6.4954 111.761 6.70285 112.666 7.1178C113.57 7.53269 114.358 8.09963 115.03 8.8188C115.702 9.53796 116.232 10.3815 116.62 11.3496C117.008 12.3176 117.201 13.3456 117.201 14.4335L117.227 18.8313C117.227 19.9377 117.029 20.9887 116.633 21.9844C116.237 22.9801 115.651 23.8652 114.875 24.6397C114.169 25.3404 113.363 25.8705 112.459 26.23C111.554 26.5896 110.611 26.7694 109.629 26.7694H104.253C103.926 26.7694 103.762 26.5942 103.762 26.2439V7.02097C103.762 6.87344 103.809 6.74903 103.904 6.64757C103.999 6.54616 104.115 6.4954 104.253 6.4954H109.758ZM112.679 22.0398C113.092 21.6156 113.406 21.127 113.622 20.5738C113.837 20.0207 113.945 19.4397 113.945 18.8313V14.4612C113.945 13.8527 113.833 13.2765 113.609 12.7325C113.385 12.1886 113.083 11.7138 112.704 11.3081C112.325 10.9024 111.882 10.5797 111.373 10.3401C110.865 10.1003 110.327 9.98044 109.758 9.98044H107.51C107.372 9.98044 107.255 10.0312 107.161 10.1326C107.066 10.234 107.018 10.3585 107.018 10.5059V22.7588C107.018 22.9063 107.066 23.0308 107.161 23.1323C107.255 23.2336 107.372 23.2844 107.51 23.2844H109.681C110.232 23.2844 110.77 23.1829 111.296 22.9801C111.821 22.7773 112.282 22.4638 112.679 22.0398ZM133.561 6.5231C133.699 6.5231 133.816 6.57844 133.91 6.68906C134.005 6.79968 134.052 6.92878 134.052 7.07631V18.2782C134.052 18.4256 134.048 18.7437 134.04 19.2324C134.031 19.721 133.962 20.288 133.833 20.9334C133.704 21.5787 133.497 22.2564 133.213 22.9663C132.928 23.6762 132.519 24.3261 131.985 24.9162C130.848 26.1701 129.392 26.7971 127.617 26.7971C125.98 26.7971 124.606 26.3223 123.495 25.368C122.383 24.4184 121.621 23.0585 121.207 21.2929C121.173 21.1454 121.19 21.0118 121.259 20.8919C121.328 20.772 121.431 20.6936 121.569 20.6568L123.818 20.1589C124.111 20.1036 124.3 20.2327 124.386 20.5461C124.541 21.1731 124.744 21.6663 124.994 22.0259C125.244 22.3855 125.519 22.6621 125.821 22.8556C126.122 23.0492 126.428 23.1737 126.738 23.229C127.048 23.2844 127.341 23.312 127.617 23.312C128.461 23.312 129.125 23.0539 129.607 22.5376C129.866 22.2425 130.072 21.8922 130.227 21.4958C130.382 21.0993 130.503 20.7029 130.589 20.3064C130.675 19.91 130.731 19.5412 130.757 19.1955C130.783 18.8544 130.796 18.5916 130.796 18.4071V7.07631C130.796 6.92878 130.843 6.79968 130.938 6.68906C131.033 6.57844 131.149 6.5231 131.287 6.5231H133.561ZM142.685 6.88271C142.771 6.64293 142.926 6.5231 143.15 6.5231H145.915C146.139 6.5231 146.294 6.64293 146.381 6.88271L152.739 26.0779C152.807 26.2623 152.79 26.4237 152.687 26.5619C152.583 26.7002 152.446 26.7694 152.273 26.7694H149.844C149.603 26.7694 149.456 26.6588 149.404 26.4375L148.448 23.6162C148.362 23.3766 148.216 23.2567 148.009 23.2567H141.082C140.858 23.2567 140.703 23.3766 140.617 23.6162L139.687 26.4375C139.601 26.6588 139.445 26.7694 139.222 26.7694H136.792C136.62 26.7694 136.482 26.7002 136.379 26.5619C136.275 26.4237 136.258 26.2623 136.327 26.0779L142.685 6.88271ZM142.116 19.0802C142.064 19.2461 142.086 19.4029 142.181 19.5504C142.276 19.698 142.409 19.7717 142.581 19.7717H146.484C146.656 19.7717 146.79 19.698 146.885 19.5504C146.979 19.4029 147.001 19.2461 146.949 19.0802L144.985 13.1613C144.899 12.9215 144.748 12.8017 144.533 12.8017C144.317 12.8017 144.167 12.9215 144.08 13.1613L142.116 19.0802ZM162.198 14.7931C163.145 14.7378 163.977 14.7839 164.692 14.9314C165.407 15.0789 166.014 15.2909 166.514 15.5676C167.014 15.8441 167.427 16.1576 167.755 16.508C168.082 16.8583 168.349 17.2087 168.556 17.559C168.849 18.0937 169.051 18.6423 169.163 19.2047C169.275 19.7671 169.318 20.3249 169.292 20.8781C169.266 21.4312 169.18 21.9567 169.034 22.4546C168.887 22.9524 168.711 23.395 168.504 23.7823C167.212 26.0687 165.101 27.212 162.172 27.212C161.018 27.212 160.031 27.0275 159.213 26.6634C158.394 26.2992 157.714 25.8382 157.171 25.2897C156.628 24.7411 156.21 24.151 155.918 23.5148C155.625 22.8833 155.426 22.2979 155.323 21.7631C155.289 21.6156 155.314 21.4773 155.401 21.3482C155.487 21.2192 155.607 21.1454 155.762 21.127L156.848 21.0163L158.037 20.8781C158.157 20.8596 158.265 20.8827 158.36 20.9472C158.455 21.0118 158.519 21.1085 158.554 21.2376C158.605 21.4589 158.704 21.7124 158.851 21.9982C158.997 22.284 159.204 22.5561 159.471 22.8142C159.738 23.0724 160.091 23.289 160.531 23.4641C160.97 23.6393 161.517 23.7269 162.172 23.7269C162.741 23.7269 163.219 23.6762 163.606 23.5748C163.994 23.4734 164.326 23.3443 164.601 23.1829C164.877 23.0262 165.097 22.8464 165.26 22.6436C165.424 22.4408 165.566 22.2241 165.687 22.0029C165.756 21.8922 165.82 21.7309 165.881 21.5188C165.941 21.3022 165.984 21.0763 166.01 20.8366C166.036 20.5969 166.032 20.3479 165.997 20.099C165.963 19.8501 165.885 19.6103 165.764 19.3891C165.609 19.1309 165.403 18.9281 165.144 18.7806C164.886 18.6284 164.601 18.5132 164.291 18.4303C163.981 18.3472 163.658 18.2966 163.322 18.2782C162.986 18.2597 162.663 18.2597 162.353 18.2782C161.388 18.3334 160.548 18.2873 159.833 18.1398C159.118 17.9923 158.506 17.7803 157.998 17.5037C157.49 17.2271 157.072 16.909 156.745 16.5495C156.417 16.1899 156.159 15.8349 155.969 15.4845C155.676 14.9682 155.474 14.4289 155.362 13.8665C155.25 13.3041 155.207 12.7464 155.233 12.1932C155.258 11.64 155.34 11.1191 155.478 10.6305C155.616 10.1418 155.788 9.70386 155.995 9.31667C157.253 7.04861 159.363 5.91461 162.327 5.91461C163.481 5.91461 164.468 6.09905 165.286 6.46776C166.105 6.83653 166.785 7.29291 167.328 7.83691C167.871 8.38084 168.289 8.97091 168.582 9.60704C168.874 10.2432 169.073 10.8286 169.176 11.3634C169.21 11.5109 169.185 11.6492 169.098 11.7783C169.012 11.9074 168.892 11.9811 168.737 11.9996L166.462 12.2485C166.187 12.2854 166.006 12.1563 165.92 11.8612C165.868 11.6584 165.773 11.4141 165.635 11.1283C165.497 10.8425 165.295 10.5705 165.028 10.3124C164.761 10.0542 164.408 9.83755 163.968 9.66238C163.529 9.48721 162.982 9.39965 162.327 9.39965C161.758 9.39965 161.276 9.45035 160.88 9.55176C160.483 9.65316 160.152 9.78226 159.885 9.93901C159.618 10.0957 159.402 10.2754 159.239 10.4783C159.075 10.6812 158.933 10.8932 158.812 11.1144C158.743 11.2251 158.679 11.3818 158.618 11.5847C158.558 11.7875 158.519 12.0088 158.502 12.2485C158.485 12.4882 158.493 12.7325 158.528 12.9814C158.562 13.2304 158.64 13.4655 158.76 13.6868C158.915 13.9449 159.122 14.1523 159.381 14.3091C159.639 14.4658 159.923 14.5857 160.234 14.6687C160.544 14.7516 160.871 14.7977 161.216 14.8069C161.56 14.8161 161.888 14.8116 162.198 14.7931ZM173.466 10.0081C173.328 10.0081 173.212 9.95744 173.117 9.85597C173.023 9.75457 172.975 9.63016 172.975 9.48263V7.04861C172.975 6.90114 173.023 6.77661 173.117 6.67527C173.212 6.57386 173.328 6.5231 173.466 6.5231H187.474C187.612 6.5231 187.728 6.57386 187.823 6.67527C187.918 6.77661 187.965 6.90114 187.965 7.04861V9.48263C187.965 9.83291 187.802 10.0081 187.474 10.0081H182.59C182.452 10.0081 182.336 10.0634 182.241 10.1741C182.146 10.2847 182.099 10.4138 182.099 10.5613V26.2439C182.099 26.3914 182.051 26.5159 181.956 26.6173C181.862 26.7187 181.75 26.7694 181.612 26.7694H179.355C179.217 26.7694 179.101 26.7187 178.997 26.6173C178.894 26.5159 178.842 26.3914 178.842 26.2439V10.5613C178.842 10.4138 178.795 10.2847 178.7 10.1741C178.605 10.0634 178.489 10.0081 178.351 10.0081H173.466ZM192.798 26.7694C192.471 26.7694 192.307 26.5942 192.307 26.2439V7.02097C192.307 6.87344 192.355 6.74903 192.45 6.64757C192.544 6.54616 192.661 6.4954 192.798 6.4954H204.584C204.722 6.4954 204.838 6.54616 204.933 6.64757C205.028 6.74903 205.075 6.87344 205.075 7.02097V9.45493C205.075 9.60246 205.028 9.72693 204.933 9.82833C204.838 9.92974 204.722 9.98044 204.584 9.98044H196.055C195.917 9.98044 195.801 10.0312 195.706 10.1326C195.611 10.234 195.564 10.3585 195.564 10.5106V14.3736C195.564 14.5257 195.611 14.6502 195.706 14.7516C195.801 14.853 195.917 14.9037 196.055 14.9037H201.638C201.775 14.9037 201.892 14.9544 201.986 15.0559C202.081 15.1573 202.129 15.2771 202.129 15.4246V17.8678C202.129 18.0154 202.081 18.1352 201.986 18.2366C201.892 18.3381 201.775 18.3887 201.638 18.3887H196.055C195.917 18.3887 195.801 18.4395 195.706 18.5408C195.611 18.6423 195.564 18.7668 195.564 18.9143V22.7588C195.564 22.9063 195.611 23.0308 195.706 23.1323C195.801 23.2336 195.917 23.2844 196.055 23.2844H204.584C204.722 23.2844 204.838 23.335 204.933 23.4365C205.028 23.5379 205.075 23.6624 205.075 23.8098V26.2439C205.075 26.3914 205.028 26.5159 204.933 26.6173C204.838 26.7187 204.722 26.7694 204.584 26.7694H192.798ZM212.648 19.2461C212.51 19.2461 212.393 19.2969 212.299 19.3983C212.204 19.4997 212.156 19.6242 212.156 19.7717V26.2715C212.156 26.419 212.109 26.5389 212.014 26.6311C211.92 26.7233 211.803 26.7694 211.665 26.7694H209.391C209.253 26.7694 209.137 26.7233 209.042 26.6311C208.947 26.5389 208.9 26.419 208.9 26.2715V7.04861C208.9 6.90114 208.947 6.77661 209.042 6.67527C209.137 6.57386 209.253 6.5231 209.391 6.5231H215.491C215.611 6.5231 215.887 6.53232 216.318 6.55074C216.748 6.56917 217.244 6.64293 217.804 6.77204C218.364 6.90114 218.954 7.10859 219.574 7.39437C220.194 7.68016 220.763 8.09042 221.28 8.6252C222.383 9.74999 222.934 11.2067 222.934 12.9953C222.934 13.5854 222.882 14.1108 222.779 14.5718C222.675 15.0328 222.542 15.4523 222.378 15.8303C222.215 16.2083 222.029 16.5356 221.823 16.8122C221.616 17.0888 221.418 17.3193 221.228 17.5037C220.97 17.7619 220.698 17.9785 220.414 18.1536C220.13 18.3288 219.841 18.4902 219.548 18.6377C219.41 18.693 219.316 18.7898 219.264 18.9281C219.212 19.0664 219.229 19.2093 219.316 19.3568L222.727 25.995C222.813 26.1793 222.809 26.3545 222.714 26.5204C222.619 26.6864 222.477 26.7694 222.288 26.7694H219.677C219.488 26.7694 219.341 26.6864 219.238 26.5204L215.671 19.5228C215.585 19.3568 215.439 19.2738 215.232 19.2738L212.648 19.2461ZM212.156 15.2357C212.156 15.3832 212.204 15.5076 212.299 15.6091C212.393 15.7105 212.51 15.7612 212.648 15.7612L216.085 15.7888C216.206 15.7888 216.391 15.7842 216.641 15.775C216.89 15.7657 217.158 15.7335 217.442 15.6782C217.726 15.6229 218.01 15.5353 218.295 15.4155C218.579 15.2956 218.825 15.125 219.031 14.9037C219.462 14.4981 219.677 13.8619 219.677 12.9953C219.677 12.2208 219.462 11.6031 219.031 11.1421C218.79 10.9024 218.501 10.7042 218.165 10.5475C217.829 10.3907 217.493 10.2754 217.158 10.2017C216.821 10.128 216.511 10.0773 216.227 10.0496C215.943 10.0219 215.723 10.0081 215.568 10.0081L215.516 10.0358H212.648C212.51 10.0358 212.393 10.0818 212.299 10.1741C212.204 10.2663 212.156 10.3861 212.156 10.5336V15.2357ZM227.302 28.0417C227.164 28.0417 227.048 27.991 226.953 27.8896C226.858 27.7882 226.811 27.6637 226.811 27.5162V24.9715C226.811 24.824 226.858 24.6996 226.953 24.5982C227.048 24.4967 227.164 24.4461 227.302 24.4461H229.576C229.714 24.4461 229.83 24.4967 229.925 24.5982C230.02 24.6996 230.067 24.824 230.067 24.9715V27.5162C230.067 27.6637 230.02 27.7882 229.925 27.8896C229.83 27.991 229.714 28.0417 229.576 28.0417H227.302ZM245.91 6.4954C246.238 6.4954 246.401 6.67063 246.401 7.02097V18.2505C246.401 18.398 246.397 18.7161 246.388 19.2047C246.38 19.6934 246.311 20.2557 246.182 20.8919C246.052 21.5281 245.846 22.201 245.561 22.911C245.277 23.6209 244.868 24.2709 244.334 24.8609C243.214 26.1148 241.758 26.7417 239.966 26.7417C238.019 26.7417 236.451 26.0779 235.262 24.7503C234.745 24.1602 234.345 23.5148 234.06 22.8142C233.776 22.1135 233.569 21.4497 233.44 20.8227C233.311 20.1958 233.242 19.6426 233.233 19.1632C233.225 18.6838 233.22 18.3703 233.22 18.2228V7.02097C233.22 6.87344 233.268 6.74903 233.362 6.64757C233.457 6.54616 233.574 6.4954 233.711 6.4954H236.012C236.149 6.4954 236.266 6.54616 236.361 6.64757C236.455 6.74903 236.503 6.87344 236.503 7.02097L236.477 18.3611C236.477 18.5455 236.485 18.799 236.503 19.1217C236.52 19.4444 236.572 19.7994 236.658 20.1866C236.744 20.5738 236.864 20.9564 237.02 21.3345C237.175 21.7124 237.381 22.0489 237.64 22.344C238.208 22.9524 238.984 23.2567 239.966 23.2567C240.81 23.2567 241.473 22.9893 241.956 22.4546C242.214 22.178 242.421 21.8415 242.576 21.445C242.731 21.0486 242.852 20.6522 242.938 20.2557C243.024 19.8593 243.08 19.4905 243.106 19.1494C243.132 18.8083 243.145 18.5363 243.145 18.3334V7.02097C243.145 6.87344 243.188 6.74903 243.274 6.64757C243.36 6.54616 243.472 6.4954 243.61 6.4954H245.91ZM255.292 22.427C255.171 22.6114 255.159 22.8003 255.253 22.994C255.348 23.1876 255.499 23.2844 255.706 23.2844H262.942C263.08 23.2844 263.201 23.335 263.304 23.4365C263.407 23.5379 263.459 23.6624 263.459 23.8098V26.2439C263.459 26.3914 263.407 26.5159 263.304 26.6173C263.201 26.7187 263.08 26.7694 262.942 26.7694H251.26C251.122 26.7694 251.002 26.7187 250.898 26.6173C250.795 26.5159 250.743 26.3914 250.743 26.2439V23.4503C250.743 23.3212 250.778 23.2198 250.847 23.1461L258.884 10.8379C259.005 10.6535 259.018 10.4645 258.923 10.2709C258.829 10.0773 258.678 9.98044 258.471 9.98044H251.26C251.122 9.98044 251.002 9.92974 250.898 9.82833C250.795 9.72693 250.743 9.60246 250.743 9.45493V7.04861C250.743 6.90114 250.795 6.77204 250.898 6.66142C251.002 6.55074 251.122 6.4954 251.26 6.4954H262.942C263.08 6.4954 263.201 6.55074 263.304 6.66142C263.407 6.77204 263.459 6.90114 263.459 7.04861V9.81448C263.459 9.90668 263.425 10.0081 263.356 10.1188L255.292 22.427Z" fill="#1B3B76"/>
<path d="M94.4842 37.2965C94.4235 37.2965 94.3723 37.2741 94.3306 37.2294C94.2889 37.1848 94.2681 37.1299 94.2681 37.0649V35.9924C94.2681 35.9275 94.2889 35.8726 94.3306 35.8279C94.3723 35.7833 94.4235 35.7609 94.4842 35.7609H100.649C100.71 35.7609 100.761 35.7833 100.802 35.8279C100.844 35.8726 100.865 35.9275 100.865 35.9924V37.0649C100.865 37.2193 100.793 37.2965 100.649 37.2965H98.4992C98.4385 37.2965 98.3873 37.3208 98.3456 37.3695C98.3039 37.4183 98.283 37.4752 98.283 37.5402V44.4501C98.283 44.5151 98.2622 44.5699 98.2205 44.6146C98.1788 44.6593 98.1295 44.6816 98.0689 44.6816H97.0755C97.0149 44.6816 96.9637 44.6593 96.9182 44.6146C96.8727 44.5699 96.85 44.5151 96.85 44.4501V37.5402C96.85 37.4752 96.8291 37.4183 96.7874 37.3695C96.7457 37.3208 96.6945 37.2965 96.6339 37.2965H94.4842ZM102.992 44.6816C102.848 44.6816 102.776 44.6044 102.776 44.4501V35.9803C102.776 35.9153 102.797 35.8604 102.838 35.8158C102.88 35.7711 102.931 35.7487 102.992 35.7487H108.178C108.239 35.7487 108.29 35.7711 108.332 35.8158C108.374 35.8604 108.394 35.9153 108.394 35.9803V37.0527C108.394 37.1177 108.374 37.1726 108.332 37.2172C108.29 37.2619 108.239 37.2843 108.178 37.2843H104.425C104.364 37.2843 104.313 37.3066 104.271 37.3513C104.23 37.396 104.209 37.4508 104.209 37.5178V39.2199C104.209 39.2869 104.23 39.3418 104.271 39.3865C104.313 39.4311 104.364 39.4535 104.425 39.4535H106.882C106.942 39.4535 106.994 39.4758 107.035 39.5205C107.077 39.5652 107.098 39.618 107.098 39.683V40.7595C107.098 40.8245 107.077 40.8773 107.035 40.922C106.994 40.9667 106.942 40.989 106.882 40.989H104.425C104.364 40.989 104.313 41.0114 104.271 41.0561C104.23 41.1007 104.209 41.1556 104.209 41.2205V42.9145C104.209 42.9795 104.23 43.0343 104.271 43.079C104.313 43.1237 104.364 43.1461 104.425 43.1461H108.178C108.239 43.1461 108.29 43.1684 108.332 43.2131C108.374 43.2578 108.394 43.3126 108.394 43.3776V44.4501C108.394 44.5151 108.374 44.5699 108.332 44.6146C108.29 44.6593 108.239 44.6816 108.178 44.6816H102.992ZM112.08 42.7683C112.027 42.8495 112.021 42.9328 112.063 43.0181C112.104 43.1034 112.171 43.1461 112.262 43.1461H115.446C115.507 43.1461 115.56 43.1684 115.606 43.2131C115.651 43.2578 115.674 43.3126 115.674 43.3776V44.4501C115.674 44.5151 115.651 44.5699 115.606 44.6146C115.56 44.6593 115.507 44.6816 115.446 44.6816H110.305C110.245 44.6816 110.192 44.6593 110.146 44.6146C110.101 44.5699 110.078 44.5151 110.078 44.4501V43.2192C110.078 43.1623 110.093 43.1177 110.123 43.0852L113.661 37.662C113.714 37.5808 113.719 37.4975 113.678 37.4122C113.636 37.3269 113.57 37.2843 113.479 37.2843H110.305C110.245 37.2843 110.192 37.2619 110.146 37.2172C110.101 37.1726 110.078 37.1177 110.078 37.0527V35.9924C110.078 35.9275 110.101 35.8706 110.146 35.8219C110.192 35.7731 110.245 35.7487 110.305 35.7487H115.446C115.507 35.7487 115.56 35.7731 115.606 35.8219C115.651 35.8706 115.674 35.9275 115.674 35.9924V37.2111C115.674 37.2518 115.659 37.2965 115.628 37.3452L112.08 42.7683ZM123.226 44.3038C123.272 44.3769 123.274 44.4541 123.232 44.5354C123.19 44.6166 123.128 44.6572 123.044 44.6572H121.85C121.759 44.6572 121.698 44.6206 121.668 44.5475L119.655 41.1962C119.624 41.1556 119.588 41.1332 119.547 41.1291C119.505 41.1251 119.469 41.1434 119.439 41.184L118.79 42.0614C118.76 42.1102 118.745 42.1549 118.745 42.1955V44.4257C118.745 44.4907 118.724 44.5455 118.682 44.5902C118.641 44.6349 118.589 44.6572 118.529 44.6572H117.528C117.467 44.6572 117.416 44.6349 117.374 44.5902C117.333 44.5455 117.312 44.4907 117.312 44.4257V35.9681C117.312 35.9031 117.333 35.8482 117.374 35.8036C117.416 35.7589 117.467 35.7365 117.528 35.7365H118.529C118.589 35.7365 118.641 35.7589 118.682 35.8036C118.724 35.8482 118.745 35.9031 118.745 35.9681V39.3072C118.745 39.3641 118.768 39.4007 118.813 39.4169C118.859 39.4332 118.896 39.421 118.927 39.3804L121.554 35.8219C121.592 35.7568 121.645 35.7243 121.713 35.7243H122.999C123.09 35.7243 123.156 35.769 123.198 35.8584C123.239 35.9478 123.23 36.029 123.169 36.1021L120.587 39.6119C120.527 39.7013 120.523 39.7907 120.576 39.88L123.226 44.3038ZM127.719 35.505C128.197 35.505 128.648 35.6025 129.072 35.7975C129.497 35.9924 129.869 36.2585 130.187 36.5957C130.505 36.9328 130.756 37.329 130.938 37.7839C131.12 38.2389 131.211 38.7223 131.211 39.2341V41.1475C131.211 41.6593 131.12 42.1427 130.938 42.5977C130.756 43.0526 130.505 43.4487 130.187 43.7859C129.869 44.1231 129.497 44.3891 129.072 44.5841C128.648 44.7791 128.197 44.8766 127.719 44.8766C127.241 44.8766 126.79 44.7791 126.365 44.5841C125.941 44.3891 125.571 44.1231 125.256 43.7859C124.942 43.4487 124.693 43.0526 124.511 42.5977C124.329 42.1427 124.238 41.6593 124.238 41.1475V39.2341C124.238 38.7223 124.329 38.2389 124.511 37.7839C124.693 37.329 124.942 36.9328 125.256 36.5957C125.571 36.2585 125.941 35.9924 126.365 35.7975C126.79 35.6025 127.241 35.505 127.719 35.505ZM129.778 39.2341C129.778 38.9335 129.724 38.6492 129.618 38.3811C129.512 38.113 129.364 37.8794 129.175 37.6803C128.985 37.4812 128.765 37.3249 128.515 37.2111C128.265 37.0974 127.999 37.0406 127.719 37.0406C127.438 37.0406 127.173 37.0974 126.923 37.2111C126.672 37.3249 126.454 37.4812 126.269 37.6803C126.083 37.8794 125.937 38.113 125.831 38.3811C125.725 38.6492 125.671 38.9335 125.671 39.2341V41.1475C125.671 41.4481 125.725 41.7324 125.831 42.0005C125.937 42.2686 126.083 42.5022 126.269 42.7013C126.454 42.9003 126.672 43.0567 126.923 43.1704C127.173 43.2842 127.438 43.3411 127.719 43.3411C127.999 43.3411 128.265 43.2842 128.515 43.1704C128.765 43.0567 128.985 42.9003 129.175 42.7013C129.364 42.5022 129.512 42.2686 129.618 42.0005C129.724 41.7324 129.778 41.4481 129.778 41.1475V39.2341ZM134.611 41.3668C134.551 41.3668 134.5 41.3891 134.458 41.4338C134.416 41.4785 134.395 41.5333 134.395 41.5983V44.4622C134.395 44.5273 134.374 44.58 134.333 44.6207C134.291 44.6613 134.24 44.6816 134.179 44.6816H133.178C133.118 44.6816 133.066 44.6613 133.025 44.6207C132.983 44.58 132.962 44.5273 132.962 44.4622V35.9924C132.962 35.9275 132.983 35.8726 133.025 35.8279C133.066 35.7833 133.118 35.7609 133.178 35.7609H135.863C135.916 35.7609 136.037 35.765 136.227 35.7731C136.416 35.7812 136.634 35.8137 136.881 35.8706C137.127 35.9275 137.387 36.0189 137.66 36.1448C137.933 36.2707 138.183 36.4515 138.41 36.6871C138.896 37.1827 139.138 37.8245 139.138 38.6126C139.138 38.8726 139.116 39.1041 139.07 39.3072C139.025 39.5104 138.966 39.6952 138.894 39.8617C138.822 40.0283 138.74 40.1725 138.649 40.2944C138.558 40.4162 138.471 40.5178 138.388 40.5991C138.274 40.7128 138.154 40.8082 138.029 40.8854C137.904 40.9626 137.777 41.0337 137.648 41.0987C137.588 41.1231 137.546 41.1657 137.523 41.2267C137.5 41.2876 137.508 41.3506 137.546 41.4156L139.047 44.3404C139.085 44.4216 139.083 44.4988 139.042 44.5719C139 44.645 138.937 44.6816 138.854 44.6816H137.705C137.622 44.6816 137.557 44.645 137.512 44.5719L135.942 41.4887C135.904 41.4156 135.84 41.379 135.749 41.379L134.611 41.3668ZM134.395 39.5997C134.395 39.6647 134.416 39.7195 134.458 39.7642C134.5 39.8089 134.551 39.8313 134.611 39.8313L136.124 39.8434C136.177 39.8434 136.259 39.8414 136.369 39.8374C136.479 39.8333 136.596 39.8191 136.721 39.7947C136.846 39.7704 136.972 39.7317 137.097 39.679C137.222 39.6261 137.33 39.551 137.421 39.4535C137.61 39.2748 137.705 38.9945 137.705 38.6126C137.705 38.2714 137.61 37.9992 137.421 37.7961C137.315 37.6905 137.188 37.6031 137.04 37.5341C136.892 37.465 136.744 37.4142 136.596 37.3817C136.448 37.3492 136.312 37.3269 136.187 37.3147C136.062 37.3025 135.965 37.2965 135.897 37.2965L135.874 37.3087H134.611C134.551 37.3087 134.5 37.329 134.458 37.3695C134.416 37.4102 134.395 37.463 134.395 37.528V39.5997ZM145.519 39.2098C145.565 39.2098 145.587 39.2342 145.587 39.2829V40.6721C145.587 40.7209 145.565 40.7453 145.519 40.7453H140.913C140.867 40.7453 140.844 40.7209 140.844 40.6721V39.2829C140.844 39.2342 140.867 39.2098 140.913 39.2098H145.519ZM147.35 44.6694C147.206 44.6694 147.134 44.5922 147.134 44.4379V35.9803C147.134 35.9153 147.155 35.8604 147.197 35.8158C147.238 35.7711 147.29 35.7487 147.35 35.7487H148.351C148.412 35.7487 148.463 35.7711 148.505 35.8158C148.546 35.8604 148.567 35.9153 148.567 35.9803V44.4379C148.567 44.5922 148.495 44.6694 148.351 44.6694H147.35ZM153.538 39.4047C153.955 39.3804 154.321 39.4007 154.635 39.4657C154.95 39.5307 155.217 39.6241 155.437 39.746C155.657 39.8678 155.839 40.006 155.983 40.1603C156.127 40.3147 156.245 40.469 156.336 40.6234C156.465 40.859 156.554 41.1007 156.603 41.3486C156.652 41.5963 156.671 41.8421 156.66 42.0858C156.649 42.3295 156.611 42.5611 156.546 42.7805C156.482 42.9998 156.404 43.1948 156.313 43.3654C155.744 44.3729 154.815 44.8766 153.526 44.8766C153.018 44.8766 152.584 44.7954 152.224 44.6349C151.864 44.4744 151.564 44.2713 151.325 44.0296C151.087 43.7879 150.903 43.5279 150.774 43.2476C150.645 42.9694 150.558 42.7114 150.512 42.4758C150.497 42.4108 150.508 42.3498 150.546 42.293C150.584 42.2361 150.637 42.2036 150.706 42.1955L151.183 42.1467L151.707 42.0858C151.76 42.0777 151.807 42.0879 151.849 42.1163C151.89 42.1447 151.919 42.1874 151.934 42.2443C151.957 42.3417 152 42.4535 152.065 42.5794C152.129 42.7053 152.22 42.8252 152.338 42.9389C152.455 43.0526 152.611 43.1481 152.804 43.2253C152.997 43.3024 153.238 43.3411 153.526 43.3411C153.777 43.3411 153.987 43.3187 154.158 43.2741C154.328 43.2294 154.474 43.1725 154.596 43.1014C154.717 43.0323 154.814 42.9531 154.886 42.8637C154.958 42.7743 155.02 42.6789 155.073 42.5814C155.104 42.5327 155.132 42.4616 155.159 42.3682C155.185 42.2727 155.204 42.1732 155.215 42.0675C155.227 41.9619 155.225 41.8523 155.21 41.7426C155.195 41.6329 155.16 41.5273 155.107 41.4298C155.039 41.316 154.948 41.2267 154.834 41.1616C154.721 41.0946 154.596 41.0439 154.459 41.0073C154.323 40.9707 154.18 40.9484 154.033 40.9403C153.885 40.9322 153.742 40.9322 153.606 40.9403C153.181 40.9646 152.812 40.9443 152.497 40.8794C152.182 40.8143 151.913 40.7209 151.69 40.5991C151.466 40.4772 151.282 40.337 151.138 40.1786C150.994 40.0202 150.88 39.8638 150.797 39.7094C150.668 39.4819 150.579 39.2443 150.529 38.9965C150.48 38.7487 150.461 38.5029 150.472 38.2592C150.484 38.0155 150.52 37.7859 150.581 37.5706C150.641 37.3553 150.717 37.1624 150.808 36.9918C151.362 35.9924 152.29 35.4928 153.595 35.4928C154.103 35.4928 154.537 35.5741 154.897 35.7365C155.257 35.899 155.557 36.1001 155.795 36.3398C156.034 36.5795 156.218 36.8395 156.347 37.1198C156.476 37.4 156.563 37.658 156.609 37.8936C156.624 37.9586 156.612 38.0195 156.575 38.0764C156.537 38.1333 156.484 38.1658 156.415 38.1739L155.414 38.2836C155.293 38.2998 155.214 38.2429 155.176 38.113C155.153 38.0236 155.111 37.9159 155.05 37.79C154.99 37.6641 154.901 37.5443 154.783 37.4305C154.666 37.3168 154.51 37.2213 154.317 37.1441C154.123 37.0669 153.883 37.0284 153.595 37.0284C153.344 37.0284 153.132 37.0507 152.958 37.0954C152.783 37.1401 152.637 37.1969 152.52 37.266C152.402 37.335 152.307 37.4142 152.235 37.5036C152.163 37.593 152.101 37.6864 152.048 37.7839C152.017 37.8327 151.989 37.9017 151.962 37.9911C151.936 38.0805 151.919 38.1779 151.911 38.2836C151.904 38.3892 151.907 38.4968 151.923 38.6065C151.938 38.7162 151.972 38.8198 152.025 38.9173C152.093 39.031 152.184 39.1224 152.298 39.1915C152.412 39.2605 152.537 39.3133 152.673 39.3499C152.81 39.3865 152.954 39.4068 153.106 39.4109C153.257 39.4149 153.401 39.4129 153.538 39.4047ZM162.546 39.4535C162.607 39.4535 162.658 39.4311 162.699 39.3865C162.741 39.3418 162.762 39.2869 162.762 39.222V35.9924C162.762 35.9275 162.783 35.8726 162.825 35.8279C162.866 35.7833 162.917 35.7609 162.978 35.7609H163.979C164.04 35.7609 164.091 35.7833 164.133 35.8279C164.174 35.8726 164.195 35.9275 164.195 35.9924V44.4501C164.195 44.5151 164.174 44.5699 164.133 44.6146C164.091 44.6593 164.04 44.6816 163.979 44.6816H162.978C162.917 44.6816 162.866 44.6593 162.825 44.6146C162.783 44.5699 162.762 44.5151 162.762 44.4501V41.2205C162.762 41.1556 162.741 41.1007 162.699 41.0561C162.658 41.0114 162.607 40.989 162.546 40.989H159.93C159.869 40.989 159.818 41.0114 159.776 41.0561C159.735 41.1007 159.714 41.1556 159.714 41.2205V44.4501C159.714 44.5151 159.693 44.5699 159.651 44.6146C159.61 44.6593 159.558 44.6816 159.498 44.6816H158.497C158.436 44.6816 158.385 44.6593 158.343 44.6146C158.302 44.5699 158.281 44.5151 158.281 44.4501V35.9924C158.281 35.9275 158.302 35.8726 158.343 35.8279C158.385 35.7833 158.436 35.7609 158.497 35.7609H159.498C159.558 35.7609 159.61 35.7833 159.651 35.8279C159.693 35.8726 159.714 35.9275 159.714 35.9924V39.222C159.714 39.2869 159.735 39.3418 159.776 39.3865C159.818 39.4311 159.869 39.4535 159.93 39.4535H162.546ZM169.404 35.505C169.882 35.505 170.333 35.6025 170.758 35.7975C171.183 35.9924 171.554 36.2585 171.873 36.5957C172.191 36.9328 172.441 37.329 172.623 37.7839C172.805 38.2389 172.896 38.7223 172.896 39.2341V41.1475C172.896 41.6593 172.805 42.1427 172.623 42.5977C172.441 43.0526 172.191 43.4487 171.873 43.7859C171.554 44.1231 171.183 44.3891 170.758 44.5841C170.333 44.7791 169.882 44.8766 169.404 44.8766C168.927 44.8766 168.476 44.7791 168.051 44.5841C167.626 44.3891 167.257 44.1231 166.942 43.7859C166.627 43.4487 166.379 43.0526 166.197 42.5977C166.015 42.1427 165.924 41.6593 165.924 41.1475V39.2341C165.924 38.7223 166.015 38.2389 166.197 37.7839C166.379 37.329 166.627 36.9328 166.942 36.5957C167.257 36.2585 167.626 35.9924 168.051 35.7975C168.476 35.6025 168.927 35.505 169.404 35.505ZM171.463 39.2341C171.463 38.9335 171.41 38.6492 171.304 38.3811C171.198 38.113 171.05 37.8794 170.86 37.6803C170.671 37.4812 170.451 37.3249 170.201 37.2111C169.95 37.0974 169.685 37.0406 169.404 37.0406C169.124 37.0406 168.858 37.0974 168.608 37.2111C168.358 37.3249 168.14 37.4812 167.954 37.6803C167.768 37.8794 167.622 38.113 167.516 38.3811C167.41 38.6492 167.357 38.9335 167.357 39.2341V41.1475C167.357 41.4481 167.41 41.7324 167.516 42.0005C167.622 42.2686 167.768 42.5022 167.954 42.7013C168.14 42.9003 168.358 43.0567 168.608 43.1704C168.858 43.2842 169.124 43.3411 169.404 43.3411C169.685 43.3411 169.95 43.2842 170.201 43.1704C170.451 43.0567 170.671 42.9003 170.86 42.7013C171.05 42.5022 171.198 42.2686 171.304 42.0005C171.41 41.7324 171.463 41.4481 171.463 41.1475V39.2341ZM180.38 35.7609C180.441 35.7609 180.492 35.7833 180.534 35.8279C180.576 35.8726 180.596 35.9275 180.596 35.9924V44.4501C180.596 44.6044 180.524 44.6816 180.38 44.6816H179.186C179.095 44.6816 179.034 44.641 179.004 44.5597L178.287 43.1583L176.252 39.1366C176.229 39.096 176.195 39.0818 176.149 39.094C176.104 39.1062 176.081 39.1366 176.081 39.1854V44.4501C176.081 44.6044 176.009 44.6816 175.865 44.6816H174.864C174.72 44.6816 174.648 44.6044 174.648 44.4501V35.9924C174.648 35.9275 174.669 35.8726 174.71 35.8279C174.752 35.7833 174.803 35.7609 174.864 35.7609H176.058C176.142 35.7609 176.202 35.8015 176.24 35.8828L176.968 37.3087L178.993 41.3059C179.015 41.3546 179.049 41.3729 179.095 41.3607C179.14 41.3486 179.163 41.314 179.163 41.2571V35.9924C179.163 35.9275 179.184 35.8726 179.226 35.8279C179.268 35.7833 179.319 35.7609 179.379 35.7609H180.38ZM185.214 43.2314C185.449 43.3126 185.684 43.3492 185.919 43.3411C186.154 43.3329 186.378 43.2842 186.59 43.1948C186.803 43.1055 186.998 42.9816 187.176 42.8231C187.354 42.6647 187.5 42.4758 187.614 42.2565C187.69 42.1346 187.792 42.1021 187.921 42.1589L188.797 42.5977C188.858 42.6301 188.899 42.681 188.922 42.75C188.945 42.819 188.941 42.8861 188.911 42.9511C188.721 43.3167 188.482 43.6376 188.194 43.9138C187.906 44.1901 187.586 44.4094 187.233 44.5719C186.88 44.7344 186.507 44.8339 186.113 44.8705C185.718 44.9071 185.324 44.8644 184.93 44.7425C184.551 44.6288 184.204 44.4521 183.889 44.2124C183.574 43.9727 183.305 43.6904 183.082 43.3654C182.858 43.0404 182.683 42.681 182.558 42.2869C182.433 41.8929 182.371 41.4846 182.371 41.0621V39.3316C182.371 38.8116 182.464 38.3201 182.649 37.8571C182.835 37.3939 183.087 36.9897 183.406 36.6424C183.724 36.2951 184.096 36.0209 184.52 35.8198C184.945 35.6188 185.4 35.5172 185.885 35.5172C186.424 35.5253 186.928 35.6513 187.398 35.897C187.868 36.1448 188.274 36.4962 188.615 36.9552C188.668 37.0284 188.719 37.1035 188.769 37.1807C188.818 37.2578 188.861 37.3412 188.899 37.4305C188.937 37.4955 188.945 37.5625 188.922 37.6316C188.899 37.7007 188.854 37.7514 188.786 37.7839L187.921 38.2226C187.792 38.2876 187.69 38.2511 187.614 38.113L187.478 37.9058C187.265 37.6214 187.011 37.4041 186.715 37.2538C186.42 37.1035 186.101 37.0365 185.76 37.0527C185.487 37.0689 185.231 37.138 184.992 37.2599C184.753 37.3817 184.545 37.5463 184.367 37.7535C184.189 37.9606 184.05 38.1982 183.952 38.4663C183.853 38.7344 183.804 39.0147 183.804 39.3072V41.0865C183.804 41.5658 183.931 42.0046 184.185 42.4027C184.439 42.8008 184.782 43.077 185.214 43.2314ZM194.916 39.4535C194.977 39.4535 195.028 39.4311 195.07 39.3865C195.111 39.3418 195.132 39.2869 195.132 39.222V35.9924C195.132 35.9275 195.153 35.8726 195.195 35.8279C195.237 35.7833 195.288 35.7609 195.348 35.7609H196.349C196.41 35.7609 196.461 35.7833 196.503 35.8279C196.545 35.8726 196.565 35.9275 196.565 35.9924V44.4501C196.565 44.5151 196.545 44.5699 196.503 44.6146C196.461 44.6593 196.41 44.6816 196.349 44.6816H195.348C195.288 44.6816 195.237 44.6593 195.195 44.6146C195.153 44.5699 195.132 44.5151 195.132 44.4501V41.2205C195.132 41.1556 195.111 41.1007 195.07 41.0561C195.028 41.0114 194.977 40.989 194.916 40.989H192.3C192.239 40.989 192.188 41.0114 192.147 41.0561C192.105 41.1007 192.084 41.1556 192.084 41.2205V44.4501C192.084 44.5151 192.063 44.5699 192.021 44.6146C191.98 44.6593 191.929 44.6816 191.868 44.6816H190.867C190.806 44.6816 190.755 44.6593 190.713 44.6146C190.672 44.5699 190.651 44.5151 190.651 44.4501V35.9924C190.651 35.9275 190.672 35.8726 190.713 35.8279C190.755 35.7833 190.806 35.7609 190.867 35.7609H191.868C191.929 35.7609 191.98 35.7833 192.021 35.8279C192.063 35.8726 192.084 35.9275 192.084 35.9924V39.222C192.084 39.2869 192.105 39.3418 192.147 39.3865C192.188 39.4311 192.239 39.4535 192.3 39.4535H194.916ZM199.511 35.7487C199.572 35.7487 199.623 35.7711 199.665 35.8158C199.706 35.8604 199.727 35.9153 199.727 35.9803V42.9145C199.727 42.9795 199.748 43.0343 199.79 43.079C199.832 43.1237 199.883 43.1461 199.943 43.1461H203.697C203.757 43.1461 203.809 43.1684 203.85 43.2131C203.892 43.2578 203.913 43.3126 203.913 43.3776V44.4501C203.913 44.5151 203.892 44.5699 203.85 44.6146C203.809 44.6593 203.757 44.6816 203.697 44.6816H198.51C198.366 44.6816 198.294 44.6044 198.294 44.4501V35.9803C198.294 35.9153 198.315 35.8604 198.357 35.8158C198.398 35.7711 198.45 35.7487 198.51 35.7487H199.511ZM205.972 44.6694C205.828 44.6694 205.755 44.5922 205.755 44.4379V35.9803C205.755 35.9153 205.776 35.8604 205.818 35.8158C205.86 35.7711 205.911 35.7487 205.972 35.7487H206.973C207.033 35.7487 207.084 35.7711 207.126 35.8158C207.168 35.8604 207.189 35.9153 207.189 35.9803V44.4379C207.189 44.5922 207.117 44.6694 206.973 44.6694H205.972ZM214.036 39.2098C214.082 39.2098 214.104 39.2342 214.104 39.2829V40.6721C214.104 40.7208 214.082 40.7453 214.036 40.7453H209.43C209.384 40.7453 209.361 40.7209 209.361 40.6721V39.2829C209.361 39.2342 209.384 39.2098 209.43 39.2098H214.036ZM219.2 35.5172C219.67 35.5253 220.114 35.6289 220.531 35.8279C220.948 36.027 221.312 36.2951 221.622 36.6302C221.933 36.9674 222.178 37.3614 222.356 37.8124C222.534 38.2612 222.623 38.7426 222.623 39.2545V41.1515C222.623 41.6308 222.544 42.0817 222.385 42.5042C222.225 42.9247 222.009 43.3024 221.736 43.6356C221.66 43.7331 221.657 43.8306 221.725 43.928L222.203 44.5963C222.241 44.645 222.256 44.7019 222.248 44.7669C222.241 44.8318 222.214 44.8847 222.168 44.9253L221.372 45.5834C221.327 45.6241 221.274 45.6403 221.213 45.6322C221.152 45.6241 221.103 45.5916 221.065 45.5347L220.508 44.7547C220.44 44.6653 220.356 44.641 220.258 44.6816C219.916 44.8116 219.545 44.8766 219.143 44.8766C218.665 44.8766 218.214 44.775 217.79 44.5719C217.365 44.3688 216.993 44.0926 216.675 43.7453C216.356 43.3959 216.106 42.9897 215.924 42.5266C215.742 42.0655 215.651 41.578 215.651 41.0662V39.3397C215.651 38.8198 215.744 38.3242 215.93 37.853C216.116 37.3838 216.37 36.9735 216.692 36.6242C217.014 36.2768 217.39 36.0026 217.818 35.8036C218.246 35.6046 218.707 35.509 219.2 35.5172ZM219.905 41.7811C219.951 41.7406 220.004 41.7263 220.064 41.7385C220.125 41.7507 220.174 41.7811 220.212 41.8299L220.542 42.2808C220.587 42.3458 220.65 42.3762 220.73 42.3722C220.809 42.3682 220.868 42.3295 220.906 42.2565C221.095 41.9152 221.19 41.5455 221.19 41.1475V39.2463C221.19 38.9295 221.133 38.6349 221.02 38.3628C220.906 38.0906 220.75 37.855 220.553 37.656C220.356 37.457 220.127 37.3025 219.865 37.1929C219.604 37.0832 219.325 37.0365 219.029 37.0527C218.756 37.0689 218.502 37.1381 218.267 37.2599C218.032 37.3817 217.826 37.5463 217.647 37.7535C217.469 37.9606 217.331 38.1983 217.232 38.4663C217.134 38.7344 217.084 39.0148 217.084 39.3072V41.1475C217.084 41.448 217.137 41.7324 217.244 42.0005C217.35 42.2686 217.496 42.5022 217.681 42.7013C217.867 42.9003 218.085 43.0567 218.335 43.1704C218.586 43.2841 218.851 43.3411 219.132 43.3411C219.169 43.3411 219.206 43.3411 219.24 43.3411C219.274 43.3411 219.31 43.337 219.348 43.3289C219.378 43.3208 219.397 43.3045 219.405 43.2801C219.412 43.2557 219.408 43.2354 219.393 43.2192L219.075 42.7683C219.037 42.7195 219.022 42.6627 219.029 42.5977C219.037 42.5327 219.067 42.4799 219.12 42.4392L219.905 41.7811ZM230.142 35.7487C230.286 35.7487 230.358 35.826 230.358 35.9803V40.9281C230.358 40.993 230.356 41.1333 230.352 41.3486C230.348 41.5638 230.318 41.8116 230.261 42.0919C230.204 42.3722 230.113 42.6688 229.988 42.9816C229.863 43.2943 229.683 43.5807 229.448 43.8407C228.955 44.3932 228.314 44.6694 227.526 44.6694C226.669 44.6694 225.979 44.3769 225.456 43.792C225.228 43.532 225.052 43.2476 224.927 42.9389C224.802 42.6302 224.711 42.3377 224.654 42.0614C224.597 41.7852 224.566 41.5415 224.563 41.3302C224.559 41.119 224.557 40.9809 224.557 40.9159V35.9803C224.557 35.9153 224.578 35.8604 224.62 35.8158C224.661 35.7711 224.712 35.7487 224.773 35.7487H225.785C225.846 35.7487 225.897 35.7711 225.939 35.8158C225.981 35.8604 226.001 35.9153 226.001 35.9803L225.99 40.9768C225.99 41.0581 225.994 41.1698 226.001 41.312C226.009 41.4541 226.032 41.6105 226.07 41.7811C226.108 41.9517 226.161 42.1204 226.229 42.2869C226.297 42.4534 226.388 42.6018 226.502 42.7317C226.752 42.9998 227.093 43.1339 227.526 43.1339C227.897 43.1339 228.189 43.0161 228.401 42.7805C228.515 42.6586 228.606 42.5103 228.674 42.3357C228.743 42.1611 228.796 41.9863 228.834 41.8116C228.871 41.637 228.896 41.4744 228.908 41.3242C228.919 41.1738 228.925 41.054 228.925 40.9646V35.9803C228.925 35.9153 228.944 35.8604 228.981 35.8158C229.019 35.7711 229.069 35.7487 229.129 35.7487H230.142ZM233.486 35.7487C233.546 35.7487 233.597 35.7711 233.639 35.8158C233.681 35.8604 233.702 35.9154 233.702 35.9803V42.9145C233.702 42.9795 233.723 43.0343 233.764 43.079C233.806 43.1237 233.857 43.1461 233.918 43.1461H237.671C237.732 43.1461 237.783 43.1684 237.825 43.2131C237.866 43.2577 237.887 43.3127 237.887 43.3776V44.4501C237.887 44.515 237.866 44.5699 237.825 44.6146C237.783 44.6593 237.732 44.6816 237.671 44.6816H232.485C232.341 44.6816 232.269 44.6044 232.269 44.4501V35.9803C232.269 35.9153 232.289 35.8604 232.331 35.8158C232.373 35.7711 232.424 35.7487 232.485 35.7487H233.486ZM242.539 35.9194C242.577 35.8137 242.645 35.7609 242.744 35.7609H243.961C244.059 35.7609 244.128 35.8137 244.166 35.9194L246.964 44.3769C246.994 44.4582 246.986 44.5293 246.941 44.5902C246.895 44.6512 246.835 44.6816 246.759 44.6816H245.69C245.584 44.6816 245.519 44.6328 245.496 44.5354L245.076 43.2923C245.038 43.1867 244.973 43.1339 244.882 43.1339H241.834C241.735 43.1339 241.667 43.1867 241.629 43.2923L241.22 44.5354C241.182 44.6328 241.114 44.6816 241.015 44.6816H239.946C239.87 44.6816 239.809 44.6512 239.764 44.5902C239.719 44.5293 239.711 44.4582 239.741 44.3769L242.539 35.9194ZM242.289 41.2937C242.266 41.3668 242.276 41.4359 242.317 41.5008C242.359 41.5658 242.418 41.5983 242.494 41.5983H244.211C244.287 41.5983 244.346 41.5658 244.387 41.5008C244.429 41.4359 244.439 41.3668 244.416 41.2937L243.552 38.6857C243.514 38.5801 243.447 38.5273 243.352 38.5273C243.258 38.5273 243.191 38.5801 243.153 38.6857L242.289 41.2937ZM251.104 35.8828C251.142 35.8015 251.202 35.7609 251.286 35.7609H252.457C252.541 35.7609 252.603 35.7996 252.645 35.8767C252.687 35.9539 252.685 36.0331 252.639 36.1143L250.228 40.5137C250.205 40.5544 250.194 40.5951 250.194 40.6356V44.4501C250.194 44.515 250.173 44.5699 250.131 44.6146C250.09 44.6593 250.038 44.6816 249.978 44.6816H248.977C248.916 44.6816 248.865 44.6592 248.823 44.6146C248.782 44.5699 248.761 44.5151 248.761 44.4501V40.6356C248.761 40.595 248.749 40.5544 248.727 40.5137L246.315 36.1143C246.27 36.0331 246.268 35.9538 246.31 35.8767C246.351 35.7995 246.414 35.7609 246.497 35.7609H247.658C247.733 35.7609 247.798 35.8015 247.851 35.8828L249.341 38.5882C249.371 38.6451 249.417 38.6736 249.477 38.6736C249.538 38.6736 249.583 38.6451 249.614 38.5882L251.104 35.8828Z" fill="#0185FF"/>
</svg>
