<svg width="63" height="81" viewBox="0 0 63 81" fill="none" xmlns="http://www.w3.org/2000/svg">
<path d="M20.2291 73.4282L6.2897 62.3938L2.6089 67.0051L16.5774 78.0753L20.2291 73.4282ZM41.4005 18.193V17.3942C41.446 16.9071 41.8589 16.5336 42.3499 16.5336C42.8409 16.5336 43.2538 16.907 43.3026 17.3942V18.193C44.0374 18.3846 44.7105 18.7646 45.2536 19.2939C46.0144 20.0668 46.4436 21.0995 46.4566 22.1809C46.4826 22.4504 46.3916 22.7167 46.2128 22.9148C46.0307 23.1129 45.7738 23.2266 45.5039 23.2266C45.234 23.2266 44.9772 23.1129 44.7983 22.9148C44.6162 22.7167 44.5284 22.4504 44.5545 22.1809C44.5577 21.5931 44.3236 21.0313 43.9041 20.6157C43.4847 20.2097 42.9222 19.9792 42.3369 19.9694C41.7549 19.9759 41.1956 20.2097 40.7761 20.6157C40.3567 21.0281 40.1226 21.5931 40.1193 22.1809C40.1063 22.7784 40.3437 23.3565 40.7761 23.7656C41.1858 24.1878 41.7484 24.4248 42.3369 24.4216C42.3922 24.4151 42.4474 24.4151 42.5027 24.4216C43.5432 24.4508 44.5317 24.8827 45.2536 25.6296C46.0274 26.3928 46.4599 27.4352 46.4566 28.5166C46.4566 30.7638 44.6487 32.5921 42.3987 32.6213C41.3061 32.6181 40.2559 32.1862 39.482 31.4133C38.7114 30.6437 38.2789 29.598 38.2789 28.5101C38.3277 28.0198 38.7374 27.6463 39.2316 27.6463C39.7226 27.6463 40.1355 28.0197 40.1811 28.5101C40.1746 29.0947 40.4087 29.6597 40.8314 30.0656C41.2378 30.4911 41.8069 30.7281 42.3986 30.7151C43.6179 30.7151 44.6097 29.7279 44.6162 28.5102C44.6162 27.9224 44.3821 27.3606 43.9659 26.9449C43.5497 26.5292 42.9872 26.2954 42.3987 26.2954H42.2328C41.1923 26.2467 40.2071 25.8148 39.4625 25.0874C38.7049 24.3113 38.2789 23.2688 38.2789 22.181C38.2789 21.1028 38.7049 20.0636 39.4625 19.294C40.0153 18.7646 40.6949 18.3846 41.4362 18.1931L41.4005 18.193ZM42.3369 12.6367C43.1888 12.6367 44.0375 12.7244 44.8699 12.8965C44.7561 12.6237 44.5838 12.3769 44.3627 12.1788C43.9237 11.7307 43.3222 11.4774 42.6978 11.4806H24.0404C23.4161 11.4774 22.8145 11.7307 22.3756 12.1788C21.9236 12.6107 21.67 13.2083 21.6765 13.835C21.67 14.4618 21.9236 15.0626 22.3756 15.4977C22.8145 15.9426 23.4161 16.1959 24.0404 16.1959H33.5223C35.8895 13.9129 39.0462 12.6367 42.3369 12.6367ZM46.9378 13.5103C48.5864 14.1403 50.0788 15.1178 51.3177 16.3712C53.6979 18.7484 55.031 21.9698 55.031 25.3306C55.0277 28.6885 53.6913 31.9099 51.3079 34.2841C48.9277 36.658 45.7021 37.9894 42.3371 37.9862C42.0054 37.9862 41.6347 37.9862 41.3031 37.944H24.0407C22.9124 37.9375 21.8297 37.4893 21.0265 36.6905C20.2233 35.8949 19.7746 34.8102 19.7746 33.6801C19.7909 32.5565 20.2396 31.4816 21.0265 30.6795L21.3679 30.3904H21.3711C21.2508 30.293 21.1338 30.1891 21.0265 30.0754C20.2266 29.2831 19.7746 28.2017 19.7746 27.0748C19.7811 25.9447 20.2299 24.8633 21.0265 24.0644L21.3711 23.7657C21.2508 23.6682 21.1338 23.5643 21.0265 23.4507C20.2266 22.655 19.7746 21.5737 19.7746 20.4468C19.7746 19.3167 20.2266 18.2352 21.0265 17.4397L21.3679 17.1506C21.2443 17.0532 21.15 16.9395 21.0265 16.8454C20.2266 16.0498 19.7746 14.9684 19.7746 13.8382C19.7746 12.7081 20.2266 11.6267 21.0265 10.8311C21.8296 10.0355 22.9124 9.58411 24.0407 9.58086H42.6982C43.8297 9.58086 44.9125 10.029 45.7124 10.8311C46.4212 11.5326 46.8569 12.4645 46.9383 13.4583L46.9378 13.5103ZM35.6155 36.0604C34.8091 35.5635 34.058 34.9757 33.3817 34.31C32.5102 33.4332 31.7624 32.4362 31.1641 31.3548H24.0399C22.7457 31.3678 21.6955 32.4102 21.676 33.7059C21.6727 34.3424 21.9264 34.9497 22.3751 35.3979C22.814 35.8428 23.4156 36.0961 24.0399 36.0961L35.6155 36.0604ZM30.3577 29.4454C29.8895 28.1172 29.6521 26.7176 29.6586 25.3049V24.7009L24.0399 24.7041C23.0807 24.7009 22.2158 25.2789 21.8516 26.1655C21.4874 27.052 21.6955 28.0717 22.3751 28.7472C22.8141 29.1953 23.4156 29.4486 24.0399 29.4454L30.3577 29.4454ZM29.9188 22.8044H29.922C30.2504 21.119 30.917 19.5148 31.8827 18.0956H23.9976C22.697 18.0989 21.6403 19.151 21.6304 20.45C21.6304 21.08 21.8841 21.6873 22.3328 22.1289C22.7782 22.5608 23.3765 22.8043 23.9976 22.8043L29.9188 22.8044ZM49.9779 17.6833C45.7574 13.4843 38.9319 13.4843 34.715 17.6833C34.715 17.7255 34.6434 17.7547 34.6174 17.8067C30.5009 22.0251 30.5465 28.7637 34.715 32.9296C38.9323 37.1285 45.7576 37.1285 49.9779 32.9296C52.0134 30.9129 53.1612 28.1688 53.1612 25.3046C53.1612 22.4436 52.0134 19.6999 49.9779 17.6833ZM12.7471 20.265C12.9357 20.0929 13.1926 20.0117 13.4462 20.0442C13.7031 20.0766 13.9307 20.2195 14.0705 20.4339C14.3827 20.8463 14.3079 21.4308 13.9047 21.7523L11.3717 23.704C10.9587 24.0158 10.3702 23.9443 10.0483 23.5384L8.07785 21.0086C7.80797 20.5995 7.90226 20.0507 8.28921 19.7487C8.67939 19.4466 9.23215 19.4921 9.56711 19.8558L10.1882 20.6514C11.1864 15.605 13.7096 10.9838 17.4197 7.41483C21.1264 3.84265 25.8411 1.49477 30.9296 0.679644C37.5465 -0.398521 44.3262 1.19274 49.7693 5.10263C55.2157 9.01575 58.8833 14.9224 59.9663 21.5349V21.7005C59.9533 22.2071 59.5501 22.6163 59.046 22.639C58.555 22.626 58.1486 22.2526 58.0998 21.7622C57.0984 15.6636 53.7135 10.2107 48.6895 6.60022C43.6658 2.99237 37.413 1.52123 31.3031 2.51169H31.1796H31.1828C26.5299 3.28458 22.2212 5.44083 18.8175 8.69802C15.4098 11.952 13.0654 16.1574 12.09 20.7658L12.7471 20.265ZM56.9785 31.1797C56.5363 31.4362 55.9705 31.2966 55.7006 30.8647C55.4372 30.4133 55.577 29.8417 56.016 29.5592L58.6432 28.0264V28.0296C58.8351 27.8738 59.0854 27.8121 59.3293 27.851C59.5732 27.89 59.7878 28.0329 59.9211 28.2375L61.6737 30.6178C61.9891 31.0303 61.9078 31.6213 61.4949 31.9363C61.0819 32.248 60.4902 32.1701 60.178 31.7577L59.6773 31.1017V31.0984C58.64 35.6611 56.3737 39.8533 53.1221 43.221C48.7455 47.709 42.8536 50.4173 36.5881 50.8103C30.3256 51.2065 24.1379 49.2645 19.2308 45.3578C14.321 41.4544 11.0368 35.8656 10.0228 29.6829C9.95127 29.1763 10.2927 28.7022 10.7934 28.6047C11.0405 28.5625 11.2942 28.621 11.499 28.7639C11.7006 28.91 11.8404 29.1308 11.8794 29.3776C12.8809 35.499 16.2755 40.974 21.3189 44.5953C26.3621 48.2162 32.6412 49.6873 38.7702 48.6806C43.3875 47.9175 47.6728 45.7969 51.074 42.5885C54.4783 39.38 56.8455 35.2298 57.873 30.6704L56.9785 31.1797ZM7.4472 60.9325C8.4227 60.0492 9.30388 59.0653 10.0744 58.0001C12.9391 54.3436 16.2882 50.1251 23.9198 51.9891L35.0632 51.7683C36.0972 51.7521 37.0986 52.1288 37.8595 52.8269C38.6302 53.5284 39.0822 54.5091 39.1114 55.5482C39.1667 56.3374 39.0138 57.1232 38.6757 57.8344L40.8737 57.763L56.4979 49.0115V49.0147C57.4051 48.4919 58.4814 48.362 59.4894 48.6445C60.4941 48.9303 61.3428 49.609 61.8435 50.528C62.3573 51.4307 62.4873 52.5024 62.2012 53.5026C61.9216 54.5028 61.2583 55.3537 60.351 55.8668L43.976 65.0115L43.4687 65.2291C43.3127 65.2973 43.1501 65.3525 42.9843 65.3947C42.8444 65.3947 42.6786 65.4727 42.503 65.4921C42.3535 65.5214 42.2006 65.5376 42.0478 65.5441C41.1731 65.6155 37.8143 66.0247 34.2766 66.5053C30.1048 67.0574 25.6729 67.6777 24.4276 67.8952L21.4849 72.0097L22.158 72.5423V72.5455C22.5579 72.8735 22.6229 73.4581 22.3075 73.8672L17.4627 79.9918C17.1375 80.3945 16.5522 80.4692 16.1393 80.1575L0.710752 67.9052H0.7075C0.509155 67.7525 0.382347 67.5252 0.356326 67.2784C0.327062 67.0283 0.401848 66.7783 0.561172 66.5867L5.39627 60.462V60.4588C5.72793 60.0594 6.31649 59.9944 6.72944 60.3094L7.4472 60.9325ZM19.9948 70.8305L23.1228 66.5049C23.2497 66.3068 23.4513 66.1672 23.6821 66.1217C24.0691 66.0243 29.265 65.2481 34.058 64.6246C37.651 64.144 41.0164 63.7511 41.9431 63.6634H42.2325L42.4764 63.5855V63.5823C42.5772 63.566 42.6747 63.5335 42.7658 63.4881C42.8536 63.4621 42.9349 63.4231 43.0129 63.3744L59.3879 54.1873V54.184C60.3504 53.6352 60.708 52.4304 60.2041 51.4464C60.1911 51.4139 60.1911 51.3782 60.2041 51.349C59.9114 50.9171 59.4725 50.6053 58.9685 50.4754C58.4612 50.3293 57.915 50.3877 57.4532 50.641L57.3817 50.693L41.6085 59.5393C41.4784 59.6172 41.3321 59.6595 41.1793 59.6627L35.3883 59.7926L22.9805 60.2992V60.3025C22.4895 60.2862 22.0896 59.8965 22.0667 59.4062C22.0407 58.9126 22.3984 58.4839 22.8861 58.419C26.8823 58.1819 30.9988 58.0325 35.0925 57.9189H35.3364V57.9221C35.8826 57.9351 36.4062 57.7143 36.7833 57.3181C37.1475 56.8115 37.3166 56.188 37.2646 55.5677C37.2418 55.0351 37.0044 54.5318 36.6077 54.1745C36.2045 53.7978 35.6713 53.59 35.1185 53.5998L23.946 53.8108V53.8076C23.8322 53.8303 23.7151 53.8303 23.6046 53.8076C17.0852 52.1449 14.1227 55.8989 11.5639 59.1464C10.7932 60.205 9.9316 61.1955 8.98857 62.1048L19.9948 70.8305Z" fill="white"/>
<path d="M49.9747 17.6865L49.9779 17.6833M49.9779 17.6833C45.7574 13.4843 38.9319 13.4843 34.715 17.6833C34.715 17.7255 34.6434 17.7547 34.6174 17.8067C30.5009 22.0251 30.5465 28.7637 34.715 32.9296C38.9323 37.1285 45.7576 37.1285 49.9779 32.9296C52.0134 30.9129 53.1612 28.1688 53.1612 25.3046C53.1612 22.4436 52.0134 19.6999 49.9779 17.6833ZM20.2291 73.4282L6.2897 62.3938L2.6089 67.0051L16.5774 78.0753L20.2291 73.4282ZM41.4005 18.193V17.3942C41.446 16.9071 41.8589 16.5336 42.3499 16.5336C42.8409 16.5336 43.2538 16.907 43.3026 17.3942V18.193C44.0374 18.3846 44.7105 18.7646 45.2536 19.2939C46.0144 20.0668 46.4436 21.0995 46.4566 22.1809C46.4826 22.4504 46.3916 22.7167 46.2128 22.9148C46.0307 23.1129 45.7738 23.2266 45.5039 23.2266C45.234 23.2266 44.9772 23.1129 44.7983 22.9148C44.6162 22.7167 44.5284 22.4504 44.5545 22.1809C44.5577 21.5931 44.3236 21.0313 43.9041 20.6157C43.4847 20.2097 42.9222 19.9792 42.3369 19.9694C41.7549 19.9759 41.1956 20.2097 40.7761 20.6157C40.3567 21.0281 40.1226 21.5931 40.1193 22.1809C40.1063 22.7784 40.3437 23.3565 40.7761 23.7656C41.1858 24.1878 41.7484 24.4248 42.3369 24.4216C42.3922 24.4151 42.4474 24.4151 42.5027 24.4216C43.5432 24.4508 44.5317 24.8827 45.2536 25.6296C46.0274 26.3928 46.4599 27.4352 46.4566 28.5166C46.4566 30.7638 44.6487 32.5921 42.3987 32.6213C41.3061 32.6181 40.2559 32.1862 39.482 31.4133C38.7114 30.6437 38.2789 29.598 38.2789 28.5101C38.3277 28.0198 38.7374 27.6463 39.2316 27.6463C39.7226 27.6463 40.1355 28.0197 40.1811 28.5101C40.1746 29.0947 40.4087 29.6597 40.8314 30.0656C41.2378 30.4911 41.8069 30.7281 42.3986 30.7151C43.6179 30.7151 44.6097 29.7279 44.6162 28.5102C44.6162 27.9224 44.3821 27.3606 43.9659 26.9449C43.5497 26.5292 42.9872 26.2954 42.3987 26.2954H42.2328C41.1923 26.2467 40.2071 25.8148 39.4625 25.0874C38.7049 24.3113 38.2789 23.2688 38.2789 22.181C38.2789 21.1028 38.7049 20.0636 39.4625 19.294C40.0153 18.7646 40.6949 18.3846 41.4362 18.1931L41.4005 18.193ZM42.3369 12.6367C43.1888 12.6367 44.0375 12.7244 44.8699 12.8965C44.7561 12.6237 44.5838 12.3769 44.3627 12.1788C43.9237 11.7307 43.3222 11.4774 42.6978 11.4806H24.0404C23.4161 11.4774 22.8145 11.7307 22.3756 12.1788C21.9236 12.6107 21.67 13.2083 21.6765 13.835C21.67 14.4618 21.9236 15.0626 22.3756 15.4977C22.8145 15.9426 23.4161 16.1959 24.0404 16.1959H33.5223C35.8895 13.9129 39.0462 12.6367 42.3369 12.6367ZM46.9378 13.5103C48.5864 14.1403 50.0788 15.1178 51.3177 16.3712C53.6979 18.7484 55.031 21.9698 55.031 25.3306C55.0277 28.6885 53.6913 31.9099 51.3079 34.2841C48.9277 36.658 45.7021 37.9894 42.3371 37.9862C42.0054 37.9862 41.6347 37.9862 41.3031 37.944H24.0407C22.9124 37.9375 21.8297 37.4893 21.0265 36.6905C20.2233 35.8949 19.7746 34.8102 19.7746 33.6801C19.7909 32.5565 20.2396 31.4816 21.0265 30.6795L21.3679 30.3904H21.3711C21.2508 30.293 21.1338 30.1891 21.0265 30.0754C20.2266 29.2831 19.7746 28.2017 19.7746 27.0748C19.7811 25.9447 20.2299 24.8633 21.0265 24.0644L21.3711 23.7657C21.2508 23.6682 21.1338 23.5643 21.0265 23.4507C20.2266 22.655 19.7746 21.5737 19.7746 20.4468C19.7746 19.3167 20.2266 18.2352 21.0265 17.4397L21.3679 17.1506C21.2443 17.0532 21.15 16.9395 21.0265 16.8454C20.2266 16.0498 19.7746 14.9684 19.7746 13.8382C19.7746 12.7081 20.2266 11.6267 21.0265 10.8311C21.8296 10.0355 22.9124 9.58411 24.0407 9.58086H42.6982C43.8297 9.58086 44.9125 10.029 45.7124 10.8311C46.4212 11.5326 46.8569 12.4645 46.9383 13.4583L46.9378 13.5103ZM35.6155 36.0604C34.8091 35.5635 34.058 34.9757 33.3817 34.31C32.5102 33.4332 31.7624 32.4362 31.1641 31.3548H24.0399C22.7457 31.3678 21.6955 32.4102 21.676 33.7059C21.6727 34.3424 21.9264 34.9497 22.3751 35.3979C22.814 35.8428 23.4156 36.0961 24.0399 36.0961L35.6155 36.0604ZM30.3577 29.4454C29.8895 28.1172 29.6521 26.7176 29.6586 25.3049V24.7009L24.0399 24.7041C23.0807 24.7009 22.2158 25.2789 21.8516 26.1655C21.4874 27.052 21.6955 28.0717 22.3751 28.7472C22.8141 29.1953 23.4156 29.4486 24.0399 29.4454L30.3577 29.4454ZM29.9188 22.8044H29.922C30.2504 21.119 30.917 19.5148 31.8827 18.0956H23.9976C22.697 18.0989 21.6403 19.151 21.6304 20.45C21.6304 21.08 21.8841 21.6873 22.3328 22.1289C22.7782 22.5608 23.3765 22.8043 23.9976 22.8043L29.9188 22.8044ZM12.7471 20.265C12.9357 20.0929 13.1926 20.0117 13.4462 20.0442C13.7031 20.0766 13.9307 20.2195 14.0705 20.4339C14.3827 20.8463 14.3079 21.4308 13.9047 21.7523L11.3717 23.704C10.9587 24.0158 10.3702 23.9443 10.0483 23.5384L8.07785 21.0086C7.80797 20.5995 7.90226 20.0507 8.28921 19.7487C8.67939 19.4466 9.23215 19.4921 9.56711 19.8558L10.1882 20.6514C11.1864 15.605 13.7096 10.9838 17.4197 7.41483C21.1264 3.84265 25.8411 1.49477 30.9296 0.679644C37.5465 -0.398521 44.3262 1.19274 49.7693 5.10263C55.2157 9.01575 58.8833 14.9224 59.9663 21.5349V21.7005C59.9532 22.2071 59.5501 22.6163 59.046 22.639C58.5551 22.626 58.1486 22.2526 58.0998 21.7622C57.0984 15.6636 53.7135 10.2107 48.6895 6.60022C43.6658 2.99237 37.413 1.52123 31.3031 2.51169H31.1796H31.1828C26.5299 3.28458 22.2212 5.44083 18.8175 8.69802C15.4098 11.952 13.0654 16.1574 12.09 20.7658L12.7471 20.265ZM56.9785 31.1797C56.5363 31.4362 55.9705 31.2966 55.7006 30.8647C55.4372 30.4133 55.577 29.8417 56.016 29.5592L58.6432 28.0264V28.0296C58.8351 27.8738 59.0854 27.8121 59.3293 27.851C59.5732 27.89 59.7878 28.0329 59.9211 28.2375L61.6737 30.6178C61.9891 31.0303 61.9078 31.6213 61.4949 31.9363C61.0819 32.248 60.4902 32.1701 60.178 31.7577L59.6773 31.1017V31.0984C58.64 35.6611 56.3737 39.8533 53.1221 43.221C48.7455 47.709 42.8536 50.4173 36.5881 50.8103C30.3256 51.2065 24.1379 49.2645 19.2308 45.3578C14.321 41.4545 11.0368 35.8656 10.0228 29.6829C9.95127 29.1763 10.2927 28.7022 10.7934 28.6048C11.0405 28.5625 11.2942 28.621 11.499 28.7639C11.7006 28.91 11.8404 29.1308 11.8795 29.3776C12.8809 35.499 16.2755 40.974 21.3189 44.5953C26.3621 48.2162 32.6412 49.6873 38.7702 48.6806C43.3875 47.9175 47.6728 45.7969 51.074 42.5885C54.4783 39.38 56.8455 35.2298 57.873 30.6704L56.9785 31.1797ZM7.4472 60.9325C8.4227 60.0492 9.30388 59.0653 10.0744 58.0001C12.9391 54.3436 16.2882 50.1251 23.9198 51.9891L35.0632 51.7683C36.0972 51.7521 37.0986 52.1288 37.8595 52.8269C38.6302 53.5284 39.0822 54.5091 39.1114 55.5482C39.1667 56.3374 39.0138 57.1232 38.6757 57.8344L40.8737 57.763L56.4979 49.0115V49.0147C57.4051 48.4919 58.4814 48.362 59.4894 48.6445C60.4941 48.9303 61.3428 49.609 61.8435 50.528C62.3573 51.4307 62.4873 52.5024 62.2012 53.5026C61.9216 54.5028 61.2583 55.3537 60.351 55.8668L43.976 65.0115L43.4687 65.2291C43.3127 65.2973 43.1501 65.3525 42.9843 65.3947C42.8444 65.3947 42.6786 65.4727 42.503 65.4921C42.3535 65.5214 42.2006 65.5376 42.0478 65.5441C41.1731 65.6155 37.8143 66.0247 34.2766 66.5053C30.1048 67.0574 25.6729 67.6777 24.4276 67.8952L21.4849 72.0097L22.158 72.5423V72.5455C22.5579 72.8735 22.6229 73.4581 22.3075 73.8672L17.4627 79.9918C17.1375 80.3945 16.5522 80.4692 16.1393 80.1575L0.710752 67.9052H0.7075C0.509155 67.7525 0.382347 67.5252 0.356326 67.2784C0.327062 67.0283 0.401848 66.7783 0.561172 66.5867L5.39627 60.462V60.4588C5.72793 60.0594 6.31649 59.9944 6.72944 60.3094L7.4472 60.9325ZM19.9948 70.8305L23.1228 66.5049C23.2497 66.3068 23.4513 66.1672 23.6821 66.1217C24.0691 66.0243 29.265 65.2481 34.058 64.6246C37.651 64.144 41.0164 63.7511 41.9431 63.6634H42.2325L42.4764 63.5855V63.5823C42.5772 63.566 42.6747 63.5335 42.7658 63.4881C42.8536 63.4621 42.9349 63.4231 43.0129 63.3744L59.3879 54.1873V54.184C60.3504 53.6352 60.708 52.4304 60.2041 51.4464C60.1911 51.4139 60.1911 51.3782 60.2041 51.349C59.9114 50.9171 59.4725 50.6053 58.9685 50.4754C58.4612 50.3293 57.915 50.3877 57.4532 50.641L57.3817 50.693L41.6085 59.5393C41.4784 59.6172 41.3321 59.6595 41.1793 59.6627L35.3883 59.7926L22.9805 60.2992V60.3025C22.4895 60.2862 22.0896 59.8965 22.0667 59.4062C22.0407 58.9126 22.3984 58.4839 22.8861 58.419C26.8823 58.1819 30.9988 58.0325 35.0925 57.9189H35.3364V57.9221C35.8826 57.9351 36.4062 57.7143 36.7833 57.3181C37.1475 56.8115 37.3166 56.188 37.2646 55.5677C37.2418 55.0351 37.0044 54.5318 36.6077 54.1745C36.2045 53.7978 35.6713 53.59 35.1185 53.5997L23.946 53.8108V53.8076C23.8322 53.8303 23.7151 53.8303 23.6046 53.8076C17.0852 52.1449 14.1227 55.8989 11.5639 59.1464C10.7932 60.205 9.9316 61.1955 8.98857 62.1048L19.9948 70.8305Z" stroke="white" stroke-width="0.7"/>
</svg>
