<svg width="63" height="64" viewBox="0 0 63 64" fill="none" xmlns="http://www.w3.org/2000/svg">
<path d="M52.1728 23.7786V57.0235C52.1728 58.9443 51.3938 60.6865 50.1353 61.9517C48.7956 63.2985 47.0549 64 45.1646 64H6.90413C5.00364 64 3.27828 63.2195 2.02735 61.9619C0.776422 60.7069 0 58.9698 0 57.0592C0 55.1486 0.776422 53.4141 2.02735 52.1565C3.27828 50.8989 5.00618 50.1184 6.90413 50.1184H9.04314V6.97652C9.04314 5.05575 9.82209 3.31351 11.0806 2.0483C12.3366 0.785639 14.0722 0 15.9828 0H56.0959C57.9964 0 59.7217 0.780545 60.9726 2.03812C62.2236 3.29314 63 5.03022 63 6.9408V22.2787C63 23.1077 62.3327 23.7786 61.508 23.7786H52.1728ZM16.6424 44.0579C15.8177 44.0579 15.1504 43.3871 15.1504 42.558C15.1504 41.729 15.8177 41.0581 16.6424 41.0581H44.5709C45.3956 41.0581 46.0629 41.729 46.0629 42.558C46.0629 43.3871 45.3956 44.0579 44.5709 44.0579H16.6424ZM30.608 32.0203C32.7546 30.8393 39.5596 26.5717 39.5596 19.9396V13.4197C36.8624 12.1085 33.7414 11.4555 30.608 11.4555C27.4743 11.4555 24.3509 12.1111 21.6563 13.4197V19.9396C21.6563 26.5716 28.4638 30.837 30.608 32.0203ZM42.5437 19.9396C42.5437 29.6962 31.2803 35.0327 31.2497 35.0509C30.859 35.2397 30.3896 35.255 29.9683 35.0509C29.9353 35.0356 18.6744 29.6968 18.6744 19.9396V12.509H18.6769C18.6769 11.9809 18.956 11.4682 19.4483 11.1953C22.7646 9.36635 26.6948 8.45572 30.6104 8.45572C34.49 8.45572 38.385 9.35361 41.6835 11.1494C42.1935 11.3866 42.5461 11.907 42.5461 12.509V19.9396H42.5437ZM45.3246 60.9977C46.375 60.9748 47.3291 60.5309 48.0243 59.8294C48.7424 59.1075 49.1864 58.1153 49.1864 57.0235V6.94073C49.1864 5.4791 49.6406 4.12207 50.4145 3.00229H15.9799C14.8939 3.00229 13.9043 3.45123 13.1888 4.17314C12.4707 4.89504 12.0241 5.88729 12.0241 6.97906V50.121H40.3535C41.1781 50.121 41.8454 50.7918 41.8454 51.6209V57.3092C41.8454 58.2811 42.221 59.1662 42.835 59.8269C43.4516 60.4901 44.3092 60.9288 45.2633 60.9952C45.2836 60.9977 45.3038 61.0003 45.3241 61.0003L45.3246 60.9977ZM6.90166 60.9977H39.9735C39.2706 59.9391 38.8596 58.6688 38.8596 57.3067V53.1182H6.8992C5.82339 53.1182 4.84392 53.5621 4.13096 54.2763C3.42046 54.9905 2.97902 55.9751 2.97902 57.0592C2.97902 58.1407 3.42052 59.1254 4.13096 59.8421C4.84145 60.5564 5.82086 61.0002 6.8992 61.0002L6.90166 60.9977ZM52.1729 20.7787H60.0105V6.94269C60.0105 5.86117 59.569 4.8765 58.8586 4.15975C58.1481 3.44549 57.1687 3.0017 56.0903 3.0017C55.0145 3.0017 54.0351 3.44555 53.3221 4.15975C52.6116 4.87402 52.1702 5.86117 52.1702 6.94269V20.7787H52.1729Z" fill="white"/>
</svg>
