<svg width="76" height="66" viewBox="0 0 76 66" fill="none" xmlns="http://www.w3.org/2000/svg">
<path d="M18.884 13.7115C18.884 13.0889 19.386 12.5909 20.0133 12.5909H43.6792C44.3066 12.5909 44.8085 13.089 44.8085 13.7115C44.8085 14.3341 44.3066 14.8322 43.6792 14.8322H20.0133C19.3859 14.8197 18.884 14.3217 18.884 13.7115ZM7.48995 22.8635H43.6911C44.3185 22.8635 44.8204 22.3655 44.8204 21.7429C44.8204 21.1203 44.3185 20.6222 43.6911 20.6222H7.48995C6.86254 20.6222 6.36066 21.1203 6.36066 21.7429C6.36066 22.3655 6.86258 22.8635 7.48995 22.8635ZM7.48995 30.8951H13.7389C14.3663 30.8951 14.8682 30.397 14.8682 29.7744C14.8682 29.1518 14.3662 28.6538 13.7389 28.6538H7.48995C6.86254 28.6538 6.36066 29.1518 6.36066 29.7744C6.36066 30.397 6.86258 30.8951 7.48995 30.8951ZM7.48995 38.9393H13.7389C14.3663 38.9393 14.8682 38.4412 14.8682 37.8187C14.8682 37.1961 14.3662 36.698 13.7389 36.698H7.48995C6.86254 36.698 6.36066 37.1961 6.36066 37.8187C6.36066 38.4412 6.86258 38.9393 7.48995 38.9393ZM43.6783 36.6979H37.4294C36.802 36.6979 36.3001 37.196 36.3001 37.8186C36.3001 38.4412 36.802 38.9392 37.4294 38.9392H43.6783C44.3057 38.9392 44.8076 38.4412 44.8076 37.8186C44.8076 37.196 44.3056 36.6979 43.6783 36.6979ZM43.6783 44.7295H7.48995C6.86254 44.7295 6.36066 45.2275 6.36066 45.8501C6.36066 46.4727 6.86258 46.9708 7.48995 46.9708H43.6911C44.3185 46.9708 44.8204 46.4727 44.8204 45.8501C44.8204 45.2275 44.3057 44.7295 43.6783 44.7295ZM43.6783 52.761H7.48995C6.86254 52.761 6.36066 53.2591 6.36066 53.8816C6.36066 54.5042 6.86258 55.0023 7.48995 55.0023H43.6911C44.3185 55.0023 44.8204 54.5042 44.8204 53.8816C44.8204 53.2591 44.3057 52.761 43.6783 52.761ZM25.5841 24.5072C30.7414 24.5072 34.9448 28.6663 34.9448 33.7963C34.9448 38.9263 30.7537 43.0854 25.5841 43.0854C20.4268 43.0854 16.2234 38.9263 16.2234 33.7963C16.2234 28.6663 20.4271 24.5072 25.5841 24.5072ZM25.5841 26.7486C21.6691 26.7486 18.4945 29.9115 18.4945 33.7965C18.4945 37.6816 21.6817 40.832 25.5841 40.832C29.4865 40.832 32.6864 37.6691 32.6864 33.7965C32.6864 29.924 29.4991 26.7486 25.5841 26.7486ZM23.3757 33.0867C22.9365 32.6509 22.2212 32.6509 21.782 33.0867C21.3428 33.5225 21.3428 34.2323 21.782 34.6681L23.727 36.5982C23.9403 36.8099 24.2289 36.922 24.5301 36.922C24.8312 36.922 25.1198 36.8099 25.3332 36.5982L29.3987 32.5638C29.8379 32.1279 29.8379 31.4182 29.3987 30.9823C28.9596 30.5465 28.2443 30.5465 27.8051 30.9823L24.5426 34.2199L23.3757 33.0867ZM75.3501 48.6891C75.3501 51.1671 73.3173 53.1843 70.8203 53.1843L65.4622 53.1968C63.3291 53.1968 61.5472 51.7274 61.0578 49.76C59.7653 50.0464 58.5607 50.4697 57.3937 50.8931C56.5781 51.192 55.7249 51.4908 54.8465 51.7399C53.0897 52.2504 51.6843 52.4496 50.7934 52.5368V62.7352C50.7934 64.1796 49.6138 65.3501 48.1583 65.3501H2.98516C1.52958 65.3501 0.350098 64.1796 0.350098 62.7352V15.7782C0.350098 15.7533 0.362646 15.7284 0.362646 15.691C0.375194 15.5914 0.387742 15.5042 0.412838 15.4171C0.425386 15.3797 0.437934 15.3423 0.450482 15.3174C0.500675 15.1929 0.575964 15.0808 0.676348 14.9812L15.1069 0.673853C15.2073 0.574236 15.3202 0.511979 15.4457 0.449715L15.5586 0.412358C15.6464 0.387454 15.7468 0.36255 15.8347 0.36255C15.8598 0.36255 15.8849 0.350098 15.9099 0.350098H48.1712C49.6268 0.350098 50.8063 1.52064 50.8063 2.965V22.5648C54.0813 23.0131 55.5369 24.6568 56.8294 26.1262C57.4317 26.8235 58.0089 27.471 58.7492 27.9567C59.3641 28.3551 60.1169 28.6789 60.9702 28.9154C61.3216 26.7861 63.1787 25.1424 65.4248 25.1424L70.7829 25.13C73.2925 25.13 75.3252 27.1472 75.3252 29.6376L75.3501 48.6891ZM4.22784 14.6576H14.4045C14.6178 14.6576 14.7809 14.4957 14.7809 14.284V4.18526L4.22784 14.6576ZM48.5482 33.3609C48.2595 33.4978 47.9333 33.6473 47.5945 33.7842C47.5067 33.8216 47.4314 33.8589 47.3435 33.8963C46.9043 34.0831 46.4526 34.2699 45.9883 34.4691C45.1602 34.8178 44.332 35.154 43.692 35.4528C42.3368 36.0879 40.6177 35.677 39.4382 34.4193C38.5222 33.448 38.0955 32.1903 38.1834 30.8953H37.4556C36.8282 30.8953 36.3263 30.3972 36.3263 29.7747C36.3263 29.1521 36.8282 28.654 37.4556 28.654H38.8359C38.861 28.6167 38.8736 28.5668 38.8987 28.5295C39.1622 28.0563 39.4759 27.6081 39.8021 27.1847C39.9276 27.0228 40.0656 26.8983 40.2037 26.7488C40.4295 26.4998 40.6428 26.2383 40.8813 26.0142C41.0444 25.8647 41.2201 25.7278 41.3832 25.5908C41.6091 25.3916 41.8349 25.1923 42.0859 25.0055C42.2741 24.8686 42.4623 24.7565 42.6505 24.632C42.889 24.4701 43.1399 24.3082 43.3909 24.1588C43.5917 24.0467 43.7924 23.9596 43.9806 23.8599C44.2316 23.7354 44.4826 23.5984 44.7335 23.4864C44.9343 23.3992 45.1351 23.3369 45.3358 23.2498C45.5868 23.1502 45.8378 23.0505 46.0887 22.9758C46.2895 22.9136 46.4903 22.8638 46.691 22.814C46.9295 22.7517 47.1804 22.677 47.4188 22.6272C47.6196 22.5898 47.8078 22.5649 47.996 22.54C48.1843 22.5151 48.385 22.4653 48.5607 22.4528V2.96538C48.5607 2.76615 48.385 2.59182 48.1843 2.59182H17.0401V14.2845C17.0401 15.7289 15.8605 16.8994 14.405 16.8994H2.62223V62.7359C2.62223 62.9351 2.7979 63.1094 2.99867 63.1094H48.1719C48.3726 63.1094 48.5483 62.9351 48.5483 62.7359L48.5482 33.3609ZM60.9204 47.4937L60.9078 42.4257L60.8953 31.2192C59.5778 30.9079 58.4359 30.4471 57.4947 29.8245C56.4909 29.1646 55.7882 28.3677 55.1105 27.5832C53.8306 26.1138 52.7264 24.8437 49.6144 24.6694C49.3384 24.6445 49.1 24.6445 48.849 24.6445C46.1888 24.8437 42.5373 26.5995 40.8559 29.6005C39.8646 31.3562 40.7806 32.5392 41.0818 32.863C41.5837 33.3984 42.2613 33.6225 42.7256 33.4109C43.4032 33.0871 44.2564 32.7384 45.1223 32.3773C46.3896 31.8543 47.8327 31.2567 48.4475 30.8582C48.8365 30.5967 49.351 30.5344 49.8152 30.6963C49.9658 30.7586 50.1038 30.8458 50.2293 30.9329C50.267 30.9578 50.2921 30.9827 50.3172 31.0076C50.4301 31.1073 50.5305 31.2193 50.6058 31.3563C50.6058 31.3687 50.6183 31.3687 50.6183 31.3687L50.8065 31.6053L50.8191 32.091L50.8818 50.2834C51.6724 50.1962 52.8268 50.0095 54.2322 49.5985C55.0353 49.362 55.8133 49.088 56.6414 48.7892C57.9715 48.3035 59.3519 47.8174 60.9204 47.4937ZM73.0918 48.6891L73.0667 29.6495C73.0667 28.4043 72.0378 27.3832 70.7829 27.3832L65.4249 27.3957C64.1701 27.3957 63.1537 28.4167 63.1537 29.662L63.1788 47.0822V48.7134C63.1788 49.9586 64.2077 50.9673 65.4626 50.9673L70.8207 50.9548C72.0755 50.9423 73.0918 49.9344 73.0918 48.6891Z" fill="white" stroke="white" stroke-width="0.7"/>
</svg>
