<svg width="158" height="11" viewBox="0 0 158 11" fill="none" xmlns="http://www.w3.org/2000/svg">
<path d="M-8.15392e-05 5.33325C-8.15392e-05 8.27877 2.38773 10.6666 5.33325 10.6666C8.27877 10.6666 10.6666 8.27877 10.6666 5.33325C10.6666 2.38773 8.27877 -8.15392e-05 5.33325 -8.15392e-05C2.38773 -8.15392e-05 -8.15392e-05 2.38773 -8.15392e-05 5.33325ZM147 5.33325C147 8.27877 149.388 10.6666 152.333 10.6666C155.279 10.6666 157.667 8.27877 157.667 5.33325C157.667 2.38773 155.279 -8.15392e-05 152.333 -8.15392e-05C149.388 -8.15392e-05 147 2.38773 147 5.33325ZM5.33325 5.33325V6.33325H152.333V5.33325V4.33325H5.33325V5.33325Z" fill="#0185FF"/>
</svg>
