<svg width="94" height="66" viewBox="0 0 94 66" fill="none" xmlns="http://www.w3.org/2000/svg">
<path d="M3.02344 10.2861C5.42583 10.2861 7.78519 11.2627 9.49219 12.9736L23.9375 27.4385C24.1953 27.7197 24.4531 27.9151 24.7461 28.0635C24.8476 28.1025 24.9492 28.1533 25.043 28.2119C25.1211 28.2627 25.2423 28.3057 25.4414 28.3564L43.8203 32.876C45.043 33.1807 46.082 33.8447 46.8711 34.7275C47.6641 33.8486 48.6992 33.1807 49.918 32.876L68.3086 28.3525C68.4997 28.3057 68.6211 28.2626 68.6992 28.2119C68.7616 28.1729 68.8321 28.1454 68.8984 28.1143C68.9217 28.1065 68.9416 28.0909 68.9648 28.083C68.9842 28.0753 69.0001 28.0673 69.0156 28.0596C69.3007 27.9151 69.5508 27.7235 69.7578 27.4971L84.2539 12.9814C85.9648 11.2745 88.3244 10.2941 90.7266 10.2939H92.1875C93.0508 10.2939 93.75 10.9932 93.75 11.8564C93.7498 12.7195 93.0506 13.4189 92.1875 13.4189H90.7266L90.7393 13.4033C89.1573 13.4033 87.6025 14.0518 86.4775 15.1768L73.7197 27.9531H92.2041C93.0671 27.9534 93.7664 28.6527 93.7666 29.5156C93.7666 30.3788 93.0672 31.0779 92.2041 31.0781H69.9229C69.6144 31.2148 69.3212 31.3164 69.0791 31.3789L50.6836 35.9023C49.3713 36.2306 48.4494 37.4025 48.4492 38.75V50.6377C48.4494 52.2546 49.7659 53.575 51.3867 53.5752H58.9062C58.9141 53.3448 58.9414 53.118 58.9609 52.8877C58.9648 52.798 58.9727 52.704 58.9805 52.6143C59.0117 52.3019 59.0625 51.993 59.1211 51.6885C59.1367 51.6027 59.1485 51.5204 59.1641 51.4385C59.2304 51.13 59.3086 50.8251 59.3984 50.5283C59.4179 50.4542 59.4376 50.3759 59.4609 50.3018C59.5546 50.0011 59.668 49.704 59.7852 49.415C59.8124 49.3488 59.836 49.2782 59.8633 49.2119C59.9882 48.9152 60.129 48.6298 60.2773 48.3486C60.3046 48.2941 60.3321 48.2314 60.3633 48.1768C60.5195 47.8917 60.6876 47.618 60.8672 47.3486C60.9023 47.298 60.9298 47.247 60.9648 47.1963C61.1484 46.9269 61.3439 46.6649 61.5508 46.4111C61.5858 46.3683 61.6173 46.3251 61.6523 46.2822C61.8632 46.0284 62.0899 45.786 62.3203 45.5479C62.3554 45.5128 62.3868 45.4736 62.4219 45.4385C62.664 45.2003 62.9142 44.9775 63.1719 44.7588C63.2069 44.7276 63.2384 44.6962 63.2734 44.6689C63.5351 44.4542 63.8087 44.2548 64.0898 44.0596C64.1249 44.0323 64.1603 44.0048 64.1953 43.9814C64.4804 43.7901 64.7775 43.6103 65.082 43.4424C65.1171 43.4229 65.1486 43.3994 65.1797 43.3838C65.4843 43.2198 65.8009 43.0712 66.1211 42.9307C66.1522 42.919 66.1876 42.8994 66.2227 42.8838C66.5507 42.7432 66.8868 42.622 67.2305 42.5127C67.2616 42.5049 67.2853 42.4893 67.3164 42.4814C67.6717 42.3682 68.0352 42.2783 68.4023 42.2002C68.4218 42.1963 68.4415 42.1885 68.4609 42.1846C68.8437 42.1065 69.2345 42.0439 69.6328 42.0049H69.6484C70.0468 41.9658 70.4532 41.9424 70.8633 41.9424H70.8711C71.0156 41.9424 71.1524 41.9619 71.293 41.9658C71.5546 41.9736 71.8126 41.9815 72.0703 42.0049C72.3437 42.0322 72.6094 42.0791 72.875 42.126C72.9961 42.1455 73.1211 42.1572 73.2422 42.1807C73.5312 42.2432 73.8164 42.3213 74.0977 42.3994C74.1875 42.4228 74.2813 42.4424 74.3711 42.4697C74.664 42.5596 74.9492 42.669 75.2344 42.7822C75.3047 42.8096 75.3828 42.8291 75.4531 42.8604C75.7383 42.9775 76.0156 43.1143 76.2891 43.2549C76.3516 43.2861 76.4219 43.3135 76.4844 43.3486C76.7617 43.4971 77.0273 43.6611 77.2891 43.8291C77.3438 43.8643 77.4062 43.8955 77.4609 43.9346C77.7227 44.1064 77.9688 44.2978 78.2148 44.4893C78.2656 44.5283 78.3203 44.5635 78.3711 44.6064C78.6133 44.8018 78.8438 45.0127 79.0703 45.2275C79.1172 45.2744 79.168 45.3135 79.2148 45.3604C79.4375 45.5791 79.6485 45.8096 79.8516 46.0439C79.8945 46.0947 79.9414 46.1416 79.9844 46.1924C80.1836 46.4267 80.3711 46.6768 80.5508 46.9268C80.5898 46.9814 80.6367 47.0362 80.6758 47.0908C80.8515 47.3447 81.0117 47.6065 81.168 47.8721C81.2031 47.9345 81.2461 47.9971 81.2812 48.0596C81.4336 48.3252 81.5664 48.5987 81.6953 48.876C81.7265 48.9462 81.7657 49.0167 81.7969 49.0869C81.9179 49.3603 82.0235 49.6456 82.125 49.9307C82.1523 50.0087 82.1836 50.087 82.2109 50.165C82.3046 50.4501 82.3789 50.7393 82.4531 51.0322C82.4726 51.122 82.5 51.2081 82.5195 51.2939C82.582 51.5829 82.6328 51.88 82.6758 52.1768C82.6875 52.2704 82.707 52.3683 82.7188 52.4619C82.7578 52.7548 82.7734 53.0519 82.7891 53.3525C82.7891 53.4305 82.8047 53.505 82.8047 53.583H92.1914C93.0547 53.583 93.7539 54.2822 93.7539 55.1455C93.7537 56.0086 93.0546 56.708 92.1914 56.708H82.4766C81.2155 62.0124 76.4499 65.8836 70.8682 65.8838C65.2863 65.8838 60.5167 62.0242 59.2432 56.708H51.376C49.5832 56.708 47.9854 55.9109 46.876 54.6689C45.7667 55.9111 44.1688 56.7079 42.376 56.708H34.5166C33.2546 62.0124 28.4577 65.8836 22.8877 65.8838C17.318 65.8838 12.5557 62.0242 11.2822 56.708H1.56348C0.700306 56.708 0.00115369 56.0086 0.000976562 55.1455C0.000976562 54.2822 0.700197 53.583 1.56348 53.583L10.958 53.5947C10.958 53.5167 10.9697 53.4423 10.9736 53.3643C10.9893 53.0675 11.0088 52.7665 11.0439 52.4736C11.0557 52.3761 11.0713 52.2821 11.0869 52.1885C11.1299 51.8917 11.1768 51.5946 11.2432 51.3057C11.2627 51.2159 11.2862 51.1298 11.3096 51.0439C11.3799 50.7511 11.458 50.4618 11.5518 50.1768C11.5791 50.0987 11.6104 50.0204 11.6377 49.9424C11.7392 49.6573 11.8448 49.3759 11.9658 49.0986C11.997 49.0245 12.0362 48.9579 12.0674 48.8877C12.2002 48.6104 12.3331 48.3368 12.4814 48.0713C12.5166 48.0089 12.5557 47.9462 12.5947 47.8838C12.7509 47.6182 12.9112 47.3525 13.0869 47.1025C13.1259 47.0479 13.1729 46.9931 13.2119 46.9385C13.3916 46.6885 13.5791 46.4384 13.7783 46.2041C13.8212 46.1495 13.8682 46.1064 13.9111 46.0557C14.1142 45.8213 14.3252 45.5908 14.5479 45.3721C14.5947 45.3252 14.6455 45.2861 14.6924 45.2393C14.9189 45.0244 15.1494 44.8134 15.3916 44.6182C15.4384 44.5791 15.4971 44.54 15.5479 44.501C15.7939 44.3057 16.0401 44.1182 16.3018 43.9463C16.3564 43.9072 16.419 43.876 16.4736 43.8408C16.7392 43.6729 17.0049 43.5088 17.2783 43.3604C17.3408 43.3291 17.4072 43.2978 17.4736 43.2666C17.7471 43.1299 18.0244 42.9893 18.3096 42.8721C18.3799 42.8447 18.458 42.8213 18.5283 42.7939C18.8135 42.6807 19.0986 42.5713 19.3916 42.4814C19.4815 42.4541 19.5752 42.4346 19.665 42.4111C19.9463 42.3291 20.2314 42.251 20.5205 42.1924C20.6416 42.1689 20.7666 42.1572 20.8877 42.1377C21.1572 42.0908 21.419 42.0439 21.6924 42.0166C21.9463 41.9932 22.208 41.9854 22.4697 41.9775C22.6103 41.9697 22.751 41.9541 22.8916 41.9541H22.8994C23.3095 41.9541 23.7158 41.9775 24.1143 42.0166H24.1299C24.5283 42.0557 24.919 42.1182 25.3018 42.1963C25.3212 42.2002 25.3409 42.208 25.3604 42.2119C25.7274 42.29 26.0909 42.3838 26.4463 42.4932C26.4774 42.501 26.501 42.5166 26.5322 42.5244C26.872 42.6338 27.212 42.7549 27.54 42.8955C27.5751 42.9072 27.6065 42.9268 27.6416 42.9424C27.9618 43.0791 28.2784 43.2315 28.583 43.3955C28.6181 43.415 28.6495 43.4346 28.6807 43.4541C28.9814 43.622 29.2784 43.7979 29.5674 43.9932C29.6025 44.0204 29.6378 44.0479 29.6729 44.0713C29.954 44.2626 30.2276 44.4659 30.4893 44.6807C30.5243 44.708 30.5557 44.7432 30.5908 44.7705C30.8485 44.9892 31.1026 45.212 31.3408 45.4502C31.3759 45.4853 31.4073 45.5245 31.4424 45.5596C31.6728 45.7939 31.8995 46.0401 32.1104 46.2939C32.1454 46.3368 32.1768 46.38 32.2119 46.4229C32.415 46.6767 32.6143 46.9347 32.7979 47.208C32.8329 47.2587 32.8643 47.3097 32.8955 47.3604C33.0712 47.6298 33.2432 47.9034 33.3994 48.1885C33.4306 48.2431 33.4542 48.3019 33.4854 48.3604C33.6337 48.6415 33.7745 48.9269 33.8994 49.2236C33.9267 49.2899 33.9502 49.3605 33.9775 49.4268C34.0947 49.7196 34.208 50.0128 34.3018 50.3135C34.3251 50.3876 34.3409 50.4659 34.3643 50.54C34.4541 50.8407 34.5323 51.1417 34.5986 51.4502C34.6142 51.5321 34.626 51.6183 34.6416 51.7002C34.6963 52.0048 34.7471 52.3136 34.7822 52.626C34.79 52.7157 34.794 52.8097 34.8018 52.8994C34.8213 53.1259 34.8486 53.3527 34.8564 53.5869H42.376C43.993 53.5868 45.3133 52.2703 45.3135 50.6494V38.7617C45.3133 37.4103 44.3953 36.2383 43.0752 35.9102L24.6924 31.3906C24.4502 31.3281 24.1532 31.2265 23.8447 31.0898H1.56348C0.700197 31.0898 0.000976562 30.3906 0.000976562 29.5273C0.00116708 28.6642 0.700314 27.9648 1.56348 27.9648L20.0469 27.9609L7.28516 15.1846C6.15626 14.0596 4.60544 13.4111 3.02344 13.4111H1.5625C0.699414 13.411 0.000131782 12.7117 0 11.8486C0 10.9854 0.699332 10.2863 1.5625 10.2861H3.02344ZM70.8633 45.0713C65.9883 45.0753 62.0234 49.04 62.0234 53.915C62.0234 54.2626 62.0391 54.5948 62.0859 54.9268C62.6212 59.407 66.3946 62.7588 70.8672 62.7588L70.8633 62.7549C75.324 62.7548 79.0898 59.4031 79.6211 54.958V54.9229C79.668 54.5948 79.6836 54.2626 79.6836 53.915C79.6836 49.0401 75.7265 45.0714 70.8633 45.0713ZM22.8828 45.0713C18.0196 45.0754 14.0625 49.0401 14.0625 53.915C14.0625 54.2587 14.0781 54.5909 14.125 54.9229C14.1288 54.9306 14.125 54.9385 14.125 54.9463C14.6719 59.4142 18.4288 62.7568 22.8809 62.7578C27.3526 62.7569 31.125 59.4065 31.6562 54.9619C31.707 54.5948 31.7226 54.2626 31.7227 53.915C31.7227 49.04 27.7578 45.0713 22.8828 45.0713ZM46.874 0C47.5459 0 48.1406 0.42578 48.3555 1.0625L51.5352 10.4805L60.4453 6.07031C61.0429 5.77366 61.7696 5.89462 62.2422 6.36719C62.7185 6.83985 62.8358 7.56262 62.5391 8.16406L58.1289 17.0742L67.5469 20.2539C68.1834 20.4689 68.6093 21.0626 68.6094 21.7344C68.6094 22.4061 68.1834 22.9999 67.5469 23.2148L56.4336 26.9648C56.2696 27.0195 56.0976 27.0469 55.9336 27.0469C55.2812 27.0469 54.6719 26.6367 54.4531 25.9844H54.46C54.1828 25.1681 54.6242 24.2774 55.4404 24.0039L62.167 21.7305L55.4404 19.457C55.0109 19.3125 54.667 18.9921 54.4951 18.5742C54.3233 18.1563 54.3389 17.6874 54.5381 17.2812L57.6904 10.918L51.3271 14.0703C50.9209 14.2695 50.4521 14.2851 50.0342 14.1133C49.6163 13.9414 49.2959 13.5937 49.1514 13.168L46.8779 6.44141L44.6045 13.168C44.46 13.5977 44.1396 13.9414 43.7217 14.1133C43.3037 14.289 42.8349 14.2734 42.4287 14.0703L36.0654 10.918L39.2178 17.2812C39.417 17.6875 39.4326 18.1602 39.2607 18.5742C39.0889 18.9922 38.7412 19.3125 38.3154 19.457L31.5889 21.7305L38.3154 24.0039C39.1318 24.2813 39.5732 25.168 39.2959 25.9844C39.0185 26.8008 38.1318 27.2422 37.3154 26.9648L26.2021 23.2148C25.5656 22.9998 25.1396 22.4062 25.1396 21.7344C25.1397 21.0626 25.5656 20.4688 26.2021 20.2539L35.6201 17.0742L31.21 8.16406C30.9132 7.56257 31.0344 6.83981 31.5068 6.36719C31.9795 5.89461 32.7022 5.77362 33.3037 6.07031L42.2139 10.4805L45.3936 1.0625C45.6084 0.425926 46.2023 0.000194946 46.874 0Z" fill="white"/>
</svg>
