<svg width="74" height="67" viewBox="0 0 74 67" fill="none" xmlns="http://www.w3.org/2000/svg">
<path d="M66.0668 21.3918C66.0668 21.4998 66.1133 21.5986 66.1846 21.6695C66.2558 21.7405 66.3549 21.7868 66.4634 21.7868H71.2216C71.33 21.7868 71.4291 21.7405 71.5004 21.6695C71.5716 21.5986 71.6181 21.4998 71.6181 21.3918V5.07026C71.6181 4.96227 71.5716 4.86354 71.5004 4.79258C71.4291 4.72161 71.33 4.67533 71.2216 4.67533H66.4634C66.3549 4.67533 66.2558 4.72161 66.1846 4.79258C66.1133 4.86354 66.0668 4.96227 66.0668 5.07026V21.3918ZM6.21107 56.1795V39.1486C6.21107 39.0406 6.16461 38.9419 6.09335 38.8709C6.02211 38.7999 5.91988 38.7537 5.81456 38.7537H2.37914V56.5744H5.81456C5.92298 56.5744 6.02211 56.5281 6.09335 56.4571C6.1646 56.3862 6.21107 56.2874 6.21107 56.1795ZM8.59017 41.2212V54.3896H11.8676C12.6328 54.3896 13.3546 54.5439 14.0175 54.8401C14.6742 55.1363 15.2658 55.5744 15.7739 56.1483L22.4434 63.6704C22.7253 63.9882 23.0475 64.2288 23.4037 64.3893C23.7507 64.5435 24.1441 64.6238 24.5778 64.6238H44.9056C45.5221 64.6238 46.0828 64.3738 46.4824 63.9728C46.8882 63.5655 47.1391 63.007 47.1391 62.3961C47.1391 61.7821 46.8882 61.2267 46.4855 60.8226C46.0797 60.4215 45.5221 60.1716 44.9056 60.1716H32.1648C31.8674 60.1716 31.6133 60.0667 31.4182 59.9093L27.831 57.3176C27.4128 57.438 26.9791 57.4997 26.5454 57.4997C25.3992 57.4997 24.25 57.0739 23.3578 56.2285L18.0668 50.9648C17.6021 50.502 17.6021 49.7522 18.0668 49.2894C18.5314 48.8266 19.2842 48.8266 19.7489 49.2894L25.0089 54.5315C25.4364 54.9295 25.9878 55.13 26.5423 55.13C27.1154 55.13 27.6885 54.914 28.1222 54.4821C28.5559 54.0501 28.7727 53.4794 28.7727 52.9085C28.7727 52.3377 28.5559 51.767 28.1222 51.335L22.9086 46.1423C22.6298 45.8646 22.5183 45.479 22.5772 45.118C22.6174 44.6305 22.5586 44.143 22.4068 43.6863C22.2457 43.205 21.9886 42.7576 21.6447 42.3843C21.3009 42.011 20.8765 41.7148 20.4087 41.5142C19.944 41.3137 19.436 41.2119 18.9249 41.218L8.59017 41.2212ZM8.52822 56.7592C8.4136 57.2868 8.14719 57.7619 7.77545 58.1322C7.27361 58.632 6.57663 58.9436 5.81452 58.9436H1.18955C0.532823 58.9436 0 58.4129 0 57.7589V37.5686C0 36.9145 0.532823 36.3838 1.18955 36.3838H5.81452C6.57967 36.3838 7.27354 36.6954 7.77545 37.1952C8.21224 37.6302 8.50344 38.2103 8.57467 38.8521H18.9055C19.7574 38.8459 20.5907 39.0156 21.3466 39.3396C22.1086 39.6666 22.8088 40.1572 23.388 40.7897C23.9673 41.4222 24.4009 42.1596 24.6612 42.9433C24.7913 43.3351 24.8811 43.7424 24.9245 44.159H40.8875C42.1514 44.159 43.3038 44.6742 44.1402 45.5072C44.9828 46.3465 45.5001 47.4942 45.5001 48.7561C45.5001 49.7157 45.2027 50.6105 44.6916 51.3478C45.2399 51.5792 45.7355 51.9155 46.1538 52.3321C47.0212 53.2639 47.5075 54.2851 47.5075 55.5779C47.5075 56.5374 47.2101 57.4322 46.699 58.1727C47.2473 58.4072 47.7429 58.7404 48.1549 59.1539C48.9944 59.99 49.5117 61.1409 49.5117 62.4028C49.5117 63.6678 48.9913 64.8187 48.158 65.6517C47.3185 66.4817 46.1661 67 44.8991 67H24.5713C23.8061 67 23.0844 66.8457 22.4215 66.5495C21.7647 66.2533 21.1731 65.8152 20.665 65.2414L13.9955 57.7193C13.7136 57.4015 13.3914 57.1608 13.0352 57.0004C12.6882 56.8461 12.2948 56.7659 11.8611 56.7659H8.52172L8.52822 56.7592ZM26.6593 46.525L29.8036 49.6567C30.2001 50.0516 30.5068 50.499 30.7267 50.9772H40.8871C41.4787 50.9772 42.0456 50.7458 42.4639 50.3262C42.8697 49.9189 43.1206 49.3605 43.1206 48.7496C43.1206 48.1356 42.8697 47.5771 42.4669 47.1791C42.0611 46.7749 41.5004 46.525 40.884 46.525H26.653L26.6593 46.525ZM31.1294 53.3468C31.0396 54.2878 30.6586 55.2073 29.9925 55.957L32.5452 57.799H42.895C43.4898 57.799 44.0536 57.5614 44.4718 57.1449C44.8776 56.7407 45.1285 56.1822 45.1285 55.5713C45.1285 54.9944 44.8931 54.3989 44.4718 54.0009C44.066 53.5967 43.5084 53.3468 42.895 53.3468L31.1294 53.3468ZM57.1076 20.469C58.5295 20.469 59.9483 20.2284 61.2865 19.7471C61.4197 19.7008 61.5529 19.6792 61.6861 19.6792L63.6842 19.6761V6.73906H61.9711C61.7666 6.73906 61.5745 6.68661 61.4073 6.59713L51.9622 2.74658C51.5038 2.56146 51.0608 2.44422 50.6054 2.39177C50.147 2.33931 49.6823 2.35166 49.1991 2.4257L46.6867 2.81754C46.3305 2.90085 46.0021 3.00575 45.7265 3.14459C45.4817 3.2711 45.268 3.43153 45.0914 3.64134L42.483 6.7946C43.7283 7.1957 44.9148 7.73564 46.0176 8.39896C47.3342 9.18881 48.5392 10.1546 49.5924 11.2591L50.5775 11.8608C50.7169 11.9471 50.8347 12.0551 50.9214 12.1785L53.1518 14.8197C53.5731 15.3164 53.508 16.06 53.0062 16.4796C52.7801 16.6678 52.5075 16.7573 52.2348 16.7542L43.5361 16.6802C43.1457 16.6863 42.7864 16.8468 42.5293 17.1029C42.2722 17.359 42.1111 17.7169 42.1111 18.1056C42.1111 18.4913 42.2691 18.843 42.5231 19.096C42.7895 19.3583 43.152 19.5218 43.5516 19.528L52.5414 19.6699C52.6932 19.673 52.8388 19.7038 52.972 19.7563C54.3257 20.216 55.664 20.4597 57.1044 20.4597L57.1076 20.469ZM54.2886 22.564L54.2948 22.9682C54.2948 27.6579 52.3834 31.9093 49.2981 34.9827C46.2127 38.0557 41.947 39.9594 37.2352 39.9594C32.5266 39.9594 28.2581 38.0557 25.1724 34.9827C22.087 31.9097 20.1757 27.658 20.1757 22.9682C20.1757 18.2753 22.087 14.027 25.1724 10.9537C28.2578 7.88066 32.5265 5.97695 37.2352 5.97695C38.1491 5.97695 39.0475 6.04791 39.9241 6.18675L43.2666 2.14798C43.6662 1.66358 44.134 1.30876 44.6451 1.04961C45.1222 0.802776 45.6302 0.639253 46.1537 0.518918L48.8426 0.0993073C49.5519 -0.0117622 50.2242 -0.0302762 50.8809 0.0468563C51.5407 0.12399 52.1975 0.299855 52.8635 0.571368L62.1943 4.37563H63.7804C63.9074 3.89123 64.1614 3.45924 64.5052 3.11676C65.0071 2.61693 65.701 2.30534 66.4662 2.30534H71.2244C71.9895 2.30534 72.6834 2.61696 73.1853 3.11676C73.6872 3.61659 74 4.3077 74 5.06983V21.3914C74 22.1535 73.6871 22.8446 73.1853 23.3445C72.6835 23.8443 71.9896 24.1559 71.2244 24.1559H66.4662C65.701 24.1559 65.0072 23.8443 64.5052 23.3445C64.1521 22.9928 63.895 22.5454 63.7711 22.0456H61.8783C60.3264 22.5763 58.7155 22.8416 57.114 22.8416C56.1722 22.8416 55.2274 22.749 54.295 22.567L54.2886 22.564ZM49.1184 14.3755C47.9599 12.7866 46.4884 11.4445 44.797 10.4293C42.5915 9.10879 40.0047 8.34674 37.2353 8.34674C33.1834 8.34674 29.5094 9.98506 26.8545 12.6293C24.1997 15.2735 22.5548 18.9296 22.5548 22.9685C22.5548 27.0042 24.1997 30.6634 26.8545 33.3077C29.5093 35.9519 33.1802 37.5902 37.2353 37.5902C41.2904 37.5902 44.9612 35.9519 47.6161 33.3077C50.271 30.6635 51.9159 27.0073 51.9159 22.9685C51.9066 22.626 51.8942 22.3298 51.8756 22.0305L43.5242 21.8978C42.4833 21.8824 41.5354 21.4566 40.8539 20.7778C40.1631 20.0898 39.7387 19.1518 39.7387 18.1151C39.7387 18.0102 39.7449 17.9023 39.7511 17.7974C39.5683 17.3253 39.2523 16.9149 38.8527 16.6157C38.7195 16.5169 38.577 16.4305 38.4252 16.3565V22.1385C40.4698 22.9067 42.3067 23.928 42.3067 27.1646C42.3067 28.556 41.7368 29.8211 40.8198 30.7343C40.1693 31.3822 39.3452 31.8574 38.4221 32.0795V32.8354C38.4221 33.4895 37.8893 34.0202 37.2326 34.0202C36.5759 34.0202 36.043 33.4895 36.043 32.8354V32.0795C35.123 31.8574 34.299 31.3853 33.6485 30.7374C32.7284 29.8272 32.1615 28.5622 32.1615 27.1676C32.1615 26.5135 32.6944 25.9829 33.3511 25.9829C34.0078 25.9829 34.5406 26.5135 34.5406 27.1676C34.5406 27.9081 34.8442 28.5808 35.3306 29.0651C35.5381 29.2718 35.7798 29.4477 36.0431 29.5773V23.7984C33.9986 23.0301 32.1585 22.012 32.1585 18.7723C32.1585 17.3777 32.7285 16.1127 33.6454 15.1995C34.296 14.5515 35.12 14.0794 36.0431 13.8604V13.1045C36.0431 12.4504 36.5759 11.9197 37.2326 11.9197C37.8894 11.9197 38.4222 12.4504 38.4222 13.1045V13.8635C39.1006 14.027 39.7263 14.3294 40.2715 14.7336C40.5163 14.9156 40.7455 15.1193 40.953 15.3445C41.6315 14.7151 42.5422 14.3294 43.5397 14.3294L49.1157 14.3818L49.1184 14.3755ZM38.4252 24.7329V29.5739C38.6916 29.4443 38.9332 29.2684 39.1408 29.0648C39.6302 28.5835 39.9307 27.9078 39.9307 27.1673C39.9307 25.89 39.2925 25.205 38.4283 24.7361L38.4252 24.7329ZM36.0461 21.1971V16.3592C35.7797 16.4888 35.538 16.6616 35.3305 16.8683C34.8441 17.3527 34.5406 18.0253 34.5406 18.7658C34.5406 20.0431 35.1787 20.7281 36.0461 21.1971ZM67.6524 6.26089C67.6524 5.60679 68.1852 5.0761 68.842 5.0761C69.4987 5.0761 70.0315 5.60679 70.0315 6.26089V9.0377C70.0315 9.6918 69.4987 10.2225 68.842 10.2225C68.1852 10.2225 67.6524 9.6918 67.6524 9.0377V6.26089Z" fill="white"/>
</svg>
