<svg width="50" height="50" viewBox="0 0 50 50" fill="none" xmlns="http://www.w3.org/2000/svg">
<path d="M25.0001 4.16699C15.8105 4.16699 8.33344 11.6441 8.33344 20.8232C8.27302 34.2503 23.1584 44.9982 23.7918 45.4462C24.1444 45.698 24.5668 45.8333 25.0001 45.8333C25.4334 45.8333 25.8558 45.698 26.2084 45.4462C26.8418 44.9982 41.7272 34.2503 41.6668 20.8337C41.6668 11.6441 34.1897 4.16699 25.0001 4.16699ZM25.0001 41.1149C21.6439 38.3899 12.4564 30.0857 12.5001 20.8337C12.5001 13.9399 18.1064 8.33366 25.0001 8.33366C31.8939 8.33366 37.5001 13.9399 37.5001 20.8441C37.5438 30.0878 28.3584 38.392 25.0001 41.1149Z" fill="white"/>
<path d="M22.9168 24.1371L18.1397 19.36L15.1938 22.3059L22.9168 30.0288L34.8063 18.1392L31.8605 15.1934L22.9168 24.1371Z" fill="white"/>
</svg>
